<svg width="34" height="34" viewBox="0 0 34 34" fill="none" xmlns="http://www.w3.org/2000/svg">
<g clip-path="url(#clip0_423_86227)">
<path d="M30.931 19.918C29.6335 18.5976 27.9664 17.7655 26.1599 17.5204V4.01161C26.1599 1.79971 24.3602 0 22.1483 0H4.74234C2.53018 0 0.730469 1.79971 0.730469 4.01161V27.086C0.730469 29.2981 2.53018 31.0978 4.74208 31.0978H18.7416C20.3169 32.9484 22.582 34 25.0326 34C29.5941 34 33.3051 30.2864 33.3051 25.7218C33.3051 23.5366 32.462 21.4754 30.931 19.918ZM2.72266 27.086V4.01161C2.72266 2.89827 3.62874 1.99219 4.74234 1.99219H22.1483C23.2619 1.99219 24.1677 2.89827 24.1677 4.01161V17.4887C20.0111 17.9227 16.7601 21.4492 16.7601 25.7218C16.7601 26.9059 17.007 28.0509 17.4807 29.1054H4.74234C3.62874 29.1054 2.72266 28.1996 2.72266 27.086ZM25.0326 32.0078C23.0432 32.0078 21.2145 31.0945 20.0147 29.5023C19.1888 28.4058 18.752 27.0987 18.752 25.7218C18.752 22.2557 21.5696 19.4358 25.0326 19.4358C25.0652 19.4358 25.0982 19.4363 25.1309 19.4368L25.1462 19.4371C26.7993 19.4664 28.3492 20.133 29.5103 21.3143C30.6727 22.4969 31.3129 24.0624 31.3129 25.7218C31.3129 29.1879 28.4955 32.0078 25.0326 32.0078Z" fill="#1D3238"/>
<path d="M20.0147 29.5023C21.2145 31.0945 23.0432 32.0078 25.0326 32.0078C28.4955 32.0078 31.3129 29.1879 31.3129 25.7218C31.3129 24.0624 30.6727 22.4969 29.5103 21.3143C28.3492 20.133 26.7993 19.4664 25.1462 19.4371L25.1309 19.4368C25.0982 19.4363 25.0652 19.4358 25.0326 19.4358C21.5696 19.4358 18.752 22.2557 18.752 25.7218C18.752 27.0987 19.1888 28.4058 20.0147 29.5023Z" fill="#F7F1C3"/>
<path d="M11.7726 6.55011H5.82764C5.27745 6.55011 4.83154 6.99602 4.83154 7.5462C4.83154 8.09639 5.27745 8.5423 5.82764 8.5423H11.7726C12.3225 8.5423 12.7686 8.09639 12.7686 7.5462C12.7686 6.99602 12.3225 6.55011 11.7726 6.55011Z" fill="#1D3238"/>
<path d="M11.7726 10.5347H5.82764C5.27745 10.5347 4.83154 10.9806 4.83154 11.5308C4.83154 12.081 5.27745 12.5269 5.82764 12.5269H11.7726C12.3225 12.5269 12.7686 12.081 12.7686 11.5308C12.7686 10.9806 12.3225 10.5347 11.7726 10.5347Z" fill="#1D3238"/>
<path d="M11.7726 14.5193H5.82764C5.27745 14.5193 4.83154 14.9653 4.83154 15.5154C4.83154 16.0656 5.27745 16.5115 5.82764 16.5115H11.7726C12.3225 16.5115 12.7686 16.0656 12.7686 15.5154C12.7686 14.9653 12.3225 14.5193 11.7726 14.5193Z" fill="#1D3238"/>
<path d="M11.7726 18.504H5.82764C5.27745 18.504 4.83154 18.9499 4.83154 19.5001C4.83154 20.0503 5.27745 20.4962 5.82764 20.4962H11.7726C12.3225 20.4962 12.7686 20.0503 12.7686 19.5001C12.7686 18.9499 12.3225 18.504 11.7726 18.504Z" fill="#1D3238"/>
<path d="M11.7726 22.5553H5.82764C5.27745 22.5553 4.83154 23.0015 4.83154 23.5514C4.83154 24.1016 5.27745 24.5475 5.82764 24.5475H11.7726C12.3225 24.5475 12.7686 24.1016 12.7686 23.5514C12.7686 23.0015 12.3225 22.5553 11.7726 22.5553Z" fill="#1D3238"/>
<path d="M15.1177 8.5423H21.0626C21.6128 8.5423 22.0587 8.09639 22.0587 7.5462C22.0587 6.99602 21.6128 6.55011 21.0626 6.55011H15.1177C14.5677 6.55011 14.1216 6.99602 14.1216 7.5462C14.1216 8.09639 14.5677 8.5423 15.1177 8.5423Z" fill="#1D3238"/>
<path d="M15.1177 12.5269H21.0626C21.6128 12.5269 22.0587 12.081 22.0587 11.5308C22.0587 10.9806 21.6128 10.5347 21.0626 10.5347H15.1177C14.5677 10.5347 14.1216 10.9806 14.1216 11.5308C14.1216 12.081 14.5677 12.5269 15.1177 12.5269Z" fill="#1D3238"/>
<path d="M18.977 15.5154C18.977 14.9653 18.5311 14.5193 17.9809 14.5193H15.1177C14.5677 14.5193 14.1216 14.9653 14.1216 15.5154C14.1216 16.0656 14.5677 16.5115 15.1177 16.5115H17.9809C18.5311 16.5115 18.977 16.0656 18.977 15.5154Z" fill="#1D3238"/>
<path d="M22.8853 26.272H24.3794V27.7661C24.3794 28.1787 24.7139 28.5132 25.1265 28.5132C25.539 28.5132 25.8735 28.1787 25.8735 27.7661V26.272H27.3677C27.7803 26.272 28.1147 25.9375 28.1147 25.5249C28.1147 25.1123 27.7803 24.7778 27.3677 24.7778H25.8735V23.2837C25.8735 22.8711 25.539 22.5366 25.1265 22.5366C24.7139 22.5366 24.3794 22.8711 24.3794 23.2837V24.7778H22.8853C22.4727 24.7778 22.1382 25.1123 22.1382 25.5249C22.1382 25.9375 22.4727 26.272 22.8853 26.272Z" fill="#1D3238"/>
</g>
<defs>
<clipPath id="clip0_423_86227">
<rect width="34" height="34" fill="white"/>
</clipPath>
</defs>
</svg>
