<svg width="50" height="53" viewBox="0 0 50 53" fill="none" xmlns="http://www.w3.org/2000/svg">
<rect x="2" y="31.0002" width="5" height="18" fill="#F7F1C3"/>
<path d="M49.4824 38.3319C49.1166 36.6628 47.8281 35.5842 46.1999 35.5842C45.6819 35.5842 45.1497 35.6913 44.6178 35.9023C44.4564 35.9664 44.2963 36.0339 44.1316 36.1046C45.1006 33.6058 45.3734 30.8883 44.9418 28.0208C44.4397 24.6873 43.0746 21.5259 40.7687 18.3555C40.1325 17.4805 39.4618 16.6605 38.7747 15.918C38.5238 15.6469 38.2153 15.4979 37.9061 15.4979C37.6643 15.4979 37.4332 15.5872 37.2382 15.7562C36.7693 16.1614 36.755 16.8205 37.2035 17.359C37.249 17.4137 37.2976 17.4658 37.3462 17.5179C37.3779 17.5519 37.41 17.586 37.4406 17.621C40.7677 21.432 42.5135 25.0811 42.9345 29.1048C43.2515 32.1325 42.6606 34.8732 41.1784 37.2508C41.071 37.4228 40.9449 37.5294 40.7434 37.6185C38.2906 38.6997 35.8412 39.7894 33.3919 40.8789L32.4806 41.2843C32.4528 41.2966 32.4244 41.3093 32.3964 41.3218C32.3966 41.2924 32.3968 41.2624 32.397 41.2333C32.4168 38.7052 30.754 36.6687 28.3533 36.281C26.3553 35.9581 24.2419 35.7046 21.8922 35.5063C19.5277 35.3067 17.6963 34.7268 16.1288 33.6819C14.951 32.8965 13.683 32.3363 12.3598 32.0161C12.0278 31.9359 11.9775 31.8311 11.9868 31.5369C11.9905 31.4255 11.9838 31.3199 11.9775 31.2179C11.9742 31.1682 11.9712 31.1188 11.9694 31.0695C11.877 28.2804 12.5286 25.5627 13.9614 22.7609C15.5896 19.5743 17.9485 16.7452 21.392 13.8513C21.7016 13.591 21.9692 13.3662 22.2304 13.3662C22.3619 13.3662 22.5027 13.4226 22.6607 13.5389C22.8022 13.6431 22.9647 13.6704 23.0951 13.6926C23.1309 13.6985 23.1667 13.7044 23.2006 13.7125C24.4176 14.0019 25.6905 14.1426 27.0918 14.1426C27.7397 14.1426 28.4017 14.1129 29.1151 14.0518C30.4003 13.9417 31.5506 13.7954 32.5988 13.123C32.6006 13.1243 32.6021 13.1258 32.6036 13.1271L32.6383 13.1565C33.309 13.7116 33.9793 14.2678 34.648 14.8254C35.2402 15.3188 35.854 15.3076 36.2674 14.8274C36.4633 14.5997 36.5564 14.3392 36.5365 14.0732C36.513 13.7624 36.3431 13.4693 36.0315 13.2024C35.228 12.5144 34.561 11.9625 33.932 11.4656C33.7285 11.3049 33.6892 11.2281 33.7117 11.0335C33.8094 10.1903 33.5505 9.42323 32.9627 8.81489C32.9141 8.76454 32.8972 8.73674 32.8928 8.73543C32.8967 8.72317 32.9098 8.68946 32.9579 8.61394C33.6996 7.45023 34.53 6.07857 34.9993 4.52696C35.1896 3.89826 35.3582 3.14895 35.1686 2.35564C34.9514 1.44936 34.3558 0.908229 33.575 0.908229C33.3047 0.908229 33.0185 0.972588 32.7251 1.09933C32.6674 1.12407 32.611 1.151 32.5543 1.17814C32.4951 1.2066 32.4354 1.23527 32.3747 1.25979C32.1156 1.36443 31.8938 1.35108 31.6834 1.21514C31.2524 0.936249 30.7838 0.749741 30.3409 0.582716L30.2858 0.56192H29.3419L29.2991 0.564766C28.7842 0.633502 28.3279 0.792866 27.9044 1.05161C27.6149 1.22805 27.3721 1.24644 27.1462 1.09277C26.6472 0.753901 26.1116 0.636129 25.6536 0.565642L24.65 0.56192L24.5869 0.590159C24.4949 0.631532 24.4001 0.668527 24.3052 0.70596C24.0718 0.797682 23.8303 0.892468 23.6105 1.0468C23.1656 1.35852 22.7885 1.37297 22.2439 1.10262C21.9438 0.953543 21.6515 0.87802 21.3749 0.87802C20.6942 0.87802 20.1463 1.33969 19.8718 2.14505C19.688 2.68377 19.6761 3.26891 19.8343 3.98648C20.1717 5.51707 20.9246 6.86422 21.6333 8.06426C20.8695 7.41871 20.0083 7.01351 19.0685 6.85831C18.6274 6.78541 18.1542 6.77578 17.611 6.82941C16.3512 6.9531 15.2361 6.6972 14.2009 6.04529C13.6344 5.68848 13.0112 5.80581 12.6801 6.31542C12.3301 6.85459 12.4891 7.46118 13.085 7.86068C13.2171 7.94956 13.3525 8.03208 13.4875 8.10607C14.8113 8.83175 16.1987 9.12311 17.6034 8.97075C18.7715 8.84401 19.7082 9.14128 20.4679 9.88468C19.4506 9.94357 18.4905 10.1183 17.6065 10.4057C15.8092 10.9906 14.5357 11.9361 13.7131 13.2966C13.3831 13.8427 13.484 14.4419 13.9646 14.7875C14.1584 14.9265 14.3769 15.0001 14.5969 15.0001C14.9445 15.0001 15.2581 14.8164 15.4573 14.4962C16.1588 13.3679 17.2556 12.6611 18.9088 12.2716C19.2953 12.1806 19.7414 12.088 20.2322 12.0494C19.2977 12.8147 18.5508 13.4734 17.8725 14.1284C16.7555 15.2069 15.8838 16.1498 15.1296 17.0954C11.3703 21.8078 9.64662 26.5182 9.86165 31.4929C9.42161 31.4386 8.95249 31.3893 8.48293 31.3826C8.44691 31.3821 8.42131 31.3799 8.4033 31.378C8.40026 31.3565 8.39722 31.3245 8.39592 31.2766C8.35448 29.7718 7.3123 28.7563 5.80317 28.7496L5.66278 28.7491C5.37528 28.7491 5.08777 28.7533 4.80005 28.757C4.51537 28.7609 4.23068 28.7649 3.94643 28.7649C3.53047 28.7649 3.1885 28.7563 2.8704 28.738C2.06539 28.6918 1.3233 28.9737 0.801239 29.5175C0.298702 30.0409 0.0467828 30.7497 0.0726039 31.5673C0.119039 33.0515 0.108406 34.5654 0.0979911 36.0297C0.0934345 36.6718 0.0888778 37.3136 0.0888778 37.9556L0.0882268 40.9737C0.0871419 43.4898 0.086274 46.0059 0.0925665 48.522C0.0962553 49.9913 1.1176 51.028 2.57639 51.0434C3.69321 51.055 4.81025 51.0554 5.92663 51.0429C7.18189 51.0291 8.13793 50.2076 8.36207 48.9498C8.36945 48.9082 8.37617 48.8664 8.38268 48.8241C8.60119 48.9066 8.81839 48.9892 9.03516 49.0712C9.77399 49.3514 10.5378 49.6413 11.2903 49.9129C11.8562 50.1174 12.429 50.3383 12.983 50.5524C14.394 51.0972 15.853 51.6607 17.3687 52.0118L17.4414 52.0201L29.8104 52.0195L29.8783 51.9862C29.9525 51.9494 30.0093 51.9492 30.0835 51.986L30.1515 52.0195H30.5329L30.6199 51.9529C30.628 51.947 30.6358 51.9404 30.6442 51.933C31.9865 51.8078 33.2791 51.338 34.5929 50.4983L39.7023 47.2351C42.4771 45.463 45.2521 43.691 48.0258 41.9176C49.1841 41.1771 49.7827 39.7029 49.4824 38.3319ZM31.5232 11.2001C31.4388 11.3516 31.2937 11.4597 31.1036 11.5125C29.8629 11.8575 28.5649 12.0122 26.8917 12.0144L26.8166 12.0149C25.8773 12.0149 24.6496 11.8487 23.4488 11.5593C23.1765 11.4936 22.9788 11.3529 22.8775 11.1526C22.777 10.9538 22.7801 10.7023 22.8859 10.4442C23.0192 10.1198 23.2316 10.0821 23.3798 10.0821C23.4442 10.0821 23.5148 10.0907 23.5896 10.1077C24.9182 10.4083 26.1125 10.5543 27.2408 10.5543C27.4135 10.5543 27.5867 10.5508 27.7605 10.544C28.6595 10.5075 29.617 10.3733 30.7742 10.1211C30.8634 10.1016 30.9467 10.0918 31.0222 10.0918C31.2166 10.0918 31.4545 10.1434 31.5682 10.5462C31.6374 10.7918 31.6213 11.0241 31.5232 11.2001ZM21.8516 3.23126C21.9397 3.28204 22.0393 3.33962 22.1538 3.36895C23.007 3.58786 23.8138 3.45104 24.5266 2.96616C24.9896 2.65094 25.3643 2.65072 25.8493 2.96354C26.9368 3.66513 28.0994 3.65462 29.1989 2.9318C29.5958 2.67064 29.8709 2.62423 30.1311 2.79564C31.1771 3.48694 32.1397 3.6382 33.11 3.2665C33.0675 3.70256 32.9126 4.09397 32.7616 4.47552C32.2749 5.70468 31.594 6.81738 30.9311 7.83638C30.8792 7.91585 30.8564 7.93029 30.7933 7.94584C29.571 8.24683 28.3711 8.39963 27.2267 8.39963C26.3102 8.39963 25.398 8.30221 24.5151 8.1098C24.1994 8.04128 24.0485 7.94343 23.9171 7.72233L23.7736 7.48154C23.1179 6.38241 22.4398 5.24585 22.0469 4.00837C22.033 3.96437 22.0178 3.92081 22.0028 3.87703C21.9716 3.78662 21.9421 3.70125 21.9277 3.62376C21.9152 3.5559 21.8971 3.48388 21.8785 3.41054C21.8646 3.35582 21.8451 3.27964 21.8318 3.219C21.8383 3.22382 21.8451 3.22776 21.8516 3.23126ZM46.853 40.123C42.5856 42.8561 37.99 45.7975 33.2999 48.7862C32.1657 49.5091 30.8781 49.8755 29.4669 49.8755L28.9044 49.8751C25.4691 49.8722 22.0488 49.8698 18.5857 49.8777C17.6848 49.8777 16.7685 49.6903 15.702 49.2873L14.9567 49.006C12.8695 48.2175 10.7111 47.4025 8.58144 46.6184C8.41653 46.5578 8.39852 46.5435 8.39983 46.3227C8.41067 44.5042 8.40937 42.6558 8.40829 40.8682L8.40764 39.0788L8.40807 39.0033C8.41002 38.7888 8.41241 38.5452 8.28829 38.2985C8.08997 37.9027 7.76146 37.6849 7.36329 37.6849C7.30731 37.6849 7.24981 37.6895 7.19014 37.6984C6.69932 37.7737 6.36646 38.1067 6.29941 38.5892C6.27815 38.7415 6.27967 38.8871 6.2814 39.0276L6.28206 39.1303L6.2814 48.2077C6.28119 48.8674 6.24972 48.8998 5.60723 48.9003L4.00914 48.9016C3.59166 48.9016 3.1744 48.9012 2.75692 48.8996C2.27782 48.8981 2.21685 48.8666 2.21663 48.3351C2.21533 46.2255 2.21554 44.1163 2.21576 42.0067V39.903V37.6192C2.21576 35.5864 2.21554 33.5532 2.2162 31.5202C2.21641 30.9412 2.26415 30.8946 2.85391 30.894L4.30771 30.8931C4.75709 30.8931 5.20625 30.8933 5.65584 30.8942C6.22217 30.8951 6.28054 30.9561 6.2814 31.5478C6.28206 32.0774 6.28184 32.6069 6.28162 33.1364C6.2814 33.7807 6.28119 34.4253 6.28249 35.07C6.28488 36.0102 6.82538 36.3449 7.33053 36.3449L7.36199 36.3447C7.99819 36.3292 8.39831 35.8476 8.40634 35.0884L8.40981 34.8137C8.41567 34.3945 8.42174 33.961 8.40048 33.5309C8.40004 33.523 8.39983 33.5158 8.39961 33.5088C8.4072 33.5088 8.41567 33.5086 8.42478 33.5086L8.45733 33.509C10.6465 33.5534 12.741 34.1793 14.8605 35.4216L14.9387 35.4676C16.2514 36.2374 17.6091 37.0332 19.1783 37.2959C20.2084 37.4684 21.2607 37.5844 22.2784 37.6969C22.6637 37.7394 23.0489 37.7821 23.4336 37.8276C23.9657 37.8904 24.4981 37.9493 25.0306 38.008C25.9624 38.1108 26.926 38.2172 27.8686 38.3451C29.2688 38.5349 30.2786 39.7292 30.2699 41.1852C30.268 41.494 30.266 41.8136 30.2356 41.8714C30.1677 41.9126 29.8498 41.9126 29.5426 41.9126L26.0301 41.9117C25.0536 41.9117 24.0774 41.9124 23.1008 41.9148C22.5904 41.9161 22.3081 42.1151 22.161 42.2821C21.9713 42.4971 21.8906 42.7834 21.928 43.11C21.9961 43.7072 22.4387 44.0517 23.1422 44.0555C23.6604 44.0583 24.1785 44.0592 24.6965 44.0592L29.0487 44.0559C29.6858 44.0559 30.3224 44.0572 30.9808 44.062C31.3447 44.062 31.6918 43.9863 32.0423 43.8304C36.3605 41.9097 40.6791 39.9899 45.0002 38.0754C45.2673 37.9572 45.5841 37.8267 45.9078 37.756C46.5336 37.6198 47.075 37.9108 47.3241 38.518C47.5697 39.1156 47.3714 39.7907 46.853 40.123Z" fill="#1D3238"/>
<path d="M31.9094 21.1623C31.9094 19.4822 30.7156 17.5204 27.351 17.5204C25.9226 17.5204 24.4172 17.8997 23.516 18.4868L23.3622 18.5871L24.1618 20.4673L24.3792 20.3191C24.9805 19.9097 25.9866 19.6348 26.8802 19.6348C28.3348 19.6553 29.1359 20.2889 29.1359 21.4184C29.1359 22.4076 28.4906 23.2817 27.3749 24.459C26.0925 25.8375 25.5309 27.2525 25.7054 28.6561L25.7744 29.4617H28.2278L28.1918 28.6228C28.1163 27.4749 28.5416 26.5007 29.6146 25.3651C30.9582 23.9352 31.9094 22.7969 31.9094 21.1623Z" fill="#1D3238"/>
<path d="M26.9611 30.8169C25.9315 30.8169 25.1844 31.5259 25.1844 32.5029C25.1844 33.4661 25.9209 34.1655 26.9351 34.1657C27.9812 34.1657 28.7118 33.4821 28.7118 32.5029C28.7118 31.5102 27.992 30.8169 26.9611 30.8169Z" fill="#1D3238"/>
</svg>
