<svg width="27" height="51" viewBox="0 0 27 51" fill="none" xmlns="http://www.w3.org/2000/svg">
<path d="M16.5448 51.0001H6.02858C5.35875 51.0001 5.16058 50.4565 5.16058 49.7859V28.3334H1.17492C0.505082 28.3334 0.306915 27.7898 0.306915 27.1192V18.2143C0.306915 17.5437 0.505082 17.0001 1.17492 17.0001H5.9825C5.97766 9.91048 7.23075 5.17648 9.80075 2.55148C11.9953 0.309061 14.6527 6.10352e-05 17.1968 6.10352e-05H24.6343C25.3041 6.10352e-05 26.1931 0.543644 26.1931 1.21431V10.929C26.1931 11.5996 25.3041 12.1431 24.6343 12.1431H18.1037V17.0001H24.6343C25.3041 17.0001 26.1931 17.5436 26.1931 18.2143V27.1192C26.1931 27.7898 25.3041 28.3334 24.6343 28.3334H18.1037V49.7859C18.1029 50.4565 17.2147 51.0001 16.5448 51.0001ZM7.58667 48.5716H15.6761V27.1192C15.6761 26.4486 15.8743 25.905 16.5441 25.905H23.7656V19.4286H16.5441C15.8743 19.4286 15.6761 18.885 15.6761 18.2143V10.929C15.6761 10.2584 15.8743 9.71473 16.5441 9.71473H23.7656V2.42856H17.1961C15.3193 2.42856 13.1797 2.56931 11.5335 4.25114C9.32675 6.50406 8.27908 11.1936 8.42067 18.1901C8.42717 18.5161 8.30258 18.8316 8.07367 19.0646C7.8455 19.2975 7.53408 19.4286 7.20733 19.4286H2.73308V25.905H6.02792C6.69775 25.905 7.58675 26.4486 7.58675 27.1192V48.5716H7.58667Z" fill="#1D3238"/>
</svg>
