<svg width="52" height="51" viewBox="0 0 52 51" fill="none" xmlns="http://www.w3.org/2000/svg">
<path d="M29.5448 51H19.0286C18.3587 51 18.1606 50.4564 18.1606 49.7858V28.3333H14.1749C13.5051 28.3333 13.3069 27.7898 13.3069 27.1192V18.2143C13.3069 17.5437 13.5051 17 14.1749 17H18.9825C18.9776 9.91042 20.2307 5.17642 22.8007 2.55142C24.9953 0.309 27.6527 0 30.1968 0H37.6343C38.3041 0 39.1931 0.543583 39.1931 1.21425V10.9289C39.1931 11.5995 38.3041 12.1431 37.6343 12.1431H31.1037V17H37.6343C38.3041 17 39.1931 17.5436 39.1931 18.2143V27.1192C39.1931 27.7898 38.3041 28.3333 37.6343 28.3333H31.1037V49.7858C31.1029 50.4564 30.2147 51 29.5448 51ZM20.5866 48.5715H28.6761V27.1192C28.6761 26.4485 28.8743 25.9049 29.5441 25.9049H36.7656V19.4285H29.5441C28.8743 19.4285 28.6761 18.8849 28.6761 18.2143V10.9289C28.6761 10.2583 28.8743 9.71467 29.5441 9.71467H36.7656V2.4285H30.1961C28.3193 2.4285 26.1796 2.56925 24.5335 4.25108C22.3267 6.504 21.2791 11.1935 21.4206 18.19C21.4271 18.516 21.3026 18.8315 21.0736 19.0645C20.8455 19.2974 20.5341 19.4285 20.2073 19.4285H15.7331V25.9049H19.0279C19.6977 25.9049 20.5867 26.4485 20.5867 27.1192V48.5715H20.5866Z" fill="#1D3238"/>
</svg>
