<svg width="25" height="25" viewBox="0 0 25 25" fill="none" xmlns="http://www.w3.org/2000/svg">
<path fill-rule="evenodd" clip-rule="evenodd" d="M11.6161 0.366113C12.1043 -0.122037 12.8958 -0.122037 13.3839 0.366113L24.6339 11.6161C25.122 12.1042 25.122 12.8958 24.6339 13.3839C24.1458 13.872 23.3543 13.872 22.8662 13.3839C22.731 13.2487 22.5 13.3445 22.5 13.5355V21.25C22.5 23.3211 20.8212 25 18.75 25H6.25001C4.17894 25 2.5 23.3211 2.5 21.25V13.5355C2.5 13.3445 2.26899 13.2487 2.13389 13.3839C1.64573 13.872 0.854276 13.872 0.366113 13.3839C-0.122038 12.8958 -0.122038 12.1042 0.366113 11.6161L2.86568 9.11656L2.86657 9.11567L11.6161 0.366113ZM5.18307 10.3348C5.06586 10.4519 5.00001 10.6109 5.00001 10.7766V21.25C5.00001 21.9404 5.55966 22.5 6.25001 22.5H18.75C19.4404 22.5 20 21.9404 20 21.25V10.7766C20 10.6109 19.9341 10.4519 19.817 10.3348L12.942 3.45971C12.6979 3.21562 12.3021 3.21562 12.058 3.45971L5.18307 10.3348Z" fill="url(#paint0_linear_22_466)"/>
<defs>
<linearGradient id="paint0_linear_22_466" x1="12.5" y1="0" x2="12.5" y2="25" gradientUnits="userSpaceOnUse">
<stop stop-color="#6AB5E1"/>
<stop offset="1" stop-color="#719AFF"/>
</linearGradient>
</defs>
</svg>
