<svg version="1.1" xmlns="http://www.w3.org/2000/svg" xmlns:xlink="http://www.w3.org/1999/xlink" x="0px" y="0px"
	 width="50.958px" height="51px" viewBox="0 0 50.958 51" enable-background="new 0 0 50.958 51" xml:space="preserve">
<path fill="#1D3238" d="M14.075,51.03C6.322,51.02,0.009,44.706,0,36.956V14.075C0.009,6.323,6.322,0.009,14.075,0h22.88
	C44.706,0.009,51.02,6.323,51.03,14.075v22.88c-0.01,7.752-6.323,14.066-14.074,14.075H14.075z M14.076,3.19
	C8.08,3.197,3.197,8.08,3.19,14.076v22.879c0.007,5.995,4.89,10.878,10.885,10.884h22.879c5.995-0.006,10.878-4.888,10.884-10.885
	V14.075C47.833,8.08,42.95,3.197,36.954,3.19H14.076L14.076,3.19z M25.515,37.51c-6.614,0-11.995-5.381-11.995-11.996
	c0-6.614,5.381-11.995,11.995-11.995c6.607,0.008,11.987,5.388,11.995,11.994C37.51,32.129,32.129,37.51,25.515,37.51z
	 M25.515,16.71c-4.855,0-8.804,3.95-8.804,8.804c0,4.855,3.949,8.804,8.804,8.804c4.849-0.005,8.799-3.955,8.804-8.805
	C34.319,20.66,30.37,16.71,25.515,16.71z M39.034,14.63c-1.453,0-2.636-1.182-2.636-2.636s1.182-2.635,2.636-2.635
	c1.452,0.002,2.634,1.184,2.636,2.635C41.67,13.448,40.488,14.63,39.034,14.63z"/>
</svg>
