<svg width="54" height="51" viewBox="0 0 54 51" fill="none" xmlns="http://www.w3.org/2000/svg">
<path d="M9.45247 44.1112C9.14894 44.1112 8.85785 43.9907 8.64321 43.7761L7.58568 42.7185C7.13876 42.2716 7.13876 41.547 7.58568 41.1C8.03261 40.6531 8.75716 40.6531 9.20419 41.1L9.45236 41.3482L11.0859 39.7145C11.5327 39.2676 12.2574 39.2675 12.7044 39.7145C13.1513 40.1615 13.1513 40.886 12.7044 41.333L10.2616 43.776C10.0471 43.9906 9.75599 44.1112 9.45247 44.1112Z" fill="#1D3238"/>
<path d="M20.2713 44.1113C19.9784 44.1113 19.6856 43.9996 19.4621 43.7761L18.4045 42.7186C17.9576 42.2717 17.9576 41.547 18.4045 41.1001C18.8516 40.6532 19.576 40.6532 20.023 41.1001L20.2712 41.3484L21.9049 39.7146C22.3519 39.2677 23.0763 39.2677 23.5234 39.7146C23.9703 40.1615 23.9703 40.8862 23.5234 41.3331L21.0805 43.776C20.8571 43.9997 20.5643 44.1113 20.2713 44.1113Z" fill="#1D3238"/>
<path d="M31.0905 44.1113C30.7869 44.1113 30.4958 43.9907 30.2813 43.776L29.2239 42.7185C28.7769 42.2716 28.7769 41.5469 29.224 41.1C29.6709 40.653 30.3956 40.6531 30.8424 41.1L31.0904 41.3482L32.7241 39.7145C33.1711 39.2676 33.8956 39.2676 34.3426 39.7145C34.7895 40.1614 34.7895 40.8861 34.3426 41.333L31.8997 43.7759C31.6851 43.9907 31.3941 44.1113 31.0905 44.1113Z" fill="#1D3238"/>
<rect x="29.7498" y="29.6667" width="4" height="5" fill="#F7F1C3"/>
<rect x="29.7498" y="19.6667" width="4" height="5" fill="#F7F1C3"/>
<rect x="18.7498" y="29.6667" width="4" height="5" fill="#F7F1C3"/>
<rect x="18.7498" y="19.6667" width="4" height="5" fill="#F7F1C3"/>
<rect x="7.74976" y="29.6667" width="4" height="5" fill="#F7F1C3"/>
<rect x="7.74976" y="19.6667" width="4" height="5" fill="#F7F1C3"/>
<rect x="40.7498" y="29.6667" width="4" height="5" fill="#F7F1C3"/>
<rect x="40.7498" y="39.6667" width="4" height="5" fill="#F7F1C3"/>
<rect x="40.7498" y="19.6667" width="4" height="5" fill="#F7F1C3"/>
<path d="M44.0391 28.0551H41.1656C39.8175 28.0551 38.7207 29.1518 38.7207 30.4999V33.3735C38.7207 34.7216 39.8175 35.8183 41.1656 35.8183H44.0391C45.3872 35.8183 46.4839 34.7215 46.4839 33.3735V30.4999C46.4839 29.1518 45.3872 28.0551 44.0391 28.0551ZM44.195 33.3735C44.195 33.4594 44.1251 33.5294 44.0391 33.5294H41.1656C41.0796 33.5294 41.0097 33.4594 41.0097 33.3735V30.4999C41.0097 30.414 41.0796 30.344 41.1656 30.344H44.0391C44.1251 30.344 44.195 30.414 44.195 30.4999V33.3735Z" fill="#1D3238"/>
<path d="M44.0391 37.8638H41.1656C39.8175 37.8638 38.7207 38.9606 38.7207 40.3086V43.1822C38.7207 44.5303 39.8175 45.627 41.1656 45.627H44.0391C45.3872 45.627 46.4839 44.5303 46.4839 43.1822V40.3086C46.4839 38.9606 45.3872 37.8638 44.0391 37.8638ZM44.195 43.1822C44.195 43.2681 44.1251 43.3381 44.0391 43.3381H41.1656C41.0796 43.3381 41.0097 43.2681 41.0097 43.1822V40.3086C41.0097 40.2227 41.0796 40.1527 41.1656 40.1527H44.0391C44.1251 40.1527 44.195 40.2227 44.195 40.3086V43.1822Z" fill="#1D3238"/>
<path d="M11.5819 17.9522H8.70834C7.36024 17.9522 6.26355 19.0489 6.26355 20.397V23.2706C6.26355 24.6187 7.36024 25.7154 8.70834 25.7154H11.5819C12.93 25.7154 14.0267 24.6186 14.0267 23.2706V20.397C14.0266 19.049 12.9299 17.9522 11.5819 17.9522ZM11.7377 23.2706C11.7377 23.3565 11.6678 23.4265 11.5819 23.4265H8.70834C8.62238 23.4265 8.5524 23.3565 8.5524 23.2706V20.397C8.5524 20.3111 8.62238 20.2411 8.70834 20.2411H11.5819C11.6678 20.2411 11.7377 20.3111 11.7377 20.397V23.2706Z" fill="#1D3238"/>
<path d="M22.401 17.9522H19.5274C18.1793 17.9522 17.0825 19.0489 17.0825 20.397V23.2706C17.0825 24.6187 18.1793 25.7154 19.5274 25.7154H22.401C23.7491 25.7154 24.8457 24.6186 24.8457 23.2706V20.397C24.8456 19.049 23.749 17.9522 22.401 17.9522ZM22.5568 23.2706C22.5568 23.3565 22.4869 23.4265 22.401 23.4265H19.5274C19.4415 23.4265 19.3715 23.3565 19.3715 23.2706V20.397C19.3715 20.3111 19.4415 20.2411 19.5274 20.2411H22.401C22.4869 20.2411 22.5568 20.3111 22.5568 20.397V23.2706Z" fill="#1D3238"/>
<path d="M33.2202 17.9522H30.3466C28.9985 17.9522 27.9019 19.0489 27.9019 20.397V23.2706C27.9019 24.6187 28.9985 25.7154 30.3466 25.7154H33.2202C34.5683 25.7154 35.6651 24.6186 35.6651 23.2706V20.397C35.6651 19.049 34.5683 17.9522 33.2202 17.9522ZM33.3761 23.2706C33.3761 23.3565 33.3061 23.4265 33.2202 23.4265H30.3466C30.2607 23.4265 30.1908 23.3565 30.1908 23.2706V20.397C30.1908 20.3111 30.2607 20.2411 30.3466 20.2411H33.2202C33.3061 20.2411 33.3761 20.3111 33.3761 20.397V23.2706Z" fill="#1D3238"/>
<path d="M44.0391 17.9522H41.1656C39.8175 17.9522 38.7207 19.0489 38.7207 20.397V23.2706C38.7207 24.6187 39.8175 25.7154 41.1656 25.7154H44.0391C45.3872 25.7154 46.4839 24.6186 46.4839 23.2706V20.397C46.4839 19.049 45.3872 17.9522 44.0391 17.9522ZM44.195 23.2706C44.195 23.3565 44.1251 23.4265 44.0391 23.4265H41.1656C41.0796 23.4265 41.0097 23.3565 41.0097 23.2706V20.397C41.0097 20.3111 41.0796 20.2411 41.1656 20.2411H44.0391C44.1251 20.2411 44.195 20.3111 44.195 20.397V23.2706Z" fill="#1D3238"/>
<path d="M11.5819 28.0551H8.70834C7.36024 28.0551 6.26355 29.1518 6.26355 30.4999V33.3735C6.26355 34.7216 7.36024 35.8183 8.70834 35.8183H11.5819C12.93 35.8183 14.0267 34.7215 14.0267 33.3735V30.4999C14.0266 29.1518 12.9299 28.0551 11.5819 28.0551ZM11.7377 33.3735C11.7377 33.4594 11.6678 33.5294 11.5819 33.5294H8.70834C8.62238 33.5294 8.5524 33.4594 8.5524 33.3735V30.4999C8.5524 30.414 8.62238 30.344 8.70834 30.344H11.5819C11.6678 30.344 11.7377 30.414 11.7377 30.4999V33.3735Z" fill="#1D3238"/>
<path d="M22.401 28.0551H19.5274C18.1793 28.0551 17.0825 29.1518 17.0825 30.4999V33.3735C17.0825 34.7216 18.1793 35.8183 19.5274 35.8183H22.401C23.7491 35.8183 24.8457 34.7215 24.8457 33.3735V30.4999C24.8456 29.1518 23.749 28.0551 22.401 28.0551ZM22.5568 33.3735C22.5568 33.4594 22.4869 33.5294 22.401 33.5294H19.5274C19.4415 33.5294 19.3715 33.4594 19.3715 33.3735V30.4999C19.3715 30.414 19.4415 30.344 19.5274 30.344H22.401C22.4869 30.344 22.5568 30.414 22.5568 30.4999V33.3735Z" fill="#1D3238"/>
<path d="M33.2202 28.0551H30.3466C28.9985 28.0551 27.9019 29.1518 27.9019 30.4999V33.3735C27.9019 34.7216 28.9985 35.8183 30.3466 35.8183H33.2202C34.5683 35.8183 35.6651 34.7215 35.6651 33.3735V30.4999C35.6651 29.1518 34.5683 28.0551 33.2202 28.0551ZM33.3761 33.3735C33.3761 33.4594 33.3061 33.5294 33.2202 33.5294H30.3466C30.2607 33.5294 30.1908 33.4594 30.1908 33.3735V30.4999C30.1908 30.414 30.2607 30.344 30.3466 30.344H33.2202C33.3061 30.344 33.3761 30.414 33.3761 30.4999V33.3735Z" fill="#1D3238"/>
<path d="M48.1822 4.07425H44.2973V1.8111C44.2973 1.17898 43.7849 0.666672 43.1529 0.666672C42.5208 0.666672 42.0084 1.17909 42.0084 1.8111V4.07425H35.9887V1.8111C35.9887 1.17898 35.4763 0.666672 34.8443 0.666672C34.2123 0.666672 33.6999 1.17909 33.6999 1.8111V4.07425H27.6802V1.8111C27.6802 1.17898 27.1678 0.666672 26.5358 0.666672C25.9038 0.666672 25.3913 1.17909 25.3913 1.8111V4.07425H19.3717V1.8111C19.3717 1.17898 18.8592 0.666672 18.2272 0.666672C17.5951 0.666672 17.0828 1.17909 17.0828 1.8111V4.07425H11.0631V1.8111C11.0631 1.17898 10.5507 0.666672 9.91868 0.666672C9.28668 0.666672 8.77426 1.17909 8.77426 1.8111V4.07425H5.31759C2.39172 4.07425 0.0114746 6.45449 0.0114746 9.38026V45.3606C0.0114746 48.2863 2.39172 50.6667 5.31759 50.6667H48.1823C51.1081 50.6667 53.4884 48.2864 53.4884 45.3606V9.38026C53.4883 6.45449 51.108 4.07425 48.1822 4.07425ZM5.31759 6.3631H8.77405V8.57727C8.77405 9.20939 9.28647 9.7217 9.91848 9.7217C10.5505 9.7217 11.0629 9.20928 11.0629 8.57727V6.3631H17.0826V8.57727C17.0826 9.20939 17.595 9.7217 18.227 9.7217C18.8591 9.7217 19.3714 9.20928 19.3714 8.57727V6.3631H25.3911V8.57727C25.3911 9.20939 25.9036 9.7217 26.5356 9.7217C27.1676 9.7217 27.68 9.20928 27.68 8.57727V6.3631H33.6997V8.57727C33.6997 9.20939 34.2121 9.7217 34.8441 9.7217C35.4761 9.7217 35.9885 9.20928 35.9885 8.57727V6.3631H42.0082V8.57727C42.0082 9.20939 42.5206 9.7217 43.1527 9.7217C43.7848 9.7217 44.2971 9.20928 44.2971 8.57727V6.3631H48.182C49.8456 6.3631 51.1991 7.71663 51.1991 9.38026V12.9124H2.30032V9.38026C2.30032 7.71663 3.65385 6.3631 5.31759 6.3631ZM48.1822 48.3778H5.31759C3.65385 48.3778 2.30043 47.0243 2.30043 45.3607V15.2013H51.1995V45.3606C51.1995 47.0243 49.8458 48.3778 48.1822 48.3778Z" fill="#1D3238"/>
</svg>
