<svg width="45" height="45" viewBox="0 0 45 45" fill="none" xmlns="http://www.w3.org/2000/svg">
<path d="M35.7291 32.7292L36.5416 39.3125C36.7499 41.0417 34.8957 42.25 33.4166 41.3542L24.6874 36.1667C23.7291 36.1667 22.7916 36.1042 21.8749 35.9792C23.4166 34.1667 24.3332 31.875 24.3332 29.3958C24.3332 23.4792 19.2082 18.6875 12.8748 18.6875C10.4582 18.6875 8.229 19.375 6.37484 20.5833C6.31234 20.0625 6.2915 19.5417 6.2915 19C6.2915 9.52082 14.5207 1.83334 24.6874 1.83334C34.8541 1.83334 43.0832 9.52082 43.0832 19C43.0832 24.625 40.1874 29.6042 35.7291 32.7292Z" stroke="#1D3238" stroke-width="2.5" stroke-linecap="round" stroke-linejoin="round"/>
<path d="M24.3333 29.3958C24.3333 31.875 23.4166 34.1669 21.875 35.9794C19.8125 38.4794 16.5416 40.0833 12.875 40.0833L7.43746 43.3125C6.52079 43.875 5.35413 43.1042 5.47913 42.0417L5.99996 37.9377C3.20829 36.0002 1.41663 32.8958 1.41663 29.3958C1.41663 25.7292 3.37496 22.5002 6.37496 20.5835C8.22913 19.3752 10.4583 18.6877 12.875 18.6877C19.2083 18.6877 24.3333 23.4792 24.3333 29.3958Z" fill="#F7F1C3" stroke="#1D3238" stroke-width="2.5" stroke-linecap="round" stroke-linejoin="round"/>
</svg>
