<?xml version="1.0" encoding="utf-8"?>
<!-- Generator: Adobe Illustrator 17.0.0, SVG Export Plug-In . SVG Version: 6.00 Build 0)  -->
<!DOCTYPE svg PUBLIC "-//W3C//DTD SVG 1.1//EN" "http://www.w3.org/Graphics/SVG/1.1/DTD/svg11.dtd">
<svg version="1.1" id="Warstwa_1" xmlns="http://www.w3.org/2000/svg" xmlns:xlink="http://www.w3.org/1999/xlink" x="0px" y="0px"
	 width="26.125px" height="34px" viewBox="0 0 26.125 34" enable-background="new 0 0 26.125 34" xml:space="preserve">
<polygon fill="#F7F1C3" points="24.271,10.438 1.542,10.438 1.542,4.458 8.333,4.458 8.319,6.233 17.775,6.271 17.776,4.458 
	24.271,4.458 "/>
<g>
	<path d="M23.234,33.846c-6.8,0-13.6,0-20.4,0c-0.029-0.015-0.057-0.037-0.088-0.043c-1.482-0.267-2.478-1.519-2.477-3.101
		c0.006-8.221,0.002-16.441,0.007-24.662c0-0.293,0.028-0.595,0.104-0.876C0.762,3.76,1.849,2.929,3.317,2.915
		c1.129-0.011,2.258-0.002,3.387-0.003c0.115,0,0.23,0,0.369,0c0-0.194-0.019-0.339,0.004-0.477C7.14,2.04,7.164,1.627,7.305,1.259
		C7.541,0.64,8.093,0.354,8.691,0.154c2.895,0,5.791,0,8.686,0c0.049,0.023,0.096,0.051,0.146,0.068
		c0.87,0.283,1.369,0.867,1.446,1.787c0.025,0.291,0.03,0.583,0.046,0.903c0.144,0,0.262,0,0.381,0
		c1.184,0.002,2.368-0.019,3.551,0.02c0.392,0.013,0.81,0.119,1.163,0.291c1.173,0.573,1.684,1.574,1.684,2.851
		c0.003,5.382,0.001,10.764,0.001,16.145c0,2.839,0.003,5.678-0.002,8.517c-0.002,1.047-0.369,1.944-1.252,2.54
		C24.154,33.537,23.673,33.66,23.234,33.846z M2.262,11.611c0,0.128,0,0.225,0,0.322c0,6.24-0.001,12.481,0.001,18.721
		c0,0.852,0.371,1.218,1.226,1.218c6.361,0,12.722,0,19.083,0c0.871,0,1.233-0.363,1.233-1.244c0.001-6.218,0-12.437,0-18.655
		c0-0.117,0-0.234,0-0.362C16.611,11.611,9.463,11.611,2.262,11.611z M19.014,4.893C19,5.049,18.982,5.169,18.979,5.288
		c-0.033,1.098-0.978,1.956-2.131,1.906c-0.317-0.014-0.636-0.002-0.954-0.002c-2.247,0-4.494,0.004-6.741-0.002
		C8.015,7.188,7.224,6.472,7.1,5.351C7.083,5.203,7.065,5.055,7.045,4.89c-1.204,0-2.386,0-3.569,0
		c-0.853,0-1.211,0.361-1.213,1.223c-0.002,1.019-0.001,2.039,0,3.058c0,0.437,0,0.437,0.447,0.437c6.884,0,13.768,0,20.652,0
		c0.044,0,0.088-0.005,0.131,0.001c0.242,0.036,0.325-0.059,0.319-0.309c-0.016-0.69-0.002-1.381-0.006-2.072
		c-0.003-0.493,0.01-0.988-0.03-1.478c-0.04-0.485-0.412-0.846-0.888-0.853C21.605,4.882,20.323,4.893,19.014,4.893z M9.09,5.185
		c2.651,0,5.262,0,7.883,0c0-1.024,0-2.026,0-3.032c-2.64,0-5.261,0-7.883,0C9.09,3.172,9.09,4.167,9.09,5.185z"/>
	<path d="M11.035,27.453c-1.458,0-2.915,0.004-4.373-0.002c-0.717-0.003-1.167-0.485-1.086-1.138
		c0.052-0.421,0.354-0.748,0.773-0.826c0.139-0.026,0.283-0.038,0.424-0.038c2.839-0.002,5.677,0,8.516-0.003
		c0.48-0.001,0.897,0.113,1.122,0.582c0.331,0.692-0.175,1.417-1.003,1.423c-1.271,0.009-2.543,0.003-3.814,0.003
		C11.408,27.453,11.222,27.453,11.035,27.453z"/>
	<path d="M11.004,22.413c-1.447,0-2.893,0.003-4.34-0.002c-0.555-0.002-0.944-0.267-1.066-0.701
		c-0.173-0.615,0.239-1.217,0.878-1.28c0.054-0.005,0.109-0.005,0.164-0.005c2.926,0,5.853,0.001,8.779-0.001
		c0.417,0,0.749,0.152,0.959,0.518c0.19,0.332,0.178,0.674-0.019,0.998c-0.222,0.366-0.57,0.476-0.982,0.474
		C13.919,22.409,12.462,22.413,11.004,22.413z"/>
	<path d="M11.038,15.416c1.501,0,3.003-0.006,4.504,0.003c0.512,0.003,0.904,0.375,0.96,0.861c0.057,0.496-0.261,0.96-0.759,1.081
		c-0.136,0.033-0.282,0.03-0.424,0.03c-2.071,0.002-4.143,0.001-6.214,0.001c-0.855,0-1.71,0.006-2.564-0.003
		c-0.498-0.006-0.892-0.356-0.961-0.822c-0.076-0.509,0.186-0.961,0.665-1.104c0.164-0.049,0.345-0.049,0.519-0.05
		c1.425-0.004,2.849-0.002,4.274-0.002C11.038,15.414,11.038,15.415,11.038,15.416z"/>
	<path d="M19.374,27.475c-0.288-0.023-0.565-0.018-0.83-0.074c-0.466-0.098-0.785-0.526-0.768-0.976
		c0.017-0.479,0.357-0.898,0.847-0.938c0.509-0.042,1.028-0.04,1.537,0.005c0.468,0.042,0.798,0.466,0.813,0.932
		c0.014,0.441-0.29,0.871-0.734,0.968C19.954,27.455,19.654,27.45,19.374,27.475z"/>
	<path d="M19.362,22.406c-0.208,0-0.417,0.01-0.624-0.002c-0.549-0.032-0.955-0.447-0.963-0.971
		c-0.008-0.522,0.426-0.981,0.974-1.003c0.415-0.017,0.833-0.016,1.248,0c0.549,0.021,0.979,0.472,0.976,0.998
		c-0.003,0.525-0.406,0.943-0.955,0.976C19.8,22.417,19.581,22.406,19.362,22.406z"/>
	<path d="M19.387,15.417c0.208,0,0.416-0.008,0.624,0.001c0.544,0.024,0.953,0.44,0.962,0.969c0.009,0.523-0.428,0.984-0.969,1.002
		c-0.416,0.013-0.832,0.012-1.248,0.001c-0.544-0.016-0.983-0.468-0.981-0.993c0.003-0.535,0.426-0.959,0.988-0.98
		c0.208-0.008,0.416-0.001,0.624-0.001C19.387,15.416,19.387,15.417,19.387,15.417z"/>
</g>
</svg>
