<?xml version="1.0" encoding="utf-8"?>
<!-- Generator: Adobe Illustrator 17.0.0, SVG Export Plug-In . SVG Version: 6.00 Build 0)  -->
<!DOCTYPE svg PUBLIC "-//W3C//DTD SVG 1.1//EN" "http://www.w3.org/Graphics/SVG/1.1/DTD/svg11.dtd">
<svg version="1.1" id="Warstwa_1" xmlns="http://www.w3.org/2000/svg" xmlns:xlink="http://www.w3.org/1999/xlink" x="0px" y="0px"
	 width="1167.25px" height="232px" viewBox="0 0 1167.25 232" enable-background="new 0 0 1167.25 232" xml:space="preserve">
<g>
	<path fill="#29628F" d="M227.939,187.169c0,22.299-18.107,40.376-40.442,40.376l0,0c-22.336,0-40.442-18.077-40.442-40.376V41.376
		C147.055,19.077,165.161,1,187.497,1l0,0c22.336,0,40.442,18.077,40.442,40.376V187.169z"/>
	<linearGradient id="SVGID_1_" gradientUnits="userSpaceOnUse" x1="114.5295" y1="227.5452" x2="114.5295" y2="1">
		<stop  offset="0" style="stop-color:#62AABD"/>
		<stop  offset="0.5" style="stop-color:#6976AD"/>
		<stop  offset="1" style="stop-color:#57488A"/>
	</linearGradient>
	<path fill="url(#SVGID_1_)" d="M215.957,12.845c15.794,15.794,15.794,41.4,0,57.194L70.296,215.7
		c-15.794,15.794-41.4,15.794-57.194,0l0,0c-15.794-15.794-15.794-41.4,0-57.194L158.763,12.845
		C174.557-2.948,200.163-2.948,215.957,12.845L215.957,12.845z"/>
	<linearGradient id="SVGID_2_" gradientUnits="userSpaceOnUse" x1="331.1769" y1="227.5547" x2="331.1769" y2="3.1203">
		<stop  offset="0" style="stop-color:#5391A8"/>
		<stop  offset="1" style="stop-color:#A1C6B6"/>
	</linearGradient>
	<path fill="url(#SVGID_2_)" d="M371.619,187.555c0,22.091-18.107,40-40.442,40l0,0c-22.336,0-40.442-17.909-40.442-40V43.12
		c0-22.091,18.107-40,40.442-40l0,0c22.336,0,40.442,17.909,40.442,40V187.555z"/>
	<linearGradient id="SVGID_3_" gradientUnits="userSpaceOnUse" x1="302.6384" y1="215.6511" x2="410.5458" y2="107.7436">
		<stop  offset="0" style="stop-color:#5391A8"/>
		<stop  offset="1" style="stop-color:#B5D4C0;stop-opacity:0.8"/>
	</linearGradient>
	<path fill="url(#SVGID_3_)" d="M410.546,107.744c15.871,15.871,15.871,41.604,0,57.476l-50.432,50.432
		c-15.871,15.871-41.604,15.871-57.475,0l0,0c-15.871-15.871-15.871-41.604,0-57.476l50.432-50.432
		C368.942,91.872,394.674,91.872,410.546,107.744L410.546,107.744z"/>
	<linearGradient id="SVGID_4_" gradientUnits="userSpaceOnUse" x1="158.8329" y1="215.6511" x2="359.7154" y2="14.7686">
		<stop  offset="0" style="stop-color:#5391A8;stop-opacity:0.9"/>
		<stop  offset="1" style="stop-color:#B5D4C0"/>
	</linearGradient>
	<path fill="url(#SVGID_4_)" d="M359.715,14.769c15.871,15.871,15.871,41.604,0,57.476L216.308,215.651
		c-15.871,15.871-41.604,15.871-57.476,0l0,0c-15.871-15.871-15.871-41.604,0-57.476L302.24,14.769
		C318.111-1.103,343.844-1.103,359.715,14.769L359.715,14.769z"/>
</g>
<g>
	<path d="M592.459,181.495h-18.335v-39.491c0-4.418-0.754-7.733-2.257-9.943c-1.505-2.208-3.949-3.315-7.334-3.315
		c-2.257,0-4.231,0.494-5.924,1.482c-1.693,0.987-3.01,2.492-3.949,4.513c-0.941,2.022-1.41,4.442-1.41,7.263v39.491h-18.194
		v-39.491c0-4.418-0.754-7.733-2.257-9.943c-1.505-2.208-3.949-3.315-7.334-3.315c-2.257,0-4.231,0.494-5.924,1.482
		c-1.693,0.987-3.01,2.492-3.949,4.513c-0.941,2.022-1.41,4.442-1.41,7.263v39.491h-17.63v-64.877h17.63v9.591
		c1.88-3.573,4.372-6.299,7.475-8.18c3.103-1.881,6.816-2.821,11.142-2.821c4.795,0,8.745,0.94,11.848,2.821
		c3.103,1.882,5.359,4.654,6.769,8.321c2.349-3.667,5.24-6.439,8.674-8.321c3.431-1.881,7.356-2.821,11.777-2.821
		c4.795,0,8.696,0.965,11.707,2.891c3.008,1.928,5.24,4.749,6.699,8.463c1.456,3.715,2.186,8.204,2.186,13.469V181.495z"/>
	<path d="M622.641,178.674c-5.267-2.821-9.333-6.745-12.2-11.776c-2.869-5.03-4.301-10.977-4.301-17.842
		c0-6.957,1.432-12.951,4.301-17.982c2.867-5.03,6.933-8.933,12.2-11.706c5.264-2.773,11.47-4.161,18.617-4.161
		c7.144,0,13.233,1.294,18.264,3.879c5.029,2.586,8.861,6.346,11.494,11.282c2.631,4.937,3.949,10.885,3.949,17.842
		c0,0.846-0.024,1.742-0.07,2.679c-0.049,0.942-0.119,1.693-0.212,2.257h-58.107v-11.282h42.17l-4.936,6.487
		c0.375-0.564,0.727-1.339,1.057-2.327c0.328-0.987,0.494-1.809,0.494-2.467c0-3.196-0.589-5.924-1.763-8.18
		c-1.177-2.257-2.845-4.042-5.007-5.36c-2.164-1.315-4.703-1.975-7.616-1.975c-3.574,0-6.558,0.776-8.956,2.327
		c-2.398,1.552-4.231,3.856-5.501,6.912c-1.269,3.055-1.953,6.84-2.045,11.352c0,4.327,0.634,7.994,1.904,11.001
		c1.269,3.01,3.173,5.313,5.712,6.91c2.539,1.6,5.593,2.398,9.168,2.398c4.041,0,7.497-0.776,10.366-2.327
		c2.867-1.552,5.24-3.879,7.122-6.982l15.937,4.936c-3.385,6.113-7.876,10.698-13.469,13.752
		c-5.595,3.057-12.294,4.584-20.098,4.584C634.064,182.905,627.905,181.495,622.641,178.674z"/>
	<path d="M688.786,130.651c2.914-5.029,6.77-8.861,11.565-11.494c4.795-2.631,9.872-3.949,15.231-3.949
		c5.452,0,10.272,1.364,14.457,4.09c4.182,2.728,7.475,6.607,9.873,11.636c2.397,5.031,3.596,11.072,3.596,18.124
		c0,6.959-1.198,12.976-3.596,18.052c-2.398,5.078-5.691,8.98-9.873,11.707c-4.185,2.725-9.004,4.09-14.457,4.09
		c-5.36,0-10.436-1.318-15.231-3.949c-4.795-2.631-8.652-6.488-11.565-11.565c-2.915-5.076-4.372-11.188-4.372-18.334
		C684.414,141.818,685.871,135.682,688.786,130.651z M705.711,159.07c1.597,2.821,3.758,4.985,6.487,6.488
		c2.727,1.504,5.642,2.257,8.745,2.257c2.726,0,5.382-0.727,7.969-2.186c2.585-1.457,4.7-3.596,6.346-6.416
		c1.645-2.821,2.469-6.206,2.469-10.155c0-3.949-0.824-7.334-2.469-10.155c-1.646-2.821-3.761-4.958-6.346-6.416
		c-2.586-1.457-5.243-2.186-7.969-2.186c-3.103,0-6.018,0.754-8.745,2.257c-2.728,1.504-4.889,3.667-6.487,6.488
		c-1.601,2.821-2.398,6.16-2.398,10.013C703.312,152.913,704.11,156.249,705.711,159.07z M756.061,71.486v110.009h-18.336V71.486
		H756.061z"/>
	<path d="M776.086,84.109c2.161-1.927,4.746-2.892,7.757-2.892c3.009,0,5.572,0.965,7.686,2.892
		c2.116,1.928,3.173,4.395,3.173,7.404c0,2.915-1.057,5.358-3.173,7.333c-2.115,1.975-4.678,2.963-7.686,2.963
		c-3.01,0-5.595-0.988-7.757-2.963c-2.164-1.975-3.243-4.418-3.243-7.333C772.843,88.505,773.922,86.038,776.086,84.109z
		 M792.588,116.618v64.877h-17.771v-64.877H792.588z"/>
	<path d="M826.294,166.192c0.94,1.364,2.233,2.398,3.88,3.103c1.642,0.706,3.454,1.058,5.43,1.058c2.821,0,5.358-0.587,7.615-1.763
		c2.257-1.175,4.09-2.867,5.501-5.078c1.409-2.209,2.116-4.866,2.116-7.969l2.257,8.461c0,4.139-1.155,7.616-3.457,10.437
		c-2.304,2.821-5.268,4.937-8.886,6.348c-3.621,1.409-7.403,2.115-11.352,2.115c-4.044,0-7.806-0.8-11.283-2.397
		c-3.479-1.598-6.276-3.925-8.391-6.982c-2.116-3.054-3.173-6.791-3.173-11.212c0-6.299,2.208-11.283,6.628-14.951
		c4.418-3.667,10.67-5.5,18.757-5.5c4.137,0,7.779,0.422,10.931,1.269c3.149,0.846,5.806,1.882,7.97,3.103
		c2.161,1.224,3.711,2.397,4.654,3.525v8.463c-2.54-1.879-5.385-3.29-8.534-4.231c-3.152-0.939-6.465-1.41-9.943-1.41
		c-2.821,0-5.125,0.354-6.91,1.058c-1.788,0.706-3.102,1.693-3.949,2.961c-0.845,1.27-1.269,2.846-1.269,4.725
		C824.884,163.208,825.353,164.831,826.294,166.192z M811.064,122.542c3.384-1.785,7.521-3.502,12.409-5.148
		c4.889-1.645,10.343-2.469,16.361-2.469c5.546,0,10.484,0.8,14.809,2.397c4.325,1.6,7.71,3.928,10.155,6.982
		c2.445,3.057,3.668,6.794,3.668,11.212v45.979h-17.63v-42.17c0-1.785-0.283-3.315-0.848-4.584c-0.564-1.27-1.436-2.328-2.609-3.174
		c-1.176-0.846-2.564-1.455-4.161-1.833c-1.6-0.375-3.385-0.564-5.358-0.564c-3.012,0-5.877,0.331-8.603,0.987
		c-2.728,0.66-5.078,1.459-7.053,2.398c-1.973,0.94-3.433,1.74-4.372,2.397L811.064,122.542z"/>
	<path d="M884.965,212.523v-95.905H903.3v95.905H884.965z M952.24,167.814c-2.916,5.172-6.747,9.074-11.495,11.706
		c-4.748,2.631-9.85,3.949-15.301,3.949c-5.549,0-10.367-1.41-14.457-4.231c-4.091-2.821-7.242-6.816-9.449-11.988
		c-2.21-5.17-3.315-11.234-3.315-18.194c0-7.052,1.104-13.139,3.315-18.264c2.208-5.124,5.358-9.097,9.449-11.918
		c4.09-2.821,8.908-4.231,14.457-4.231c5.451,0,10.554,1.318,15.301,3.949c4.748,2.633,8.579,6.512,11.495,11.636
		c2.914,5.125,4.372,11.401,4.372,18.828C956.612,156.391,955.154,162.644,952.24,167.814z M935.315,139.183
		c-1.6-2.725-3.737-4.795-6.416-6.206c-2.68-1.41-5.619-2.115-8.815-2.115c-2.728,0-5.383,0.683-7.969,2.045
		c-2.588,1.364-4.703,3.409-6.348,6.136c-1.646,2.728-2.467,6.064-2.467,10.013c0,3.949,0.821,7.288,2.467,10.013
		c1.645,2.728,3.76,4.773,6.348,6.136c2.585,1.364,5.24,2.045,7.969,2.045c3.196,0,6.134-0.706,8.815-2.116
		c2.679-1.409,4.817-3.476,6.416-6.205c1.599-2.727,2.398-6.016,2.398-9.873C937.713,145.203,936.913,141.912,935.315,139.183z"/>
	<path d="M984.677,166.192c0.939,1.364,2.233,2.398,3.879,3.103c1.643,0.706,3.455,1.058,5.43,1.058c2.821,0,5.36-0.587,7.616-1.763
		c2.257-1.175,4.09-2.867,5.5-5.078c1.41-2.209,2.116-4.866,2.116-7.969l2.257,8.461c0,4.139-1.154,7.616-3.456,10.437
		c-2.304,2.821-5.267,4.937-8.885,6.348c-3.621,1.409-7.404,2.115-11.354,2.115c-4.043,0-7.806-0.8-11.282-2.397
		c-3.48-1.598-6.277-3.925-8.392-6.982c-2.115-3.054-3.173-6.791-3.173-11.212c0-6.299,2.208-11.283,6.628-14.951
		c4.419-3.667,10.67-5.5,18.758-5.5c4.137,0,7.779,0.422,10.931,1.269c3.148,0.846,5.805,1.882,7.969,3.103
		c2.161,1.224,3.712,2.397,4.654,3.525v8.463c-2.539-1.879-5.383-3.29-8.533-4.231c-3.152-0.939-6.465-1.41-9.943-1.41
		c-2.821,0-5.125,0.354-6.91,1.058c-1.788,0.706-3.103,1.693-3.949,2.961c-0.846,1.27-1.27,2.846-1.27,4.725
		C983.267,163.208,983.737,164.831,984.677,166.192z M969.446,122.542c3.385-1.785,7.521-3.502,12.41-5.148
		c4.888-1.645,10.343-2.469,16.361-2.469c5.546,0,10.484,0.8,14.809,2.397c4.324,1.6,7.709,3.928,10.155,6.982
		c2.443,3.057,3.667,6.794,3.667,11.212v45.979h-17.63v-42.17c0-1.785-0.282-3.315-0.846-4.584c-0.564-1.27-1.436-2.328-2.61-3.174
		c-1.176-0.846-2.563-1.455-4.16-1.833c-1.6-0.375-3.385-0.564-5.36-0.564c-3.01,0-5.877,0.331-8.603,0.987
		c-2.728,0.66-5.078,1.459-7.052,2.398c-1.975,0.94-3.434,1.74-4.372,2.397L969.446,122.542z"/>
	<path d="M1061.684,181.495h-17.912v-64.877h17.912V181.495z M1076.986,133.049c-1.27-0.611-2.846-0.918-4.725-0.918
		c-2.257,0-4.185,0.613-5.782,1.834c-1.6,1.222-2.8,2.94-3.597,5.148c-0.8,2.21-1.198,4.866-1.198,7.969l-5.078-5.078
		c0-5.17,0.987-9.754,2.961-13.751c1.975-3.996,4.56-7.194,7.758-9.591c3.194-2.397,6.487-3.597,9.872-3.597
		c2.349,0,4.584,0.424,6.7,1.27c2.115,0.846,3.83,2.115,5.148,3.807l-8.321,15.515C1079.5,134.53,1078.255,133.661,1076.986,133.049
		z"/>
	<path d="M1115.982,71.486v110.009h-17.63V71.486H1115.982z M1161.678,116.618l-27.925,26.797l30.746,38.08h-21.721l-30.886-38.08
		l27.925-26.797H1161.678z"/>
</g>
</svg>
