<svg width="81" height="82" viewBox="0 0 81 82" fill="none" xmlns="http://www.w3.org/2000/svg">
<path d="M24.5507 23.4729C24.2168 22.7491 23.549 22.0604 22.8696 21.7335C22.3745 21.5001 22.1442 21.4884 18.1833 21.4534L14.0151 21.4183L14.1303 21.8036C14.1879 22.0137 15.086 25.2123 16.1223 28.9012C20.1983 43.4232 23.2496 54.0813 23.4684 54.5249C23.7793 55.1436 24.1017 55.4821 24.6544 55.7856C25.1034 56.0308 25.2416 56.0425 29.2601 56.0425C33.8083 56.0425 33.7392 56.0541 34.5337 55.2953C35.0173 54.8517 35.1785 54.4782 36.2032 51.4314C38.3219 45.1276 40.8665 37.7148 40.9356 37.6331C40.9817 37.5864 42.2713 41.2052 43.8142 45.6879C45.3571 50.1589 46.7734 54.163 46.9806 54.5833C47.3606 55.3887 47.7982 55.774 48.5351 55.9841C48.7769 56.0541 50.5271 56.1008 52.6457 56.1008C56.6066 56.1008 56.883 56.0658 57.6544 55.4938C58.2186 55.0735 58.5065 54.4432 59.1398 52.1901C59.4622 51.0345 59.8997 49.5052 60.1185 48.8048C60.533 47.4273 61.3735 44.5789 63.4691 37.3646C64.1945 34.8547 64.8163 32.7185 64.8509 32.6017C64.9084 32.4149 64.6551 32.4033 60.7518 32.4033H60.7517C56.2266 32.4033 56.1921 32.4033 55.4437 33.0803C54.8795 33.5823 54.6837 34.0726 53.3711 38.4736C52.7263 40.6215 52.139 42.5944 52.0584 42.8512C51.9663 43.1664 51.8973 43.2598 51.8397 43.1431C51.8051 43.0497 50.2507 38.672 48.3854 33.4072C45.8983 26.4147 44.9081 23.7414 44.6663 23.4379C43.9984 22.6091 43.7336 22.539 40.9471 22.539C38.7018 22.539 38.4255 22.5624 38.0225 22.7725C37.1013 23.2394 37.1129 23.2278 33.6701 33.3605C31.8969 38.5786 30.423 42.9446 30.3885 43.0497C30.354 43.1664 30.2964 43.2598 30.2503 43.2598C30.2043 43.2598 29.4904 40.8083 28.6498 37.7965C25.3337 25.8894 24.8041 24.0332 24.5507 23.4729Z" fill="#1D1F1F"/>
<path d="M57.8462 23.9619L55.2885 28.6503L48.575 12.5297C48.4788 12.2986 48.477 12.0382 48.5701 11.8058C48.6632 11.5734 48.8435 11.3881 49.0714 11.2905L64.5373 4.67026C64.7651 4.57272 65.0219 4.57097 65.2511 4.66541C65.4802 4.75987 65.6631 4.94274 65.7594 5.17385L70.8398 17.3732C70.936 17.6043 70.9378 17.8647 70.8447 18.0971C70.7516 18.3294 70.5713 18.5148 70.3434 18.6124L57.8462 23.9619ZM55.9077 15.5512L56.6334 17.294L63.5072 14.3517L62.7814 12.6089L55.9077 15.5512Z" fill="#FFF7C8"/>
<path d="M56.6334 17.294L55.9077 15.5512L62.7814 12.6089L63.5072 14.3517L56.6334 17.294Z" fill="#1D1F1F"/>
<path d="M72.6529 75.6489C71.8715 75.6489 71.1769 75.4969 70.5691 75.1931C69.9722 74.8892 69.5001 74.4659 69.1528 73.9233C68.8055 73.3806 68.6318 72.762 68.6318 72.0674V67.444H71.8226V72.1C71.8226 72.2628 71.8552 72.4093 71.9203 72.5395C71.9963 72.6697 72.0939 72.7728 72.2133 72.8488C72.3436 72.9139 72.4901 72.9465 72.6529 72.9465C72.8808 72.9465 73.0707 72.8705 73.2227 72.7186C73.3855 72.5558 73.4668 72.3496 73.4668 72.1V67.444H76.6576V72.0674C76.6576 72.7728 76.484 73.3969 76.1367 73.9395C75.8002 74.4713 75.3281 74.8892 74.7204 75.1931C74.1235 75.4969 73.4343 75.6489 72.6529 75.6489Z" fill="#1D1F1F"/>
<path d="M62.6443 79.1327C61.7435 79.1327 60.9458 78.9807 60.2512 78.6768C59.5566 78.3838 59.0194 77.966 58.6395 77.4233L60.5279 75.5512C60.7776 75.8225 61.0543 76.0341 61.3582 76.1861C61.6621 76.3489 62.0311 76.4303 62.4652 76.4303C62.9862 76.4303 63.3931 76.3055 63.6862 76.0558C63.9901 75.8062 64.142 75.4426 64.142 74.9651V72.8488L64.6629 71.1231L64.2234 69.4138V67.444H67.3328V74.8349C67.3328 75.714 67.1266 76.4737 66.7142 77.114C66.3017 77.7543 65.7428 78.2481 65.0374 78.5954C64.3319 78.9536 63.5342 79.1327 62.6443 79.1327ZM62.4978 75.1279C61.7489 75.1279 61.0869 74.9543 60.5117 74.607C59.9365 74.2597 59.4861 73.7876 59.1605 73.1906C58.8349 72.5937 58.6721 71.9317 58.6721 71.2045C58.6721 70.4665 58.8349 69.8045 59.1605 69.2184C59.4861 68.6215 59.9365 68.1494 60.5117 67.8021C61.0869 67.4548 61.7489 67.2812 62.4978 67.2812C62.9644 67.2812 63.3931 67.3626 63.7838 67.5254C64.1854 67.6773 64.5164 67.8944 64.7769 68.1766C65.0482 68.4587 65.2219 68.7843 65.2978 69.1533V73.2558C65.2219 73.6248 65.0482 73.9504 64.7769 74.2325C64.5164 74.5147 64.1854 74.7372 63.7838 74.9C63.3931 75.0519 62.9644 75.1279 62.4978 75.1279ZM63.0838 72.4092C63.3443 72.4092 63.5668 72.3495 63.7513 72.2302C63.9358 72.1108 64.0769 71.9588 64.1746 71.7743C64.2722 71.5898 64.3211 71.3945 64.3211 71.1883C64.3211 70.9821 64.2722 70.7867 64.1746 70.6022C64.0769 70.4177 63.9358 70.2658 63.7513 70.1464C63.5776 70.027 63.3606 69.9673 63.1001 69.9673C62.8505 69.9673 62.6334 70.027 62.4489 70.1464C62.2644 70.2658 62.1233 70.4231 62.0257 70.6185C61.928 70.803 61.8791 70.9929 61.8791 71.1883C61.8791 71.3728 61.928 71.5627 62.0257 71.758C62.1233 71.9425 62.259 72.0999 62.4326 72.2302C62.6171 72.3495 62.8342 72.4092 63.0838 72.4092Z" fill="#1D1F1F"/>
<path d="M53.676 75.6489C52.7969 75.6489 52.01 75.4698 51.3155 75.1116C50.6317 74.7426 50.0891 74.238 49.6875 73.5977C49.2968 72.9573 49.1014 72.2356 49.1014 71.4325C49.1014 70.6294 49.2968 69.9131 49.6875 69.2836C50.0782 68.6541 50.6154 68.1603 51.2992 67.8022C51.9938 67.4332 52.7806 67.2487 53.6597 67.2487C54.5388 67.2487 55.3202 67.4332 56.0039 67.8022C56.6877 68.1603 57.2249 68.6541 57.6156 69.2836C58.0172 69.9131 58.218 70.6294 58.218 71.4325C58.218 72.2356 58.0226 72.9573 57.6319 73.5977C57.2412 74.238 56.704 74.7426 56.0202 75.1116C55.3365 75.4698 54.5551 75.6489 53.676 75.6489ZM53.6597 72.8488C53.931 72.8488 54.1644 72.7945 54.3597 72.686C54.5659 72.5666 54.7233 72.4038 54.8318 72.1976C54.9403 71.9806 54.9946 71.7309 54.9946 71.4488C54.9946 71.1666 54.9349 70.9224 54.8155 70.7162C54.707 70.4991 54.5551 70.3363 54.3597 70.2278C54.1644 70.1084 53.931 70.0487 53.6597 70.0487C53.3992 70.0487 53.1659 70.1084 52.9597 70.2278C52.7643 70.3472 52.607 70.5154 52.4876 70.7325C52.379 70.9387 52.3248 71.1829 52.3248 71.465C52.3248 71.7364 52.379 71.9806 52.4876 72.1976C52.607 72.4038 52.7643 72.5666 52.9597 72.686C53.1659 72.7945 53.3992 72.8488 53.6597 72.8488Z" fill="#1D1F1F"/>
<path d="M44.917 75.4535V63.5369H48.1078V75.4535H44.917Z" fill="#1D1F1F"/>
<path d="M38.3181 75.6163C37.5693 75.6163 36.9072 75.4372 36.332 75.0791C35.7568 74.7209 35.3064 74.2325 34.9808 73.6139C34.6552 72.9844 34.4924 72.2627 34.4924 71.4487C34.4924 70.6348 34.6552 69.913 34.9808 69.2836C35.3064 68.6541 35.7568 68.1657 36.332 67.8184C36.9072 67.4603 37.5693 67.2812 38.3181 67.2812C38.7848 67.2812 39.2135 67.3626 39.6042 67.5254C40.0058 67.6773 40.3368 67.8944 40.5972 68.1766C40.8686 68.4587 41.0422 68.7843 41.1182 69.1533V73.7441C41.0422 74.1131 40.8686 74.4387 40.5972 74.7209C40.3368 75.0031 40.0058 75.2256 39.6042 75.3884C39.2135 75.5403 38.7848 75.6163 38.3181 75.6163ZM39.0344 72.8162C39.436 72.8162 39.7561 72.6914 39.9949 72.4418C40.2445 72.1813 40.3693 71.8503 40.3693 71.4487C40.3693 71.1774 40.3151 70.9441 40.2065 70.7487C40.098 70.5425 39.9406 70.3797 39.7344 70.2603C39.5391 70.141 39.3112 70.0813 39.0507 70.0813C38.7902 70.0813 38.5569 70.141 38.3507 70.2603C38.1553 70.3797 37.9979 70.5425 37.8786 70.7487C37.7592 70.9549 37.6995 71.1883 37.6995 71.4487C37.6995 71.7092 37.7538 71.9425 37.8623 72.1488C37.9817 72.355 38.1445 72.5178 38.3507 72.6371C38.5569 72.7565 38.7848 72.8162 39.0344 72.8162ZM40.2716 75.4535V73.3046L40.7112 71.3511L40.2716 69.4138V67.444H43.381V75.4535H40.2716Z" fill="#1D1F1F"/>
<path d="M30.2746 75.4535V67.444H33.4654V75.4535H30.2746ZM31.87 66.6952C31.4033 66.6952 31.0126 66.5378 30.6979 66.2231C30.394 65.8975 30.2421 65.5013 30.2421 65.0347C30.2421 64.568 30.394 64.1773 30.6979 63.8625C31.0126 63.5369 31.4033 63.3741 31.87 63.3741C32.3475 63.3741 32.7383 63.5369 33.0421 63.8625C33.346 64.1773 33.498 64.568 33.498 65.0347C33.498 65.5013 33.346 65.8975 33.0421 66.2231C32.7383 66.5378 32.3475 66.6952 31.87 66.6952Z" fill="#1D1F1F"/>
<path d="M20.1719 75.4535V72.686H22.8743C23.4821 72.686 24.0085 72.5775 24.4534 72.3604C24.8984 72.1325 25.2403 71.7907 25.479 71.3348C25.7178 70.879 25.8372 70.3147 25.8372 69.6418C25.8372 68.9689 25.7124 68.41 25.4628 67.965C25.224 67.52 24.8821 67.189 24.4372 66.9719C24.003 66.744 23.4821 66.6301 22.8743 66.6301H20.0091V63.8625H22.8743C23.786 63.8625 24.6217 63.9982 25.3814 64.2695C26.1519 64.5409 26.8194 64.9316 27.3837 65.4417C27.9481 65.9517 28.3822 66.5649 28.6861 67.2812C29.0008 67.9867 29.1582 68.779 29.1582 69.658C29.1582 70.5371 29.0008 71.3348 28.6861 72.0511C28.3822 72.7566 27.9481 73.3643 27.3837 73.8744C26.8194 74.3845 26.1574 74.7752 25.3976 75.0466C24.6379 75.3179 23.8077 75.4535 22.9069 75.4535H20.1719ZM17.9905 75.4535V63.8625H21.2464V75.4535H17.9905Z" fill="#1D1F1F"/>
<path d="M6.09945 75.4535L3.77148 67.444H6.79947L8.08555 73.2721L7.19018 73.2884L8.86696 67.444H11.8787L13.5717 73.2884L12.6601 73.2721L13.9787 67.444H17.0067L14.6787 75.4535H11.6345L10.0716 69.9185H10.7228L9.11116 75.4535H6.09945Z" fill="#1D1F1F"/>
</svg>
