<svg width="149" height="28" viewBox="0 0 149 28" fill="none" xmlns="http://www.w3.org/2000/svg">
<g clip-path="url(#clip0_423_87062)">
<path d="M128.372 27.7767C128.293 27.7121 128.23 27.6308 128.186 27.5386C128.143 27.4465 128.12 27.3459 128.12 27.2438C128.124 27.1203 128.155 26.999 128.209 26.8884C128.264 26.7778 128.341 26.6804 128.436 26.6024C128.619 26.4468 128.819 26.3124 129.032 26.2019H129.709L129.456 26.3848C129.319 26.4819 129.19 26.5919 129.073 26.713C128.994 26.795 128.949 26.9043 128.949 27.0183C128.946 27.0711 128.957 27.1235 128.978 27.1716C129 27.2197 129.032 27.2622 129.073 27.2955C129.161 27.3644 129.27 27.4001 129.381 27.3967C129.44 27.3962 129.498 27.3884 129.554 27.3734C129.614 27.3583 129.683 27.3365 129.761 27.3082V27.8582C129.669 27.8946 129.575 27.9251 129.48 27.9495C129.329 27.9842 129.174 28.0009 129.02 27.9992C128.784 28.009 128.553 27.9297 128.372 27.7767ZM136.919 25.7017C136.626 25.3957 136.399 25.031 136.254 24.6312C136.108 24.2315 136.048 23.8055 136.076 23.3806C136.044 22.9555 136.103 22.5285 136.248 22.1282C136.394 21.7279 136.623 21.3636 136.919 21.0598C137.161 20.83 137.448 20.6531 137.761 20.5402C138.074 20.4273 138.407 20.3807 138.739 20.4035C139.071 20.3807 139.404 20.4271 139.717 20.54C140.03 20.653 140.316 20.83 140.558 21.0598C140.854 21.3642 141.082 21.7286 141.226 22.1289C141.371 22.5291 141.43 22.9559 141.398 23.3806C141.426 23.8051 141.366 24.2308 141.221 24.6305C141.077 25.0302 140.851 25.3952 140.558 25.7017C140.316 25.9316 140.03 26.1085 139.717 26.2216C139.404 26.3347 139.071 26.3814 138.739 26.3586C138.407 26.3813 138.074 26.3344 137.761 26.2213C137.448 26.1081 137.161 25.9317 136.919 25.7017ZM137.639 21.9152C137.34 22.3421 137.195 22.8592 137.228 23.3806C137.195 23.9021 137.34 24.4194 137.639 24.8463C137.769 25.0134 137.936 25.1471 138.127 25.2366C138.318 25.3261 138.528 25.3691 138.738 25.3615C138.948 25.3694 139.157 25.3267 139.347 25.2371C139.538 25.1475 139.704 25.0136 139.833 24.8463C140.128 24.4178 140.271 23.9012 140.238 23.3806C140.27 22.8606 140.127 22.3448 139.833 21.9166C139.704 21.7488 139.538 21.6143 139.348 21.5243C139.157 21.4344 138.948 21.3915 138.738 21.3992C138.528 21.3923 138.32 21.4353 138.129 21.5249C137.939 21.6144 137.772 21.7479 137.643 21.9145L137.639 21.9152ZM108.88 25.7017C108.586 25.3957 108.359 25.031 108.214 24.6312C108.068 24.2315 108.008 23.8055 108.036 23.3806C108.004 22.9555 108.062 22.5283 108.208 22.128C108.354 21.7277 108.583 21.3635 108.88 21.0598C109.122 20.83 109.408 20.6531 109.722 20.5402C110.035 20.4273 110.367 20.3807 110.699 20.4035C111.031 20.3807 111.364 20.4273 111.677 20.5402C111.99 20.6531 112.276 20.83 112.518 21.0598C112.814 21.3641 113.042 21.7286 113.187 22.1289C113.332 22.5291 113.39 22.9558 113.358 23.3806C113.387 23.8052 113.327 24.231 113.182 24.6307C113.037 25.0304 112.811 25.3952 112.518 25.7017C112.276 25.9316 111.99 26.1085 111.677 26.2216C111.364 26.3347 111.031 26.3814 110.699 26.3586C110.367 26.3813 110.034 26.3344 109.721 26.2213C109.408 26.1081 109.122 25.9317 108.88 25.7017ZM109.599 21.9152C109.3 22.3419 109.155 22.8592 109.189 23.3806C109.155 23.9021 109.3 24.4195 109.599 24.8463C109.729 25.0134 109.897 25.1471 110.088 25.2366C110.279 25.3261 110.488 25.3691 110.699 25.3615C110.908 25.3694 111.117 25.3266 111.307 25.237C111.497 25.1474 111.663 25.0135 111.792 24.8463C112.087 24.4179 112.23 23.9012 112.197 23.3806C112.23 22.8606 112.087 22.3447 111.792 21.9166C111.664 21.7489 111.498 21.6145 111.307 21.5245C111.117 21.4345 110.909 21.3916 110.699 21.3992C110.488 21.3918 110.279 21.4346 110.088 21.5242C109.897 21.6137 109.73 21.7475 109.6 21.9145L109.599 21.9152ZM41.0149 25.7017C40.7211 25.3957 40.4944 25.031 40.349 24.6312C40.2036 24.2315 40.1431 23.8055 40.1711 23.3806C40.1393 22.9555 40.1979 22.5285 40.3435 22.1282C40.4891 21.7278 40.718 21.3635 41.0149 21.0598C41.2568 20.83 41.5433 20.6531 41.8563 20.5402C42.1693 20.4273 42.502 20.3807 42.8337 20.4035C43.1655 20.3808 43.4983 20.4273 43.8114 20.5402C44.1245 20.6531 44.411 20.8301 44.6532 21.0598C44.9489 21.3642 45.1768 21.7286 45.3215 22.1289C45.4662 22.5291 45.5246 22.9559 45.4925 23.3806C45.5209 23.8051 45.4608 24.2308 45.3163 24.6305C45.1718 25.0302 44.9459 25.3951 44.6532 25.7017C44.4111 25.9315 44.1249 26.1084 43.8118 26.2214C43.4987 26.3345 43.1655 26.3813 42.8337 26.3586C42.5019 26.3813 42.1693 26.3344 41.8563 26.2213C41.5433 26.1081 41.2567 25.9317 41.0149 25.7017ZM41.7344 21.9152C41.4352 22.342 41.2902 22.8592 41.3236 23.3806C41.2903 23.9021 41.4352 24.4194 41.7344 24.8463C41.8643 25.0134 42.0317 25.1471 42.2227 25.2366C42.4138 25.3261 42.6231 25.3691 42.8337 25.3615C43.0436 25.3695 43.2526 25.3269 43.4429 25.2373C43.6333 25.1477 43.7996 25.0137 43.9282 24.8463C44.2233 24.4177 44.3661 23.9012 44.3334 23.3806C44.3656 22.8606 44.2227 22.3448 43.9282 21.9166C43.7998 21.7488 43.6336 21.6143 43.4433 21.5243C43.2529 21.4344 43.0438 21.3914 42.8337 21.3992C42.6231 21.3917 42.4138 21.4345 42.2227 21.524C42.0317 21.6135 41.8643 21.7481 41.7344 21.9152ZM91.0859 25.8448C90.8819 25.6803 90.7194 25.4696 90.6113 25.2299C90.5033 24.9901 90.4529 24.728 90.4643 24.4649H91.5719C91.5881 24.6722 91.6599 24.8713 91.779 25.0411C91.9042 25.1683 92.0562 25.2654 92.2237 25.3255C92.3912 25.3856 92.5699 25.4071 92.7467 25.3883C92.9725 25.3953 93.1976 25.3645 93.4133 25.297C93.5559 25.26 93.6818 25.1751 93.7701 25.0565C93.8585 24.9379 93.9039 24.7924 93.8993 24.6442C93.9013 24.5572 93.8801 24.4714 93.8378 24.3956C93.7955 24.3197 93.7337 24.2568 93.6589 24.2134C93.4212 24.0866 93.1653 23.9976 92.9006 23.9497L92.3133 23.8165C91.893 23.7434 91.4883 23.5974 91.1175 23.385C90.9281 23.2475 90.7772 23.0634 90.6786 22.8502C90.5801 22.637 90.5375 22.4019 90.555 22.1674C90.5496 21.931 90.5953 21.6962 90.6889 21.4794C90.7826 21.2625 90.9219 21.0688 91.0973 20.9117C91.5467 20.5486 92.1158 20.3699 92.6904 20.4113C93.2275 20.3959 93.7543 20.5618 94.1871 20.8826C94.3939 21.0437 94.5605 21.2514 94.6733 21.489C94.7862 21.7267 94.8421 21.9876 94.8368 22.251H93.7221C93.7229 22.1018 93.6826 21.9553 93.6056 21.8278C93.5286 21.7003 93.4178 21.5967 93.2859 21.5288C93.0754 21.4283 92.8442 21.3797 92.6114 21.3871C92.3601 21.3744 92.1111 21.4384 91.8964 21.5707C91.8116 21.6253 91.7424 21.7012 91.6955 21.791C91.6487 21.8807 91.6255 21.981 91.6289 22.0823C91.6256 22.1749 91.6488 22.2666 91.6955 22.3463C91.7423 22.4261 91.8106 22.4906 91.8926 22.5323C92.1236 22.6387 92.3665 22.7171 92.6159 22.7656L93.573 22.9979C93.9143 23.0649 94.2378 23.2042 94.5219 23.4063C94.6889 23.5446 94.8211 23.7208 94.9076 23.9205C94.994 24.1201 95.0322 24.3375 95.0192 24.5549C95.0234 24.7986 94.9732 25.0402 94.8725 25.2619C94.7719 25.4835 94.6232 25.6795 94.4374 25.8356C93.9695 26.2017 93.385 26.3829 92.7938 26.3451C92.1846 26.381 91.5809 26.2043 91.0859 25.8448ZM11.413 25.8448C11.2088 25.6804 11.0461 25.4698 10.9381 25.23C10.83 24.9902 10.7795 24.728 10.7911 24.4649H11.8983C11.916 24.6726 11.9887 24.8716 12.1092 25.0411C12.2343 25.1683 12.3862 25.2654 12.5536 25.3255C12.7209 25.3856 12.8995 25.4071 13.0763 25.3883C13.302 25.3953 13.5275 25.3645 13.7432 25.297C13.8857 25.26 14.0114 25.1752 14.0997 25.0565C14.1879 24.9378 14.2333 24.7924 14.2284 24.6442C14.2306 24.5572 14.2093 24.4712 14.167 24.3954C14.1246 24.3195 14.063 24.2567 13.988 24.2134C13.7508 24.0866 13.4954 23.9976 13.2311 23.9497L12.6432 23.8165C12.2229 23.7432 11.8182 23.5973 11.4474 23.385C11.2581 23.2475 11.107 23.0633 11.0085 22.8502C10.91 22.637 10.8675 22.4019 10.8849 22.1674C10.8794 21.931 10.9252 21.6962 11.0188 21.4794C11.1124 21.2625 11.2517 21.0688 11.4271 20.9117C11.8764 20.5483 12.4456 20.3695 13.0203 20.4113C13.5574 20.3959 14.0841 20.5618 14.5169 20.8826C14.7238 21.0437 14.8904 21.2514 15.0032 21.489C15.1161 21.7267 15.1719 21.9876 15.1667 22.251H14.0519C14.0527 22.1017 14.0123 21.9552 13.9352 21.8276C13.858 21.7001 13.7471 21.5966 13.6151 21.5288C13.4049 21.4281 13.1739 21.3795 12.9413 21.3871C12.6897 21.3743 12.4401 21.4383 12.2252 21.5707C12.1404 21.6253 12.0712 21.7012 12.0243 21.791C11.9775 21.8807 11.9547 21.981 11.9581 22.0823C11.9547 22.1749 11.9776 22.2666 12.0243 22.3463C12.0711 22.4261 12.1397 22.4906 12.2218 22.5323C12.4527 22.6389 12.6953 22.7172 12.9447 22.7656L13.9008 22.9979C14.2423 23.0651 14.5656 23.2043 14.85 23.4063C15.0171 23.5446 15.1493 23.7208 15.2357 23.9205C15.3221 24.1201 15.3604 24.3375 15.3473 24.5549C15.3516 24.7986 15.3017 25.0402 15.201 25.2619C15.1004 25.4835 14.9517 25.6795 14.7659 25.8356C14.2978 26.2019 13.7127 26.3831 13.1212 26.3451C12.5118 26.3812 11.9082 26.2045 11.413 25.8448ZM0.876421 25.8448C0.672429 25.6803 0.509724 25.4696 0.401807 25.2299C0.29389 24.9901 0.243598 24.728 0.255165 24.4649H1.36237C1.37898 24.6723 1.45059 24.8713 1.5698 25.0411C1.69498 25.1684 1.84702 25.2656 2.01453 25.3257C2.18205 25.3858 2.36074 25.4072 2.53757 25.3883C2.76331 25.3953 2.9888 25.3645 3.2045 25.297C3.34705 25.26 3.47263 25.1751 3.56097 25.0565C3.64931 24.9379 3.69509 24.7924 3.69045 24.6442C3.69249 24.5571 3.67109 24.4712 3.62863 24.3954C3.58616 24.3196 3.52402 24.2566 3.44902 24.2134C3.21189 24.0864 2.95678 23.9974 2.69245 23.9497L2.1052 23.8165C1.68487 23.7434 1.28017 23.5974 0.909389 23.385C0.720001 23.2475 0.56867 23.0634 0.470149 22.8502C0.371628 22.637 0.329354 22.4019 0.346859 22.1674C0.341511 21.931 0.387032 21.6962 0.480795 21.4794C0.574558 21.2625 0.714298 21.0688 0.889814 20.9117C1.33912 20.5483 1.90796 20.3695 2.48262 20.4113C3.01967 20.3962 3.54666 20.5621 3.97961 20.8826C4.18639 21.0438 4.35282 21.2514 4.46556 21.489C4.57829 21.7267 4.63409 21.9877 4.62868 22.251H3.51392C3.51476 22.1017 3.47429 21.955 3.39716 21.8275C3.32003 21.6999 3.2092 21.5965 3.07709 21.5288C2.86691 21.4282 2.63589 21.3796 2.40329 21.3871C2.15173 21.3743 1.90215 21.4383 1.68725 21.5707C1.60245 21.6253 1.53321 21.7012 1.48634 21.791C1.43948 21.8807 1.4167 21.981 1.42006 22.0823C1.41676 22.1749 1.43994 22.2666 1.48669 22.3463C1.53343 22.4261 1.60178 22.4906 1.68381 22.5323C1.91477 22.6387 2.15737 22.7171 2.40672 22.7656L3.36419 22.9979C3.70552 23.0649 4.02863 23.2042 4.31273 23.4063C4.47995 23.5444 4.61229 23.7206 4.69874 23.9203C4.78519 24.12 4.82329 24.3374 4.81001 24.5549C4.8147 24.7987 4.76509 25.0403 4.6644 25.262C4.5637 25.4837 4.41475 25.6798 4.22859 25.8356C3.76071 26.2018 3.17585 26.383 2.58462 26.3451C1.97523 26.3811 1.37165 26.2044 0.876421 25.8448ZM146.316 26.1991L145.645 22.9087L145.449 21.8209L145.253 22.9087L144.582 26.1991H143.506L141.931 20.5722H143.163L143.896 23.7938L144.055 24.6911L144.217 23.813L144.841 20.5715H146.066L146.725 23.7931L146.894 24.6904L147.064 23.8272L147.806 20.5708H148.985L147.422 26.1977L146.316 26.1991ZM130.589 26.1991V20.5722H132.98C133.271 20.5697 133.56 20.6109 133.839 20.6947C134.224 20.821 134.556 21.0719 134.784 21.4084C134.975 21.6816 135.11 21.9905 135.18 22.3169C135.249 22.6226 135.284 22.9348 135.286 23.2481C135.307 23.91 135.153 24.5658 134.842 25.1489C134.661 25.4826 134.391 25.7581 134.061 25.9437C133.732 26.1294 133.357 26.2178 132.981 26.1984L130.589 26.1991ZM131.714 25.2219H132.784C133.038 25.2309 133.287 25.1554 133.494 25.007C133.701 24.8587 133.854 24.6457 133.929 24.4011C134.054 24.0581 134.114 23.6943 134.105 23.3289C134.131 22.8736 134.04 22.4196 133.84 22.0102C133.722 21.8445 133.562 21.7142 133.376 21.6332C133.19 21.5522 132.986 21.5235 132.785 21.5501H131.716L131.714 25.2219ZM128.503 26.1991L128.145 25.0425H126.1L125.716 26.1991H124.503L126.484 20.5722H127.795L129.76 26.1991H128.503ZM126.412 24.0731H127.818L127.125 21.8591L126.412 24.0731ZM119.667 26.1991V25.207L122.533 21.5693H119.739V20.5729H123.98V21.5162L121.076 25.207H123.987V26.1991H119.667ZM117.748 26.1991C117.713 26.0744 117.688 25.9737 117.673 25.8972C117.642 25.7374 117.625 25.5751 117.623 25.4124L117.617 24.8895C117.643 24.6342 117.574 24.3781 117.423 24.1715C117.219 24.0285 116.97 23.9649 116.723 23.9923H115.527V26.1991H114.394V20.5722H117.118C117.423 20.5646 117.727 20.6126 118.016 20.7139C118.222 20.8006 118.404 20.9354 118.548 21.1072C118.668 21.2485 118.765 21.4083 118.835 21.5806C118.908 21.7689 118.944 21.9701 118.94 22.1725C118.938 22.4477 118.87 22.7183 118.741 22.9611C118.602 23.2243 118.365 23.4214 118.082 23.509C118.309 23.5892 118.501 23.7465 118.626 23.954C118.749 24.2298 118.804 24.5316 118.786 24.8335V25.2112C118.78 25.3861 118.79 25.5611 118.816 25.7342C118.827 25.7997 118.851 25.8621 118.887 25.9174C118.924 25.9728 118.971 26.0198 119.027 26.0553V26.197L117.748 26.1991ZM115.525 23.0618H116.841C117.04 23.0723 117.24 23.041 117.427 22.9697C117.543 22.9131 117.638 22.8217 117.7 22.7083C117.762 22.5949 117.788 22.4649 117.774 22.3361C117.79 22.2013 117.767 22.0646 117.708 21.9427C117.648 21.8208 117.555 21.7189 117.439 21.6494C117.262 21.5735 117.069 21.5394 116.876 21.5501H115.528L115.525 23.0618ZM105.96 26.1991V22.3936C105.96 22.2844 105.96 22.1305 105.96 21.9335C105.96 21.7365 105.964 21.5841 105.964 21.4771L104.913 26.1991H103.788L102.745 21.4771C102.745 21.5841 102.745 21.7365 102.749 21.9335C102.752 22.1305 102.752 22.2844 102.752 22.3936V26.1991H101.671V20.5722H103.359L104.369 24.9965L105.371 20.5722H107.039V26.1991H105.96ZM99.607 26.1991L99.2488 25.0425H97.2037L96.8204 26.1991H95.6071L97.5883 20.5722H98.8995L100.865 26.1991H99.607ZM97.5166 24.0731H98.9232L98.2299 21.8591L97.5166 24.0731ZM86.6606 26.1991L86.3027 25.0425H84.2573L83.874 26.1991H82.6607L84.6423 20.5722H85.9524L87.9216 26.1991H86.6606ZM84.5712 24.0731H85.9778L85.2841 21.8591L84.5712 24.0731ZM78.2171 26.1991V20.5722H79.3775V25.1878H82.127V26.1991H78.2171ZM72.5235 26.1991V20.5722H74.9151C75.2058 20.5697 75.4951 20.6109 75.7736 20.6947C76.1581 20.8212 76.4906 21.0721 76.7191 21.4084C76.9096 21.6818 77.0442 21.9906 77.1151 22.3169C77.1826 22.6227 77.2177 22.9348 77.2198 23.2481C77.2405 23.9101 77.0873 24.5659 76.7754 25.1489C76.5949 25.4826 76.3243 25.7581 75.9951 25.9437C75.666 26.1294 75.2918 26.2177 74.9151 26.1984L72.5235 26.1991ZM73.6489 25.2219H74.7186C74.9724 25.2309 75.222 25.1554 75.4288 25.007C75.6357 24.8587 75.7882 24.6456 75.8629 24.4011C75.9887 24.0582 76.0488 23.6944 76.0401 23.3289C76.0654 22.8736 75.9739 22.4195 75.7743 22.0102C75.6563 21.8444 75.4958 21.714 75.31 21.633C75.1242 21.552 74.92 21.5233 74.7193 21.5501H73.6496L73.6489 25.2219ZM65.022 26.1991V20.5722H69.0933V21.5686H66.1557V22.7635H68.8522V23.7407H66.1557V25.1878H69.2286V26.1991H65.022ZM62.6236 26.1991L60.3559 22.2029V26.1991H59.2748V20.5722H60.4916L62.7029 24.5004V20.5722H63.7833V26.1991H62.6236ZM56.9371 26.1991V20.5722H58.0897V26.1991H56.9371ZM52.193 26.1991V20.5722H53.3528V25.1878H56.1023V26.1991H52.193ZM49.8286 26.1991L47.5609 22.2029V26.1991H46.4798V20.5722H47.6966L49.9072 24.5004V20.5722H50.9883V26.1991H49.8286ZM34.4418 26.1991V24.0836L32.5213 20.5715H33.8888L35.0407 23.0228L36.1451 20.5715H37.4594L35.6022 24.0836V26.1991H34.4418ZM30.695 26.1991V22.3936C30.695 22.2844 30.6949 22.1305 30.6984 21.9335C30.7019 21.7365 30.7025 21.5841 30.7025 21.4771L29.6513 26.1991H28.5259L27.4829 21.4771C27.4829 21.5841 27.4828 21.7365 27.4864 21.9335C27.4899 22.1305 27.4864 22.2844 27.4864 22.3936V26.1991H26.406V20.5722H28.0939L29.1032 24.9965L30.105 20.5722H31.7737V26.1991H30.695ZM21.1941 26.1991V20.5722H25.2658V21.5686H22.3274V22.7635H25.024V23.7407H22.3274V25.1878H25.4018V26.1991H21.1941ZM17.5298 26.1991V21.5686H15.8607V20.5722H20.3579V21.5686H18.6974V26.1991H17.5298ZM7.25348 26.1991V24.0836L5.33202 20.5715H6.69988L7.85276 23.0228L8.95618 20.5715H10.2708L8.41391 24.0836V26.1991H7.25348ZM138.1 19.9499L138.823 18.809H140.019L138.874 19.9499H138.1ZM143.721 16.2732L139.133 10.3678L137.435 12.204V16.2732H132.939V-0.000131684H137.435V6.76573L143.652 -0.000131684H148.653L142.091 7.2078L148.996 16.279L143.721 16.2732ZM125.896 16.2732L122.982 11.9504H120.504V16.2732H115.962V-0.000131684H123.303C124.602 -0.0310185 125.893 0.218564 127.088 0.731907C128.1 1.16985 128.961 1.89764 129.566 2.82473C130.161 3.78135 130.464 4.89296 130.438 6.02158C130.463 7.10565 130.18 8.17436 129.623 9.10217C129.057 9.99702 128.249 10.7101 127.294 11.1573L130.759 16.2725L125.896 16.2732ZM120.504 8.39141H123.028C123.782 8.4471 124.531 8.22824 125.138 7.77478C125.38 7.55473 125.569 7.28278 125.692 6.97889C125.815 6.67501 125.869 6.34695 125.849 6.01933C125.868 5.69013 125.814 5.36087 125.691 5.05528C125.568 4.74969 125.379 4.47551 125.138 4.25265C124.534 3.79196 123.784 3.56877 123.028 3.62477H120.504V8.39141ZM109.954 16.2732L108.692 13.1112H101.902L100.64 16.2732H96.0065L103.096 -0.0022079H107.568L114.679 16.2732H109.954ZM103.232 9.71655H107.361L105.297 4.50854L103.232 9.71655ZM82.0614 16.2732V-0.000131684H89.4028C90.7019 -0.0306898 91.9928 0.21888 93.1884 0.731907C94.1995 1.16991 95.0607 1.89771 95.6648 2.82473C96.2601 3.78121 96.563 4.89292 96.5361 6.02158C96.5641 7.14683 96.2611 8.25517 95.6648 9.20702C95.0577 10.1284 94.1971 10.8515 93.1884 11.2877C91.9928 11.8008 90.7019 12.0503 89.4028 12.0198H86.6042V16.2719L82.0614 16.2732ZM86.6035 8.39141H89.1267C89.8806 8.44684 90.6292 8.22801 91.2367 7.77478C91.4782 7.5546 91.6676 7.28257 91.7906 6.97872C91.9137 6.67487 91.9672 6.34693 91.9476 6.01933C91.9664 5.69016 91.9122 5.361 91.7893 5.05545C91.6663 4.7499 91.4777 4.47566 91.2367 4.25265C90.6323 3.7922 89.8824 3.56903 89.1267 3.62477H86.6035V8.39141ZM76.0535 16.2732L74.7911 13.1112H68.0006L66.7395 16.2732H62.1043L69.1933 -0.0022079H73.6674L80.7787 16.2732H76.0535ZM69.3313 9.71655H73.4603L71.3953 4.50854L69.3313 9.71655ZM56.2547 16.2732V-0.000131684H60.7969V16.2755L56.2547 16.2732ZM37.3056 16.2732V-0.000131684H44.9014C46.5166 -0.0315639 48.1175 0.310436 49.581 0.999739C50.886 1.61609 51.9855 2.60083 52.746 3.83446C53.5155 5.13301 53.9057 6.62415 53.8714 8.13621C53.9057 9.64826 53.5155 11.1394 52.746 12.438C51.9855 13.6716 50.886 14.6564 49.581 15.2727C48.1175 15.962 46.5166 16.304 44.9014 16.2725L37.3056 16.2732ZM41.8477 12.5996H44.7153C45.9318 12.6578 47.1223 12.2319 48.03 11.4139C48.4566 10.9875 48.7884 10.4749 49.004 9.90982C49.2196 9.34472 49.3138 8.73998 49.2805 8.13552C49.3138 7.53106 49.2196 6.92631 49.004 6.36122C48.7884 5.79613 48.4566 5.28354 48.03 4.85717C47.1223 4.03912 45.9318 3.61324 44.7153 3.67148H41.8477V12.5996ZM21.8892 16.2732V-0.000131684H34.4837V3.55746H26.3857V6.30084H33.5203V9.74216H26.3857V12.7186H34.7821V16.2762L21.8892 16.2732ZM14.5042 16.2732L14.4592 7.64726L10.3299 14.6688H8.31054L4.20387 7.87962V16.2732H0V-0.000131684H3.73956L9.38237 9.39336L14.8888 -0.000131684H18.6277L18.6734 16.2755L14.5042 16.2732Z" fill="black"/>
</g>
<defs>
<clipPath id="clip0_423_87062">
<rect width="149" height="28" fill="white"/>
</clipPath>
</defs>
</svg>
