<svg width="51" height="49" viewBox="0 0 51 49" fill="none" xmlns="http://www.w3.org/2000/svg">
<g clip-path="url(#clip0_1_716)">
<path fill-rule="evenodd" clip-rule="evenodd" d="M26.6741 2.06473L25.5 2L24.3208 2.06473L23.1621 2.25393L22.0342 2.57258L20.9421 3.01074L19.9116 3.5634L18.9529 4.22561L18.0762 4.9874L17.2917 5.8388L16.6099 6.76988L16.0356 7.77065L15.5845 8.83118L15.2615 9.92656L15.0667 11.0518L15 12.192L15.0615 14.1239L15.2512 16.0408L15.564 17.9427L15.9946 19.8298L16.5535 21.677L17.2251 23.4893L18.0198 25.2619L18.9221 26.9746L19.9373 28.6326L21.0498 30.2259L22.2751 31.7445L23.5876 33.1884L23.9978 33.532L24.4592 33.7809L24.9668 33.9303L25.5 34L26.0332 33.9303L26.5408 33.7809L27.0022 33.532L27.4124 33.1884L28.7249 31.7445L29.9502 30.2259L31.0627 28.6326L32.0779 26.9746L32.9802 25.2619L33.7749 23.4893L34.4465 21.677L35.0054 19.8298L35.436 17.9427L35.7488 16.0408L35.9385 14.1239L36 12.192L35.9385 11.0518L35.7385 9.92656L35.4104 8.83118L34.9592 7.77065L34.3901 6.76988L33.7083 5.8388L32.9238 4.9874L32.0471 4.22561L31.0884 3.5634L30.0527 3.01074L28.9709 2.57258L27.8379 2.25393L26.6741 2.06473ZM26.2847 8.09351L25.449 8.19309L24.6389 8.4271L23.875 8.77065L23.1777 8.23868L22.5728 8.80629L22.0652 9.46351L21.6704 10.1954L21.3987 10.9721L21.2654 11.7787V12.6053L21.3987 13.4119L21.6704 14.1886L22.0652 14.9155L22.5728 15.5727L23.1777 16.1354L23.875 15.6034L24.6389 15.9569L24.449 16.1859L25.2847 16.2855L26.1306 16.2706L26.9612 16.1013L26.7507 15.8075L27.4839 15.3993L28.1401 15.8814L28.699 15.269L29.1501 14.572L29.4783 13.8201L29.6833 13.0235L29.75 12.202L29.6833 11.3804L29.4783 10.5838L29.1501 9.82698L28.699 9.1349L28.1401 8.52248L27.4839 8.99471L26.7507 8.58643L26.9612 8.29765L27.1306 8.12836L26.2847 8.09351Z" fill="#F7F1C3"/>
<path d="M25.1104 6.10352e-05L23.8506 0.12926L22.6104 0.382874L21.3994 0.756116L20.2373 1.23942L19.1338 1.84235L18.0938 2.55055L17.1318 3.36403L16.2578 4.26364L15.4863 5.23981L14.8125 6.29254L14.2559 7.40748L13.8164 8.57506L13.499 9.77135L13.3086 11.0011L13.2451 12.2405L13.3086 14.2455L13.499 16.2457L13.8213 18.2267L14.2705 20.1839L14.8418 22.1123L15.54 24.0024L16.3555 25.8399L17.2881 27.6248L18.333 29.3522L19.4902 31.0127L20.75 32.5965L22.1074 34.0991H22.1123L22.7129 34.6302L23.4014 35.0561L24.1436 35.3719L24.9346 35.5681L25.7451 35.6495L26.5557 35.5681L27.3418 35.3719L28.0889 35.0561L28.7773 34.6302L29.3828 34.0991L30.7402 32.5965L31.9951 31.0127L33.1572 29.3522L34.1973 27.6248L35.1299 25.8399L35.9453 24.0024L36.6436 22.1123L37.2197 20.1839L37.6641 18.2267L37.9863 16.2457L38.1768 14.2455L38.2451 12.2405L38.1768 11.0011L37.9863 9.77135L37.6738 8.57506L37.2295 7.40748L36.6729 6.29254L36.0088 5.23981L35.2324 4.26364L34.3535 3.36403L33.3916 2.55055L32.3564 1.84235L31.2529 1.23942L30.0859 0.756116L28.875 0.382874L27.6348 0.12926L26.375 6.10352e-05H25.1104ZM25.7451 2.44049L26.8633 2.5027L27.9717 2.68453L29.0508 2.99078L30.0811 3.41188L31.0674 3.94303L31.9805 4.57946L32.8154 5.31158L33.5625 6.12985L34.2119 7.02467L34.7539 7.98649L35.1836 9.00572L35.4961 10.0585L35.6865 11.1399L35.7451 12.2357L35.6865 14.0923L35.5059 15.9346L35.208 17.7626L34.7979 19.5761L34.2656 21.3514L33.626 23.0932L32.8691 24.7967L32.0098 26.4428L31.043 28.0363L29.9834 29.5675L28.8164 31.027L27.5664 32.4147L27.1758 32.7449L26.7363 32.9841L26.2529 33.1277L25.7451 33.1947L25.2373 33.1277L24.7539 32.9841L24.3145 32.7449L23.9238 32.4147L22.6738 31.027L21.5068 29.5675L20.4473 28.0363L19.4805 26.4428L18.6211 24.7967L17.8643 23.0932L17.2246 21.3514L16.6924 19.5761L16.2822 17.7626L15.9844 15.9346L15.8037 14.0923L15.7451 12.2357L15.8086 11.1399L15.9941 10.0585L16.3018 9.00572L16.7314 7.98649L17.2783 7.02467L17.9277 6.12985L18.6748 5.31158L19.5098 4.57946L20.4229 3.94303L21.4043 3.41188L22.4443 2.99078L23.5186 2.68453L24.6221 2.5027L25.7451 2.44049ZM25.54 7.33571L24.7441 7.43141L23.9727 7.65631L23.2451 7.98649L22.5811 8.43629L22.0049 8.9818L21.5215 9.61344L21.1455 10.3169L20.8867 11.0633L20.7598 11.8385V12.6329L20.8867 13.4081L21.1455 14.1546L21.5215 14.8532L22.0049 15.4848L22.5811 16.0255L23.2451 16.4754L23.9727 16.8151L24.7441 17.0352L25.54 17.1309L26.3457 17.1166L27.1367 16.9539L27.8887 16.6715L28.5869 16.2792L29.2119 15.7815L29.7441 15.1929L30.1738 14.523L30.4863 13.8005L30.6816 13.0348L30.7451 12.2453V12.2405L30.6816 11.4557L30.4863 10.6901L30.1738 9.96276L29.7441 9.29762L29.2119 8.70905L28.5869 8.20182L27.8887 7.80944L27.1367 7.5319L26.3457 7.3692L25.54 7.33571ZM25.7451 9.78571L26.2969 9.8527L26.8291 10.0345L27.3027 10.3264L27.7031 10.714L28.001 11.1734L28.1816 11.695L28.2451 12.2405L28.1816 12.7812L28.001 13.3028L27.7031 13.767L27.3027 14.1593L26.8291 14.4512L26.2969 14.6331L25.7451 14.6953L25.1885 14.6331L24.6562 14.4512L24.1875 14.1593L23.792 13.767L23.4941 13.3028L23.3086 12.7812L23.2451 12.2405L23.3086 11.695L23.4941 11.1734L23.792 10.714L24.1875 10.3264L24.6562 10.0345L25.1885 9.8527L25.7451 9.78571ZM13.6846 26.0074L12.5127 26.3471L11.3457 26.7252L10.1982 27.1463L9.06055 27.6152L7.95215 28.1272L6.87305 28.7014L5.82812 29.3331L4.82715 30.0317L3.875 30.8021L3.00586 31.6443L2.60547 32.0989L2.22949 32.5822L1.88281 33.0751L1.58008 33.6014L1.31152 34.1374L1.0918 34.702L0.920898 35.2858L0.808594 35.8792L0.75 36.4773L0.754883 37.085L0.818359 37.6832L0.94043 38.2765L1.12109 38.8507L1.3457 39.4106L1.61426 39.9513L1.93164 40.4729L2.27832 40.9658L2.6543 41.4443L3.48926 42.3296L4.40723 43.1287L5.38379 43.8512L6.41406 44.5116L7.47852 45.1097L8.57715 45.6457L9.7002 46.1385L10.8477 46.5788L12.0049 46.9712L13.1768 47.33L14.3584 47.6459L15.5547 47.9234L16.7607 48.1722L17.9717 48.3828L19.1826 48.5598L21.6289 48.8182L24.0801 48.9666L26.5312 49.0001L28.9922 48.9044L31.4385 48.6842L33.8652 48.3445L35.0713 48.1244L36.2773 47.866L37.4639 47.5789L38.6504 47.2535L39.8223 46.8802L40.9746 46.4735L42.1123 46.0189L43.2305 45.5117L44.3145 44.9566L45.3789 44.3441L46.3896 43.6646L47.3516 42.9181L48.2451 42.0951L48.665 41.6501L49.0508 41.1859L49.417 40.7026L49.7441 40.1954L50.0371 39.6642L50.2812 39.1139L50.4766 38.5397L50.6279 37.9559L50.7207 37.3578L50.75 36.7596L50.7256 36.2046L50.6475 35.6543L50.5254 35.1183L50.3545 34.592L50.1396 34.0752L49.8906 33.5775L49.6123 33.099L49.2949 32.6396L48.582 31.7735L47.7959 30.9839L46.9414 30.2566L46.0381 29.5963L45.0859 28.9933L44.1094 28.4478L43.0986 27.9406L42.0732 27.4812L41.0234 27.0649L39.9639 26.6869L38.8945 26.3423L37.8057 26.0313V26.0074L37.2734 27.1415L36.6973 28.2516L38.5332 28.7732L40.3301 29.4048L41.2139 29.7685L42.0781 30.1609L42.9326 30.5868L43.7627 31.0462L44.5635 31.5582L45.3301 32.1132L46.0576 32.721L46.7266 33.3957L47.3174 34.123L47.5762 34.5202L47.8008 34.9317L47.9863 35.3624L48.1279 35.8074L48.2207 36.2668L48.25 36.7357L48.2158 37.2573L48.1035 37.7645L47.9326 38.2574L47.7031 38.7311L47.4346 39.1809L47.127 39.6068L46.4336 40.3916L45.6572 41.0998L44.8174 41.741L43.9336 42.32L43.0156 42.8416L42.0732 43.3249L41.1064 43.7555L40.125 44.1527L39.1289 44.5068L38.1182 44.8322L37.0977 45.1145L35.0322 45.6074L32.9473 45.9854L30.8428 46.2677L28.7236 46.44L26.5996 46.5261L24.4756 46.5166L22.3564 46.4161L20.2471 46.2151L18.1377 45.9184L16.0576 45.5213L13.9971 45.0092L12.9814 44.703L11.9756 44.3728L10.9844 43.9996L10.0078 43.5881L9.05078 43.1382L8.11328 42.6454L7.21484 42.0951L6.34082 41.4969L5.53027 40.8366L4.77832 40.0901L4.43652 39.6929L4.12402 39.2718L3.8457 38.8316L3.61133 38.3674L3.42578 37.8746L3.29883 37.3673L3.24512 36.8553L3.26953 36.3338L3.36719 35.817L3.51855 35.3241L3.7334 34.8504L3.99707 34.391L4.29492 33.9651L4.62695 33.5536L5.35938 32.7975L6.16016 32.1132L7.01953 31.5007L7.91309 30.9457L8.8457 30.4384L9.79297 29.9743L10.7646 29.5628L11.7559 29.1799L12.7568 28.8402L13.7725 28.5339L14.7979 28.2516L14.2266 27.1415L13.6895 26.0074H13.6846Z" fill="#1D3238"/>
</g>
<defs>
<clipPath id="clip0_1_716">
<rect width="50" height="49" fill="white" transform="translate(0.75 6.10352e-05)"/>
</clipPath>
</defs>
</svg>
