<svg width="59" height="50" viewBox="0 0 59 50" fill="none" xmlns="http://www.w3.org/2000/svg">
<g clip-path="url(#clip0_1_722)">
<path d="M2.56253 28.0313C2.59378 27.6878 2.61441 27.5425 2.63019 27.4016C2.64727 27.249 2.67691 27.1256 2.69269 27.0005C2.71024 26.8613 2.77066 26.6781 2.9105 26.413C3.10768 26.0391 3.3641 25.7922 3.54019 25.6006C4.10842 24.9825 4.19753 24.8444 4.52363 24.585C4.73137 24.4198 5.14816 24.1925 5.46363 24.0186C5.7791 23.8447 5.99566 23.7519 6.27222 23.6731C6.54878 23.5944 6.87878 23.5325 7.518 23.48C8.15722 23.4275 9.09566 23.3863 9.61519 23.3702C10.2067 23.3518 10.3741 23.375 10.6539 23.3905C11.121 23.4163 11.6332 23.4688 11.9975 23.4739C12.2625 23.4777 12.5088 23.6138 12.713 23.7703C12.8456 23.872 13.1332 24.2675 13.3382 24.5049C13.4778 24.6665 13.8319 24.7913 14.0718 24.8434C14.1774 24.8664 14.3507 24.9363 14.6833 25.0094C15.4959 25.188 16.0619 25.25 16.1918 25.2449C16.4487 25.2346 16.5932 25.1981 16.998 25.0269C17.5747 24.783 17.8738 24.6775 18.1138 24.5422C18.2855 24.4454 18.4057 24.3338 18.6444 24.1781C19.2602 23.7768 19.3432 23.615 19.6186 23.4797C19.8578 23.3622 20.0407 23.365 20.5861 23.3541C21.1166 23.3434 21.3013 23.4269 21.4268 23.5049C21.5983 23.6115 21.5313 23.9888 21.5572 24.1505C21.5779 24.2794 21.5313 24.4263 21.4074 24.8356C21.3253 25.1067 21.1082 25.5738 20.9453 25.9316C20.6757 26.5242 20.5003 26.7913 20.3607 26.9827C20.0641 27.389 19.7719 27.8419 19.6105 28.1438C19.481 28.3859 19.3963 28.6031 19.261 28.8688C19.1191 29.1473 18.9488 29.5706 18.8493 29.9364C18.8043 30.1017 18.7919 30.2494 18.7658 30.4984C18.7278 30.861 18.6875 31.2484 18.6824 31.5189C18.6715 32.0911 18.5944 32.8425 18.4693 33.0047C18.4083 33.0836 18.3441 33.1559 18.2766 33.2028C18.1422 33.2962 17.9385 33.25 17.2719 33.2861C16.6979 33.3172 15.6463 33.3944 13.5472 33.3749C11.4482 33.3553 8.33378 33.2419 6.69332 33.1783C5.05285 33.1147 4.98066 33.1044 4.79394 33.0991C4.30833 33.0853 3.90722 33.1041 3.5191 33.1249C2.72964 33.1671 2.16722 33.1459 2.05816 33.1303C1.93987 33.1134 1.8441 33.1147 1.79722 33.0733C1.73413 33.0176 1.76066 32.7003 1.73972 32.0522C1.72645 31.6415 1.76003 31.0638 1.81191 30.5342C1.86378 30.0047 1.94628 29.5406 1.99394 29.2861C2.06011 28.9327 2.13535 28.8441 2.1716 28.792C2.26502 28.6579 2.46816 28.6256 2.59847 28.5264C2.63421 28.4992 2.67628 28.4694 2.72332 28.4483C2.77035 28.4272 2.82191 28.4169 2.99285 29.2056C3.16378 29.9944 3.45253 31.5825 3.60128 32.38C3.75003 33.1775 3.75003 33.1363 3.72425 32.8778C3.65111 32.1446 3.57316 31.5944 3.5316 31.4439C3.50736 31.3562 3.49003 31.2419 3.48457 30.9463C3.4791 30.6506 3.48941 30.1763 3.51535 29.8545C3.54128 29.5328 3.58253 29.3781 3.68628 29.118C3.93697 28.4894 4.16628 27.9909 4.24425 27.7517C4.30307 27.5713 4.3541 27.4588 4.43675 27.2777C4.61523 26.8866 4.85347 26.5634 5.13816 26.2527C5.34378 26.0282 5.70128 25.6944 5.9541 25.4727C6.33501 25.1386 6.58253 25.0213 6.74878 24.9433C6.83158 24.9045 6.91503 24.8756 7.35972 24.7927C7.80441 24.7097 8.60878 24.5756 9.20878 24.5066C9.80878 24.4375 10.18 24.4375 10.5982 24.4736C11.0163 24.5097 11.47 24.5819 11.7502 24.6191C12.1217 24.6684 12.26 24.6666 12.3483 24.6925C12.4491 24.7221 12.83 24.9666 13.4228 25.3411C13.8572 25.6155 14.2172 25.7391 14.6682 25.8636C14.9623 25.9448 15.3975 26.0294 15.7753 26.0875C16.459 26.1927 16.8535 26.1772 17.1639 26.1049C17.4037 26.049 17.8044 25.9294 18.2075 25.8039C18.6107 25.6784 19.0025 25.5444 19.3024 25.4134C20.0819 25.073 20.3625 24.8244 20.5621 24.6619C20.5938 24.636 20.6244 24.615 20.6249 24.6095C20.6346 24.4964 20.2725 24.9147 19.7441 25.6963C19.358 26.2672 18.8238 27.2513 18.4957 27.8538C17.9394 28.8752 17.9794 29.0719 17.9636 29.2545C17.9407 29.52 17.9169 29.8738 17.8285 30.2694C17.7462 30.6374 17.5007 31.1138 17.3808 31.3116C17.2708 31.4932 17.1669 31.6247 17.1202 31.6767C17.0353 31.7712 16.8138 31.7497 16.4046 31.812C16.1206 31.8553 15.6757 31.8744 14.9625 31.8697C14.2494 31.865 13.28 31.8238 12.3114 31.7458C11.3428 31.6678 10.4044 31.5544 9.61675 31.4959C8.8291 31.4375 8.22066 31.4375 7.87628 31.4427C7.33353 31.4508 7.08441 31.4894 6.49222 31.5155C5.90289 31.5414 5.59441 31.5731 5.43816 31.5263C5.3513 31.5002 5.2816 31.4481 5.21925 31.3963C4.9394 31.1634 5.03128 30.5113 5.16019 30.0356C5.26841 29.6363 5.54691 28.9413 5.71582 28.513C5.94029 27.9438 6.08285 27.7403 6.22285 27.5227C6.44985 27.1697 6.65535 26.8756 7.00222 26.6891C7.25147 26.555 7.66878 26.3788 8.10816 26.2316C8.54753 26.0844 9.00128 25.9813 9.45675 25.9436C9.91222 25.9059 10.3557 25.9369 10.7749 25.9889C11.1941 26.0409 11.5757 26.1131 12.2827 26.2174C12.9897 26.3216 14.0107 26.4556 14.6397 26.5299C15.2688 26.6041 15.475 26.6144 15.7875 26.6455C16.5136 26.7177 16.9994 26.7916 17.1086 26.8124C17.2602 26.8412 17.3744 27.02 17.4893 27.2077C17.5805 27.3567 17.5625 27.7269 17.4591 28.2272C17.3932 28.5459 16.9297 28.8831 16.4721 29.2578C16.2797 29.4153 16.1382 29.4675 15.935 29.5458C15.7319 29.6241 15.4638 29.7169 14.81 29.7956C14.1563 29.8744 13.125 29.9363 11.8771 29.8444C10.6291 29.7525 9.19566 29.505 8.32832 29.3775C7.46097 29.25 7.20316 29.25 7.03941 29.2552C6.61086 29.2687 6.03441 29.5506 5.81785 29.62C5.79304 29.628 5.86378 29.5325 6.19957 29.2428C6.53535 28.9531 7.16441 28.4375 7.67925 28.0584C8.1941 27.6794 8.57566 27.4525 8.82894 27.3099C9.19051 27.1062 9.40535 27.0316 9.60785 26.9744C9.71639 26.9437 9.84128 26.9275 11.091 27.0045C12.3407 27.0816 14.7125 27.2569 15.9499 27.3678C17.1872 27.4788 17.2182 27.52 17.2444 27.5619C17.3374 27.7103 17.3438 27.9463 17.3075 28.1556C17.2999 28.1997 17.2713 28.2388 16.9461 28.5952C16.621 28.9516 15.9919 29.6219 15.6524 29.9724C15.2405 30.3975 15.0632 30.4269 14.7307 30.4894C14.6373 30.5069 14.5538 30.5 13.9132 30.5309C13.2725 30.5619 12.0763 30.6238 10.9135 30.6453C9.75066 30.6669 8.65753 30.6463 8.05832 30.6305C7.20891 30.6081 6.93816 30.5731 6.81816 30.5264C6.55373 30.4235 6.73972 30.0213 6.73957 29.933C6.73948 29.8849 6.78066 29.8344 6.98222 29.6841C7.18378 29.5338 7.55503 29.2863 8.01957 29.0453C8.4841 28.8044 9.03066 28.5775 9.64222 28.3833C10.2538 28.1891 10.9138 28.0344 11.2847 27.9547C11.6557 27.875 11.7175 27.875 11.9505 27.8956C12.1835 27.9163 12.5857 27.9575 13.1125 27.9839C13.6394 28.0103 14.2788 28.0206 14.6907 28.0414C15.2691 28.0706 15.4891 28.1559 15.5982 28.2338C15.8444 28.4095 15.9369 28.5931 16.0258 28.7183C16.1145 28.8432 16.0938 29.4019 16.1197 29.7492C16.1407 30.0306 16.1563 30.1556 16.2288 30.2911C16.3013 30.3844 16.3747 30.4478 16.4371 30.4686C16.4685 30.4791 16.4994 30.4894 16.5625 30.4688" stroke="#F7F1C3" stroke-width="2" stroke-linecap="round"/>
<path d="M10.1249 8.31252C9.91773 8.04345 9.64617 7.54314 9.57304 7.14314C9.46254 6.53869 9.57273 6.06314 9.58836 5.95392C9.61733 5.75137 9.80054 5.15002 10.0876 4.53299C10.1895 4.31398 10.4568 4.11564 10.7023 3.96924C10.9045 3.84859 11.1862 3.66752 11.8098 3.31908C12.2733 3.06005 12.5715 3.12502 12.8726 3.13533C13.0398 3.14106 13.2355 3.16627 14.0326 3.31611C14.8296 3.46595 16.2218 3.74439 17.336 3.89814C18.4502 4.05189 19.2443 4.07252 19.7513 4.07283C20.2584 4.07314 20.4543 4.05252 20.8079 3.99033C21.6693 3.83882 22.2184 3.70845 22.2807 3.69283C22.3116 3.68509 22.343 3.68752 22.3745 3.68236C22.4059 3.6772 22.4368 3.66689 22.4166 3.77502C22.353 4.11663 22.2087 4.41595 22.0637 4.64392C21.9632 4.80185 21.7949 5.03689 21.6171 5.31892C21.2422 5.91357 21.0315 6.30158 20.933 6.43127C20.7825 6.62955 20.5427 6.86314 20.1595 7.26752C19.9017 7.53948 19.4668 7.89877 19.1871 8.12611C18.9074 8.35345 18.7837 8.42564 18.622 8.49892C18.4602 8.57221 18.2643 8.64439 17.6632 8.76408C17.0621 8.88377 16.0618 9.04877 15.232 9.13892C14.4021 9.22908 13.773 9.23939 13.4129 9.24986C12.9802 9.26244 12.6587 9.28127 12.1857 9.27096C11.424 9.25435 11.0737 9.12502 10.6474 9.01095C10.5065 8.97324 10.4274 8.9272 10.3443 8.89611C10.2526 8.86181 10.1568 8.67845 10.063 8.40314C10.0164 8.26607 10.0312 8.11752 10.0982 7.67705C10.1652 7.23658 10.2993 6.50439 10.4354 5.98799C10.6493 5.1762 10.8849 4.8547 10.9732 4.76111C11.1274 4.59764 11.353 4.56314 11.6084 4.47939C11.6642 4.46107 11.7074 4.46877 11.739 4.51002C11.8206 4.61668 11.7505 5.20345 11.6259 6.02549C11.5467 6.54712 11.3755 6.97658 11.2818 7.38783C11.247 7.54062 11.2499 7.58252 11.2705 7.59861C11.4066 7.70474 11.7687 7.28314 12.1963 6.71611C12.4568 6.3707 12.4684 5.80502 12.5152 5.23345C12.5603 4.68413 12.5621 4.39595 12.6296 4.37002C12.7843 4.31056 13.2974 4.21939 13.7748 4.19783C13.9285 4.19088 14.0927 4.31189 14.3159 4.44174C14.5984 4.60615 14.9874 4.71814 15.3824 4.8222C15.5694 4.87148 15.7362 4.88502 16.1409 4.89049C16.5455 4.89595 17.1849 4.88564 17.5401 4.87517C18.0316 4.86068 18.2174 4.82314 18.7893 4.77627C19.0109 4.7581 19.2071 4.71877 19.3945 4.73424C19.6203 4.75289 19.7702 4.94752 19.8484 5.03064C19.8823 5.06678 19.8749 5.11377 19.8543 5.15049C19.8094 5.23042 19.4096 5.63158 18.7857 6.28705C18.5139 6.57263 18.2855 6.71564 18.0657 6.85205C17.8459 6.98845 17.6293 7.10189 17.363 7.2222C16.7933 7.47967 16.3243 7.63502 15.9354 7.71814C15.6928 7.77 15.3505 7.80127 14.9793 7.82767C14.608 7.85408 14.2162 7.86439 13.937 7.85939C13.2261 7.84666 12.938 7.69814 12.7921 7.5372C12.7231 7.46114 12.7084 7.32377 12.7237 7.11111C12.7465 6.79418 13.009 6.3672 13.2276 5.96111C13.3662 5.70367 13.6543 5.56377 13.9102 5.4533C14.0007 5.41423 14.1737 5.45814 14.568 5.55627C14.9624 5.65439 15.5812 5.84002 16.0649 5.99752C16.8836 6.26407 17.2909 6.40627 17.426 6.40111C17.5415 6.39671 17.6246 6.3647 17.687 6.33877C17.7193 6.32529 17.7493 6.30252 17.3837 6.35892C17.018 6.41533 16.2549 6.54939 15.6813 6.62877C14.7468 6.72877 14.3337 6.71908 14.2557 6.6722C14.219 6.65627 14.188 6.65627 14.1562 6.65627" stroke="#F7F1C3" stroke-width="2" stroke-linecap="round"/>
<path d="M29.5247 49.9237C28.9278 49.9204 28.4115 49.4176 28.3982 48.8267C28.3845 48.2141 28.913 47.6865 29.5372 47.6901C30.1713 47.6937 30.6708 48.2081 30.6528 48.839C30.6356 49.4422 30.1315 49.927 29.5247 49.9237Z" fill="#1D3238"/>
<path d="M58.2497 35.0894C57.9341 35.7175 57.4165 35.901 56.7229 35.8988C51.1737 35.88 45.6244 35.8883 40.075 35.8883C39.8784 35.8883 39.6818 35.8883 39.4852 35.8883C39.4793 35.9194 39.4734 35.9506 39.4675 35.9817C39.6301 36.0571 39.7937 36.1306 39.9553 36.208C42.3042 37.3323 43.616 39.1901 43.719 41.7604C43.8125 44.0919 43.7492 46.4298 43.7406 48.7647C43.7377 49.5418 43.2854 49.9905 42.5087 49.9929C39.8284 50.0015 37.1481 50.0007 34.468 49.9933C33.7459 49.9914 33.2347 49.5161 33.229 48.8836C33.223 48.2307 33.7425 47.7596 34.5072 47.7571C36.6023 47.75 38.6974 47.7544 40.7927 47.7542C40.997 47.7542 41.2012 47.7542 41.4433 47.7542C41.4572 47.5529 41.4777 47.3915 41.4779 47.2299C41.4801 45.5299 41.4857 43.8301 41.4776 42.1301C41.4664 39.783 39.8851 38.1026 37.531 37.8862C36.0473 37.7497 34.566 37.5859 33.0873 37.4051C32.767 37.3659 32.6323 37.4441 32.4837 37.7237C31.8034 39.0043 30.7246 39.7013 29.249 39.7014C27.7733 39.7014 26.6945 39.0043 26.0146 37.7236C25.8657 37.443 25.731 37.3668 25.4113 37.4052C23.876 37.5897 22.3362 37.7366 20.7987 37.9034C18.6035 38.1416 17.0419 39.8337 17.0239 42.0178C17.0084 43.9022 17.0208 45.787 17.0208 47.7542C17.2521 47.7542 17.4512 47.7542 17.6501 47.7542C19.7641 47.7544 21.8782 47.7589 23.9922 47.7517C24.5828 47.7497 25.028 47.9588 25.2337 48.5266C25.4854 49.2211 24.9795 49.9779 24.2016 49.9845C21.4272 50.0078 18.6524 50.0017 15.8779 49.9883C15.2759 49.9854 14.7801 49.565 14.7769 48.9892C14.7627 46.4125 14.6594 43.8262 14.8422 41.2611C15.0167 38.81 16.4803 37.1138 18.7489 36.116C18.8443 36.074 18.936 36.0233 19.0138 35.8882C18.8173 35.8882 18.6208 35.8882 18.4244 35.8882C12.8751 35.8882 7.32574 35.88 1.77651 35.8986C1.08318 35.901 0.564273 35.7199 0.25 35.0894C0.25 32.3613 0.25 29.6333 0.25 26.9051C0.28398 26.8216 0.332004 26.7409 0.349975 26.654C0.933819 23.8299 2.64412 22.0396 5.46125 21.3639C6.49845 21.1151 7.58988 21.0867 8.65713 20.9625C9.62336 20.8501 10.5905 20.7444 11.5194 20.6401C11.7086 19.8542 11.5199 19.3586 10.8797 18.8722C9.41193 17.7572 8.54991 16.2203 8.39829 14.3859C8.28623 13.0307 8.35358 11.6616 8.29771 10.3005C8.28442 9.97555 8.16541 9.61235 7.98072 9.34377C6.73963 7.53885 6.50676 5.63184 7.47616 3.67283C8.45144 1.702 10.106 0.641709 12.3387 0.546651C14.0115 0.475506 15.6441 0.763372 17.2603 1.16827C19.0605 1.6192 20.8082 1.48857 22.4987 0.691481C23.4027 0.265211 24.2056 0.748875 24.2306 1.74012C24.2555 2.72956 24.2623 3.72125 24.2247 4.70995C24.1633 6.32521 23.6181 7.76992 22.5863 9.03677C22.4367 9.22046 22.338 9.49861 22.3335 9.73521C22.3089 11.0051 22.3406 12.2759 22.3167 13.5458C22.2761 15.7206 21.4608 17.5728 19.7124 18.9042C19.0497 19.4088 18.9611 19.9231 19.1049 20.6454C20.0561 20.7487 21.0068 20.8519 21.9436 20.9535C23.3031 17.433 26.1752 15.9635 28.5536 15.8235C32.4612 15.5936 35.0671 17.4658 36.5871 20.956C37.5415 20.849 38.4742 20.7444 39.3924 20.6414C39.5454 19.898 39.4273 19.3867 38.7631 18.8963C37.3321 17.8399 36.5418 16.35 36.247 14.5968C36.0866 13.6429 35.8678 12.6982 35.6557 11.7536C35.5209 11.1532 35.3404 10.5628 35.1969 9.96419C33.8124 4.18698 39.0756 -1.09476 44.9278 0.196757C49.5774 1.22282 52.2762 5.68864 51.0818 10.3591C50.7401 11.6957 50.3589 13.0294 50.1343 14.3868C49.8305 16.2237 49.0669 17.792 47.5696 18.9021C46.891 19.405 46.8501 19.9344 46.9655 20.6453C48.6447 20.8276 50.3103 21.0343 51.9812 21.1844C54.8598 21.443 57.1321 23.1932 57.9558 25.8396C58.0653 26.1913 58.1524 26.5498 58.25 26.9053C58.2497 29.6333 58.2497 32.3614 58.2497 35.0894ZM21.4355 23.1615C20.8068 23.0935 20.0931 23.0478 19.3922 22.9285C18.9908 22.8602 18.811 22.956 18.6184 23.321C17.9218 24.6412 16.7882 25.3395 15.2794 25.3263C13.7948 25.3133 12.7031 24.6004 11.9923 23.314C11.9133 23.1711 11.8373 23.0265 11.758 22.8792C10.0426 23.0651 8.35947 23.2685 6.67198 23.4255C4.19887 23.6555 2.52617 25.4293 2.51696 27.8875C2.51047 29.6236 2.5156 31.3596 2.5156 33.0956C2.5156 33.272 2.5156 33.4483 2.5156 33.6162C7.95852 33.6162 13.3089 33.6162 18.7287 33.6162C18.5625 32.2051 19.2381 31.0731 19.8609 29.9219C20.5189 28.7057 21.1704 27.4861 21.8131 26.262C21.8934 26.1089 21.9621 25.9094 21.9347 25.7483C21.791 24.9074 21.6148 24.072 21.4355 23.1615ZM37.0623 23.1617C36.8855 24.0631 36.7099 24.8995 36.5662 25.7413C36.5386 25.903 36.6031 26.1034 36.683 26.2562C37.3073 27.4492 37.938 28.6392 38.5822 29.8219C39.2268 31.0052 39.9292 32.1659 39.7771 33.6093C45.2081 33.6093 50.575 33.6093 55.9646 33.6093C55.9646 31.4838 56.0442 29.3907 55.9408 27.3067C55.8495 25.4701 54.4207 23.8715 52.6325 23.5743C50.6837 23.2506 48.7067 23.0931 46.7559 22.8647C45.3609 26.1369 41.0213 26.1614 39.6123 22.8804C38.7438 22.9762 37.867 23.0729 37.0623 23.1617ZM21.9165 3.39348C21.8818 3.38033 21.8448 3.35223 21.8125 3.35671C21.6826 3.3748 21.5538 3.4011 21.4251 3.42756C20.1014 3.70033 18.7726 3.75817 17.4411 3.49541C16.6108 3.33145 15.7922 3.08006 14.9548 2.98799C13.9125 2.8735 12.8337 2.72777 11.8113 2.8735C10.1093 3.11623 9.03106 4.71354 9.18933 6.44373C9.33612 8.04941 10.8009 9.3484 12.5686 9.38756C13.9815 9.41895 15.3958 9.39967 16.8095 9.39414C20.1572 9.38128 22.445 6.69064 21.9165 3.39348ZM46.6199 9.3363C45.4269 10.2637 44.1178 10.9048 42.6433 11.1656C41.8773 11.3011 41.0685 11.5608 40.5082 10.8254C39.7799 11.0613 39.1217 11.2744 38.4319 11.4975C38.4319 12.2319 38.3931 12.979 38.4395 13.721C38.5609 15.6631 39.5176 17.0912 41.325 17.856C43.1125 18.6124 44.7613 18.2654 46.2968 17.086C48.1306 15.6774 48.7321 11.4699 46.6199 9.3363ZM29.2474 24.1965C28.3187 25.2178 27.2832 25.9765 26.0614 26.4836C25.6165 26.6684 25.0023 26.7951 24.808 27.1383C24.592 27.5199 24.7654 28.1183 24.7729 28.6222C24.7743 28.7151 24.7906 28.8079 24.8033 28.9005C25.0399 30.62 25.9696 31.8437 27.5809 32.4936C29.1995 33.1464 30.7337 32.8843 32.097 31.8065C33.6414 30.5855 33.8479 28.886 33.7313 27.0922C33.7253 26.9994 33.5927 26.8616 33.4943 26.8356C31.8248 26.3947 30.4403 25.5018 29.2474 24.1965ZM10.5888 11.4237C10.5888 12.1698 10.5459 12.9884 10.597 13.8012C10.7379 16.0403 12.3722 17.8364 14.5253 18.1717C16.7509 18.5181 18.8655 17.3617 19.6944 15.3307C20.2632 13.9369 20.0006 12.4853 20.0513 11.0819C16.8861 11.9734 13.7619 11.6778 10.5888 11.4237ZM49.0304 8.67955C49.4265 6.7443 48.2541 4.3363 46.372 3.16181C44.2565 1.84175 41.5784 1.95699 39.5795 3.45401C37.7687 4.81024 36.8222 7.33094 37.4165 9.30655C37.5888 9.28847 37.7733 9.28159 37.9529 9.24841C39.7448 8.91675 41.0956 7.96063 42.041 6.42415C42.4396 5.77637 42.9778 5.57101 43.5508 5.82241C44.1286 6.07605 44.3359 6.60799 44.1334 7.33124C44.0377 7.67322 43.933 8.0128 43.8323 8.35342C43.8797 8.38885 43.9271 8.42442 43.9744 8.45984C44.5489 8.01668 45.148 7.60087 45.6922 7.12394C46.5059 6.4107 47.0174 6.39486 47.7663 7.19C48.2022 7.65259 48.5911 8.15837 49.0304 8.67955ZM24.0417 24.7334C25.7346 24.4369 27.1732 23.427 28.1401 21.876C28.7938 20.8273 29.7119 20.8309 30.3654 21.8903C30.906 22.7668 31.5945 23.5075 32.5058 23.9978C33.1162 24.3261 33.7822 24.5533 34.435 24.8307C35.1013 22.6592 34.2096 20.2709 32.3495 18.9845C30.4437 17.6663 27.871 17.7124 26.0037 19.0978C24.2252 20.4172 23.3885 22.7913 24.0417 24.7334ZM22.5955 29.6161C22.1861 30.3807 21.8518 31.0015 21.5213 31.6243C21.3904 31.8712 21.2481 32.1148 21.1451 32.3732C20.7479 33.37 21.0424 34.5327 21.8652 35.2135C22.0035 35.328 22.1935 35.4752 22.3474 35.4625C23.4307 35.3733 24.5106 35.2461 25.7244 35.1168C25.6111 34.6606 25.6467 34.1009 25.3965 33.9118C23.9771 32.8397 23.046 31.4833 22.5955 29.6161ZM32.9265 35.1274C33.7873 35.2247 34.6435 35.3313 35.5019 35.4156C36.4119 35.5051 36.8268 35.276 37.2422 34.4557C37.6395 33.671 37.6324 32.8765 37.227 32.0954C36.8577 31.3841 36.4762 30.6788 36.094 29.9742C36.0487 29.8907 35.965 29.8274 35.88 29.7339C35.394 31.4669 34.7253 32.6565 33.5407 33.5075C32.9454 33.9353 32.761 34.3886 32.9265 35.1274ZM41.7281 20.4369C41.7281 20.8943 41.6902 21.3594 41.7367 21.8162C41.8107 22.5427 42.4272 23.0741 43.1444 23.0922C43.8845 23.111 44.5434 22.5828 44.6266 21.8365C44.6793 21.3636 44.6365 20.8802 44.6365 20.4369C43.6655 20.4369 42.7336 20.4369 41.7281 20.4369ZM13.8565 20.4434C13.8565 20.8786 13.8259 21.3261 13.8632 21.7679C13.927 22.5243 14.5508 23.0811 15.2933 23.0922C16.0361 23.1032 16.6863 22.5632 16.763 21.8122C16.8098 21.3539 16.7716 20.8871 16.7716 20.4434C15.7996 20.4434 14.8657 20.4434 13.8565 20.4434ZM30.6005 35.0261C29.6717 35.0261 28.8008 35.0261 27.8886 35.0261C27.9421 35.8224 27.6515 36.6995 28.5276 37.2562C28.9956 37.5536 29.4961 37.5557 29.9643 37.2604C30.8393 36.7084 30.5723 35.8336 30.6005 35.0261Z" fill="#1D3238"/>
</g>
<defs>
<clipPath id="clip0_1_722">
<rect width="58" height="50" fill="white" transform="translate(0.25 6.10352e-05)"/>
</clipPath>
</defs>
</svg>
