<svg width="43" height="43" viewBox="0 0 43 43" fill="none" xmlns="http://www.w3.org/2000/svg">
<path d="M14.8635 15.1495C15.809 14.8577 16.339 13.8547 16.0471 12.9092C15.7553 11.9636 14.7523 11.4337 13.8068 11.7256C9.81767 12.9567 5.98951 15.3328 2.42922 18.3393C1.6732 18.9777 1.57786 20.108 2.21628 20.8641C2.85468 21.6202 3.98508 21.7155 4.74111 21.077C8.06897 18.2669 11.4784 16.1943 14.8635 15.1495Z" fill="#F7F1C3"/>
<path d="M29.1969 11.7256C28.2515 11.4337 27.2483 11.9636 26.9566 12.9092C26.6648 13.8547 27.1948 14.8577 28.1402 15.1495C31.5254 16.1943 34.9349 18.2667 38.2626 21.0768C39.0187 21.7153 40.149 21.6199 40.7874 20.8639C41.426 20.1079 41.3305 18.9775 40.5746 18.3391C37.0143 15.3327 33.1859 12.9567 29.1969 11.7256Z" fill="#F7F1C3"/>
<path d="M25.172 20.9483C25.4768 20.0068 26.4869 19.4906 27.4283 19.7954C29.8922 20.5929 32.2307 21.9097 34.3239 23.732C35.0703 24.3817 35.1486 25.5135 34.4987 26.2597C33.8491 27.0061 32.7173 27.0844 31.9711 26.4348C30.2328 24.9215 28.317 23.8494 26.325 23.2046C25.3835 22.9 24.8673 21.8897 25.172 20.9483Z" fill="#F7F1C3"/>
<path d="M17.8271 21.0169C18.1394 21.956 17.6314 22.9702 16.6925 23.2825C14.719 23.9388 12.7879 24.9964 10.9922 26.4688C10.227 27.0962 9.09814 26.9846 8.47071 26.2194C7.84331 25.4542 7.95496 24.3253 8.72013 23.6978C10.841 21.9588 13.1562 20.6824 15.5615 19.8823C16.5005 19.57 17.5148 20.0779 17.8271 21.0169Z" fill="#F7F1C3"/>
<path d="M18.9904 27.9154C19.4054 28.8138 19.0135 29.8784 18.1152 30.2933C17.3502 30.6467 16.65 31.125 16.0498 31.7252C15.3501 32.4251 14.2157 32.4251 13.516 31.7252C12.8163 31.0256 12.8163 29.8911 13.516 29.1915C14.4303 28.2772 15.4845 27.5612 16.6127 27.0402C17.511 26.6253 18.5757 27.0171 18.9904 27.9154Z" fill="#F7F1C3"/>
<path d="M24.0132 27.9154C24.428 27.0171 25.4926 26.6253 26.391 27.0402C27.5192 27.5612 28.5734 28.2772 29.4877 29.1915C30.1873 29.8911 30.1873 31.0256 29.4877 31.7252C28.788 32.4251 27.6535 32.4251 26.9539 31.7252C26.3537 31.125 25.6533 30.6467 24.8885 30.2933C23.9901 29.8784 23.5983 28.8138 24.0132 27.9154Z" fill="#F7F1C3"/>
<path d="M24.9168 6.53638C22.8912 5.58515 20.1155 5.58509 18.0899 6.5364C16.8108 7.13705 16.4439 8.48292 16.6192 9.52439L20.1782 30.6812C20.2872 31.3282 20.8473 31.8021 21.5034 31.8021C22.1595 31.8021 22.7197 31.3282 22.8285 30.6812L26.3876 9.52443C26.5628 8.48292 26.1959 7.13702 24.9168 6.53638Z" fill="#1D3238"/>
<path d="M21.502 33.1458C20.0176 33.1458 18.8145 34.3491 18.8145 35.8333C18.8145 37.3175 20.0176 38.5208 21.502 38.5208H21.5231C23.0073 38.5208 24.2106 37.3175 24.2106 35.8333C24.2106 34.3491 23.0073 33.1458 21.5231 33.1458H21.502Z" fill="#1D3238"/>
</svg>
