<svg width="46" height="59" viewBox="0 0 46 59" fill="none" xmlns="http://www.w3.org/2000/svg">
<path d="M20.1882 18.0643C20.9494 17.2301 21.384 16.9404 21.9106 16.7579C22.3525 16.6048 22.7998 16.5766 23.254 16.5216C24.4586 16.3757 26.285 16.4666 28.0853 16.521C29.6694 16.569 32.6171 16.5396 34.2252 16.5575C36.7746 16.586 38.1563 16.7204 38.5925 16.7754C39.2808 16.8621 40.2256 16.9382 40.6618 17.1015C41.1087 17.2689 41.171 17.8443 41.3164 18.2805C41.4618 18.7167 41.6785 19.1513 41.7706 19.5874C41.8715 20.0658 42.0423 20.5671 42.0973 22.9016C42.1168 23.7314 42.1163 24.2331 42.0973 25.5558C42.0902 26.0504 42.1882 26.3764 42.2421 26.3247C43.2698 25.3386 42.5868 24.3485 42.6059 21.1988C42.6128 20.0592 42.4431 19.4823 42.3157 18.9558C42.2079 18.5106 42.1163 18.0665 41.8446 17.6483C41.7743 17.5401 41.6459 17.4849 41.6262 17.5018C41.3018 17.7812 42.1142 18.6045 42.4774 19.4769C42.8231 20.3071 42.9855 21.5059 43.0775 22.2917C43.1479 22.8929 43.0965 23.6885 43.0415 25.2644C43.0127 26.0901 42.8787 26.6661 42.7333 27.1023C42.5839 27.5505 42.2623 27.9731 41.9715 28.4093C41.7 28.8164 41.2102 28.9184 40.6477 28.9734C40.3015 29.0073 39.4001 29.0644 38.2391 29.0823C36.2812 29.1126 33.5864 29.2451 33.1143 29.2642C32.4585 29.2907 30.587 29.2822 29.4472 29.3905C28.9895 29.4341 28.5765 29.7527 28.1763 30.1518C27.8415 30.4857 27.849 31.0226 27.7036 31.4588C27.6671 31.5682 27.6312 31.676 27.5947 31.7855C27.5582 31.895 27.5222 32.0028 27.7373 31.8247C29.0828 30.7109 29.3345 30.2275 29.6629 30.0266C30.088 29.7664 28.363 30.9485 27.7047 31.26C27.4775 31.3675 27.2685 31.4963 27.0692 31.4609C26.4193 31.3455 26.688 30.1208 26.4516 29.6285C25.7651 28.1986 22.2596 29.3192 21.8235 29.2642C21.3728 29.2074 20.9527 28.9206 20.5345 28.6118C20.1164 28.3031 20.0074 27.6877 19.8799 27.1067C19.6693 26.1462 19.7525 25.4028 19.8429 24.459C19.9664 23.1693 19.8974 22.1681 19.9518 21.519C20.0662 20.1557 20.0063 19.1545 20.1146 18.9193C20.3913 18.3187 20.9484 18.0295 21.3845 17.7566C21.8083 17.4916 22.3642 17.4479 26.163 17.4288C27.6655 17.4213 28.6451 17.5557 30.0855 17.6102C31.3454 17.6578 33.6823 17.6287 34.9396 17.6466C36.8492 17.6739 37.8307 17.7735 38.2097 17.828C38.4788 17.8666 38.9122 17.8465 37.1037 17.7926C35.2952 17.7387 31.2339 17.6309 29.0878 17.5573C26.8326 17.4801 26.4353 17.4108 25.9278 17.4288C25.5603 17.4418 23.9064 17.5198 21.5653 17.5377C20.6245 17.545 20.4071 17.6287 20.1898 17.6646C19.9505 17.7042 19.7895 17.9543 19.6986 18.1716C19.6557 18.2741 19.7155 18.3889 19.7879 18.4624C19.9359 18.6126 20.4746 18.6808 22.9605 18.7897C25.0494 18.8812 28.8248 18.8267 30.9306 18.8087C33.0364 18.7908 33.3599 18.7548 34.1914 18.7363C37.8661 18.6545 38.446 18.537 39.1904 18.482C39.4678 18.4615 39.6822 18.3192 39.8635 18.2821C40.414 18.1697 40.0819 19.478 40.1369 20.4566C40.176 21.1525 40.2997 22.0178 40.3547 23.8295C40.3839 24.7921 40.6635 25.3592 40.7718 25.8858C40.8661 26.3439 40.9532 26.775 40.9363 27.6452C40.9326 27.837 40.7746 27.9012 40.701 27.8124C40.1953 27.2018 40.4108 25.8057 40.3188 24.5483C40.2613 23.7627 40.1559 23.1134 40.0285 22.4959C39.8811 21.7814 39.8292 21.3338 39.4671 20.8072C39.2854 20.5431 39.0309 20.4244 38.9035 20.2981C38.5406 19.9383 39.5722 19.5542 40.0084 19.3898C40.1122 19.3506 40.2256 19.3713 40.3351 19.4431C40.8332 19.7702 40.7724 20.8524 40.8628 21.7455C40.9444 22.5519 40.9172 23.218 40.9717 23.5436C41.0018 23.724 40.9902 23.9412 41.1519 23.7288C41.7498 22.9437 42.0063 22.0232 42.0608 21.6971C42.1028 21.4456 42.0074 21.2238 41.8446 20.9886C41.6533 20.7121 41.4269 20.5333 41.1737 20.4609C40.8535 20.3693 39.8009 20.3515 38.4221 20.3335C37.7599 20.3249 36.2482 20.2425 33.2265 20.3683C31.5671 20.4374 29.6656 20.7457 28.1272 20.8753C25.4809 21.0983 24.1471 20.969 23.5513 20.9145C21.6851 20.7439 21.1705 20.7152 20.7703 20.4435C20.6735 20.3778 20.6608 20.2447 20.6783 20.1353C20.7152 19.9033 20.9135 19.6991 21.0763 19.5177C21.464 19.086 22.6517 19.2994 24.2663 19.2803C26.2042 19.2574 28.8989 19.4431 29.4467 19.57C29.7351 19.6368 28.2302 19.8396 26.8323 19.9681C25.4344 20.0966 23.6014 20.1685 22.4954 20.2594C21.3894 20.3504 21.066 20.4582 20.8814 20.5676C20.6151 20.7255 20.5879 21.0398 20.5514 21.3115C20.5343 21.4383 20.5868 21.5473 20.749 21.6388C20.9113 21.7303 21.1989 21.8022 22.1736 21.8931C23.1484 21.984 24.8016 22.0919 26.5339 22.1294C28.2661 22.167 30.0272 22.1311 31.1321 22.0766C32.6358 22.0025 33.6507 21.8762 34.6483 21.8582C35.8691 21.8363 37.1761 21.6954 37.8835 21.6404C38.1608 21.6189 38.5909 21.5495 39.1529 21.6932C40.189 21.9583 39.7922 23.4685 39.7018 24.3594C39.6742 24.6309 39.6833 24.9911 39.5754 25.1942C39.3869 25.5495 37.7359 25.2546 35.6138 24.9279C34.4702 24.7518 33.4459 24.7449 31.369 24.636C29.9763 24.563 27.8904 24.599 26.7087 24.617C24.8011 24.646 23.5709 24.599 22.9126 24.5086C22.4771 24.4488 21.8981 24.3093 21.3878 24.1639C21.2769 24.1323 21.1705 24.0915 21.097 24.019C21.0235 23.9466 20.9876 23.8388 21.023 23.7114C21.212 23.0309 22.5058 22.8216 23.5971 22.6391C23.817 22.6024 23.9608 22.5667 26.2093 22.5662C28.4578 22.5656 32.8066 22.6016 35.1188 22.6021C37.575 22.6027 38.4417 22.5297 39.4769 22.5656C39.7951 22.5767 39.6854 22.6734 39.4682 22.7464C38.9375 22.9246 38.3426 22.9653 35.9667 23.0731C33.8418 23.1696 29.8529 23.3966 27.69 23.5257C25.3099 23.6677 24.7657 23.7277 24.2217 23.7457C24.0005 23.753 23.8933 23.7996 26.3357 23.7103C28.778 23.621 33.7737 23.4053 36.4012 23.2942C39.0287 23.1831 39.1365 23.1831 39.1921 23.255C39.2476 23.3269 39.2476 23.4707 39.2117 23.5986C39.1757 23.7266 39.1039 23.8344 38.8871 23.89C37.7926 24.1705 37.2883 24.0544 37.2328 24.0365C36.9727 23.9523 38.3698 23.9455 39.35 23.9994C39.6871 24.018 39.6833 24.1612 39.6294 24.3784C39.3649 25.4442 39.1757 26.0127 38.904 26.5033C38.8413 26.6165 38.7052 26.6313 37.284 26.6139C35.8627 26.5964 33.1312 26.5245 31.5982 26.4695C29.8126 26.4055 28.5841 26.3416 27.0419 26.3595C26.3244 26.3679 24.7406 26.4505 22.5085 26.4145C21.7133 26.4017 21.6062 26.3067 21.5327 26.1978C21.2304 25.7499 21.2773 25.2187 21.2773 25.2508C21.2773 25.5345 21.2773 26.3612 21.2773 26.4636C21.2773 27.0081 21.3851 25.1446 21.6203 24.9633C22.8121 24.0447 25.8102 24.9606 26.8464 25.0526C27.0485 25.0705 27.1563 25.1065 28.6315 25.125C30.1067 25.1435 32.946 25.1435 34.3548 25.1795C35.7636 25.2154 35.6557 25.2873 35.4385 25.3603C34.9078 25.5385 33.8456 25.5792 32.6307 25.5972C31.8812 25.6083 31.1566 25.6881 29.6939 25.7959C27.175 25.9816 25.454 26.3416 24.9481 26.3955C24.1429 26.4813 23.5655 26.7042 23.3482 26.7407C23.2403 26.7589 23.1309 26.7053 23.0395 26.6149C22.8364 26.4143 22.7661 26.1248 22.7835 25.8896C22.8329 25.2232 23.743 25.1087 23.8911 24.9448C24.8526 23.8808 21.9699 25.3962 21.5147 25.6146C21.0388 25.8428 20.8068 26.5202 20.7142 26.9934C20.5723 27.7189 22.6844 27.6485 23.4718 27.5581C23.7419 27.5271 24.1068 27.5037 25.0625 27.4492C27.0573 27.3355 28.644 27.4666 30.4274 27.5211C31.9228 27.5667 34.6189 27.5396 36.0614 27.5216C37.6126 27.5023 38.4417 27.4307 39.4949 27.4846C39.8331 27.5019 39.7573 27.6463 39.6664 27.7198C39.4899 27.8625 38.6018 28.0101 36.6136 28.2279C35.3853 28.3625 33.691 28.302 32.659 28.3199C30.6452 28.355 29.5589 28.4828 28.1801 28.5378C27.7393 28.5554 27.0191 28.6287 26.2017 28.6467C26.0568 28.6499 27.2565 28.7376 28.7644 28.7736C29.1954 28.7838 28.9424 28.8814 28.741 28.9184C28.0704 29.0417 27.4874 29.1733 27.0512 29.3361C26.847 29.4123 26.3994 28.4555 25.6038 26.6999C24.1345 23.4576 23.5296 23.1853 23.2932 22.7312C22.961 22.0927 22.2596 22.0222 21.7875 21.7145C21.6258 21.6091 21.4624 21.4079 21.3159 21.3153C21.0872 21.1707 20.5192 21.4024 19.8658 21.8005C19.1335 22.2466 19.7525 23.4315 19.8249 24.0528C19.8376 24.1615 19.7895 24.2701 19.7531 24.3795C19.7166 24.489 19.6806 24.5968 19.6621 24.3109C19.5447 22.4985 19.7525 20.4059 19.8609 19.1551C19.9057 18.6373 20.0422 18.0665 20.2056 17.6303C20.3859 17.1488 20.7676 16.7596 21.1667 16.5581C21.6229 16.3278 23.8367 16.4306 25.6103 16.521C27.4096 16.6128 28.7094 16.6485 30.0381 16.7389C31.7072 16.8524 32.9297 16.7214 33.6322 16.667C35.3001 16.5377 36.5238 16.6125 37.3161 16.5581C40.6904 16.3262 41.2777 16.6485 41.751 16.7568C41.9742 16.808 42.1512 16.9741 42.2781 17.1914C42.5073 17.5839 42.4779 18.0621 42.5329 19.1311C42.5679 19.8099 42.6958 20.4582 42.7148 23.823C42.72 24.7421 42.6239 25.1414 42.57 25.522C42.4867 26.11 41.611 26.4113 41.1732 26.9025C40.7177 27.4135 40.5916 27.936 40.5725 28.59C40.565 28.8499 40.6635 29.0633 40.6096 29.2446C40.4893 29.6492 39.7944 29.5719 38.9628 29.6993C37.5756 29.9119 36.5259 29.6819 36.1649 29.6274C35.5233 29.5307 34.9293 29.6449 32.824 29.6993C30.899 29.7491 27.2325 29.7178 25.2901 29.6999C22.9474 29.6782 22.3686 29.537 21.9324 29.3916C21.8229 29.3551 21.7151 29.3192 21.6416 29.2468C21.3289 28.9388 21.3143 28.4131 21.1689 27.9589C20.981 27.3718 20.8787 26.7794 20.7333 26.2528C20.5971 25.7595 20.5149 25.2546 20.3341 24.5473C20.211 24.0656 20.1882 23.5491 20.0978 23.0579C20.0018 22.5367 19.9703 22.0962 19.862 21.66C19.7282 21.1215 19.6806 20.4625 19.6256 19.484C19.5717 19.1556 19.5706 18.9367 19.6431 18.7194C19.6795 18.61 19.7155 18.5021 19.9703 18.1732" stroke="#F7F1C3" stroke-width="2" stroke-linecap="round"/>
<path d="M32.5495 34.3583V53.0871C32.5495 55.4587 30.6232 57.3813 28.2469 57.3813H6.3026C3.92631 57.3813 2 55.4587 2 53.0871V5.91293C2 3.54127 3.92631 1.61871 6.3026 1.61871H28.2469C30.6232 1.61871 32.5495 3.54127 32.5495 5.91293V12.2195" stroke="#1D3238" stroke-width="2.2" stroke-miterlimit="10" stroke-linecap="round" stroke-linejoin="round"/>
<path d="M2 7.65146H32.5495" stroke="#1D3238" stroke-width="2.2" stroke-miterlimit="10" stroke-linecap="round" stroke-linejoin="round"/>
<path d="M2 48.4137H32.5495" stroke="#1D3238" stroke-width="2.2" stroke-miterlimit="10" stroke-linecap="round" stroke-linejoin="round"/>
<path d="M15.1509 52.653H19.3984" stroke="#1D3238" stroke-width="2.2" stroke-miterlimit="10" stroke-linecap="round" stroke-linejoin="round"/>
<path d="M39.9903 15.0308H22.4241C20.2096 15.0308 18.4144 16.8225 18.4144 19.0326V26.9595C18.4144 29.1696 20.2096 30.9613 22.4241 30.9613H26.2779V35.6468L30.9725 30.9613H39.9903C42.2048 30.9613 44 29.1696 44 26.9595V19.0326C44 16.8225 42.2048 15.0308 39.9903 15.0308Z" stroke="#1D3238" stroke-width="2.2" stroke-miterlimit="10" stroke-linecap="round" stroke-linejoin="round"/>
</svg>
