<svg width="54" height="54" viewBox="0 0 54 54" fill="none" xmlns="http://www.w3.org/2000/svg">
<g clip-path="url(#clip0_1_639)">
<path d="M27.2498 29.8751C28.076 29.3388 30.4898 27.2601 31.4973 26.377C32.0763 25.8694 32.5798 25.2951 33.351 24.7107C34.1391 24.1136 34.8698 23.2551 35.581 22.7307C36.2324 22.2505 36.9973 21.5026 37.4979 21.1057C38.0192 20.6924 38.6623 20.0876 41.3435 18.0082C42.4592 17.143 43.1198 16.3801 44.0379 15.5657C45.043 14.6742 45.4148 14.1276 45.8523 13.627C46.241 13.1821 46.4148 12.6276 46.5004 12.2095C46.6401 11.527 44.6748 13.3276 43.5654 14.3301C42.8494 14.9771 42.2123 15.9126 41.8341 16.5813C41.4851 17.1986 40.9598 17.8726 40.5223 18.3732C40.0425 18.9222 38.0998 21.0251 36.856 22.1445C36.1529 22.7773 35.3773 23.4151 34.2335 24.3088C33.4625 24.9113 32.7548 25.6201 32.0023 26.6007C31.412 27.3699 31.0023 27.8726 30.5016 28.2488C30.0207 28.6103 29.5023 28.9151 28.8979 29.332C28.7584 29.4281 28.6273 29.4576 28.5635 29.5613C28.4998 29.6651 28.4998 29.8301 28.5616 29.977C28.8159 30.5805 29.5373 31.1626 30.1229 31.6238C30.2415 31.7173 30.3723 31.7901 30.4979 31.812C31.1302 31.9221 31.9123 30.7951 32.6016 30.1276C34.1078 28.6692 36.2898 26.2526 36.9348 25.6482C37.4522 25.1634 38.5748 24.2151 39.4973 23.3982C40.3253 22.665 41.3298 21.7526 41.9766 21.0651C42.4226 20.5911 43.0373 20.0451 44.681 18.4438C45.4885 17.6572 45.8723 17.2101 46.456 16.6482C46.7023 16.4112 46.956 16.0438 47.2891 15.6695C47.833 15.0582 47.4173 13.8776 47.3123 13.5007C47.1745 13.0063 48.5773 14.3726 49.2279 14.5626C49.7092 14.7032 48.1698 13.6701 47.6266 13.127C47.501 13.0013 47.3773 12.8776 47.3341 12.9582C46.9607 13.6563 47.4573 14.2476 47.3341 14.7688C47.1704 15.4619 46.6273 15.9551 46.1473 16.602C45.7415 17.1489 45.0448 17.6226 44.4398 18.0401C43.5877 18.6281 42.7548 19.1226 41.9616 19.5188C41.1513 19.9237 40.5023 20.4988 39.3023 21.2638C38.334 21.8811 36.6998 23.0601 35.6023 23.882C33.3019 25.6047 33.0023 26.2476 32.211 27.0595C31.7028 27.5809 31.2523 28.1226 30.876 28.727C30.7081 28.9966 30.5423 29.2488 30.376 29.4982C30.2923 29.6238 30.2098 29.7476 30.5798 29.5226C32.8636 28.1338 33.4948 27.1301 34.3923 26.3363C35.2668 25.5629 35.6648 25.1276 36.1229 24.7101C36.7343 24.1529 37.3298 23.4201 38.0585 22.6913C39.5193 21.2306 40.2048 20.5876 41.1198 19.7545C43.3029 17.7666 44.9098 16.4651 45.6229 15.8351C45.8723 15.5451 46.1235 15.2513 46.3523 15.002C46.4573 14.8763 46.5398 14.7526 46.8748 14.3751" stroke="#F7F1C3" stroke-width="2" stroke-linecap="round"/>
<path d="M24.9844 36.8277L31.0357 35.2784C31.239 35.243 31.4262 35.1453 31.5715 34.9989L52.6376 13.9212C53.1974 13.36 53.5118 12.5997 53.5118 11.807C53.5118 11.0143 53.1974 10.254 52.6376 9.69283L50.9369 7.98635C50.6591 7.70752 50.3286 7.4867 49.9646 7.33672C49.6007 7.18674 49.2105 7.1106 48.8169 7.11272C48.4243 7.11137 48.0352 7.18789 47.6724 7.33785C47.3095 7.4878 46.9799 7.70822 46.7027 7.98635L43.2082 11.4809V4.89371C43.2075 4.34281 43.098 3.79747 42.8861 3.28894C42.6743 2.78041 42.3641 2.31868 41.9735 1.93022C41.5829 1.54175 41.1194 1.23418 40.6097 1.02513C40.1 0.816077 39.5541 0.709651 39.0032 0.711951H5.37439C4.26579 0.713491 3.20304 1.15456 2.41914 1.93846C1.63524 2.72236 1.19417 3.78511 1.19263 4.89371V41.3764C1.19417 42.485 1.63524 43.5477 2.41914 44.3316C3.20304 45.1155 4.26579 45.5566 5.37439 45.5581H21.3443L31.4026 52.751C31.5549 52.8602 31.7342 52.9253 31.9211 52.9392C32.1079 52.9531 32.2949 52.9152 32.4617 52.8298C32.6284 52.7443 32.7683 52.6145 32.8661 52.4547C32.9639 52.2949 33.0157 52.1113 33.0159 51.9239V45.5581H39.0032C40.1118 45.5566 41.1745 45.1155 41.9584 44.3316C42.7423 43.5477 43.1834 42.485 43.1849 41.3764V29.827C43.1849 29.5567 43.0776 29.2974 42.8864 29.1063C42.6953 28.9152 42.436 28.8078 42.1657 28.8078C41.8954 28.8078 41.6361 28.9152 41.445 29.1063C41.2539 29.2974 41.1465 29.5567 41.1465 29.827V41.3764C41.1465 41.6578 41.091 41.9365 40.9833 42.1966C40.8756 42.4566 40.7177 42.6929 40.5187 42.8919C40.3197 43.0909 40.0834 43.2488 39.8234 43.3565C39.5633 43.4642 39.2846 43.5196 39.0032 43.5196H30.3601C30.0898 43.5196 29.8305 43.627 29.6394 43.8182C29.4483 44.0093 29.3409 44.2686 29.3409 44.5389C29.3409 44.8092 29.4483 45.0684 29.6394 45.2596C29.8305 45.4507 30.0898 45.5581 30.3601 45.5581H30.9775V49.9437L22.2412 43.706C22.0711 43.5851 21.8675 43.5199 21.6588 43.5196H5.35109C5.06963 43.5196 4.79092 43.4642 4.53088 43.3565C4.27085 43.2488 4.03457 43.0909 3.83555 42.8919C3.63653 42.6929 3.47865 42.4566 3.37094 42.1966C3.26323 41.9365 3.20779 41.6578 3.20779 41.3764V4.89371C3.20778 4.61028 3.26398 4.32966 3.37314 4.06809C3.48231 3.80652 3.64227 3.5692 3.84376 3.36987C4.04526 3.17054 4.28429 3.01316 4.54702 2.90683C4.80976 2.80049 5.09097 2.74733 5.37439 2.75041H39.0032C39.5716 2.75041 40.1168 2.97622 40.5187 3.37817C40.9207 3.78012 41.1465 4.32527 41.1465 4.89371V13.5426L25.6367 29.0524C25.4915 29.1986 25.394 29.3855 25.3571 29.5882L23.738 35.5696C23.6866 35.7424 23.6832 35.9259 23.7284 36.1004C23.7736 36.2748 23.8655 36.4337 23.9943 36.5598C24.1232 36.6846 24.2816 36.7746 24.4548 36.8214C24.6279 36.8683 24.8102 36.8704 24.9844 36.8277ZM46.4174 11.1547L49.4692 14.2066L30.8319 32.8439L27.78 29.7979L46.4174 11.1547ZM26.9238 31.7839L28.8225 33.6826L26.1842 34.399L26.9238 31.7839ZM48.8169 9.15118C48.9424 9.15081 49.0667 9.17533 49.1827 9.22331C49.2987 9.2713 49.404 9.3418 49.4925 9.43074L51.1932 11.1314C51.2818 11.2196 51.352 11.3244 51.4 11.4399C51.448 11.5553 51.4726 11.6791 51.4726 11.8041C51.4726 11.9291 51.448 12.0529 51.4 12.1683C51.352 12.2838 51.2818 12.3886 51.1932 12.4768L50.9078 12.7622L47.8617 9.71613L48.1471 9.43074C48.2342 9.34144 48.3384 9.27065 48.4535 9.22261C48.5686 9.17457 48.6922 9.15028 48.8169 9.15118Z" fill="#1D3238"/>
<path d="M10.8083 11.0207H19.1136C19.3839 11.0207 19.6431 10.9133 19.8343 10.7222C20.0254 10.5311 20.1328 10.2718 20.1328 10.0015C20.1328 9.73118 20.0254 9.47194 19.8343 9.28079C19.6431 9.08965 19.3839 8.98227 19.1136 8.98227H10.8083C10.538 8.98227 10.2787 9.08965 10.0876 9.28079C9.89644 9.47194 9.78906 9.73118 9.78906 10.0015C9.78906 10.2718 9.89644 10.5311 10.0876 10.7222C10.2787 10.9133 10.538 11.0207 10.8083 11.0207Z" fill="#1D3238"/>
<path d="M29.935 11.0207C30.2053 11.0207 30.4645 10.9133 30.6557 10.7222C30.8468 10.5311 30.9542 10.2718 30.9542 10.0015C30.9542 9.73118 30.8468 9.47194 30.6557 9.28079C30.4645 9.08965 30.2053 8.98227 29.935 8.98227H23.5866C23.3163 8.98227 23.0571 9.08965 22.8659 9.28079C22.6748 9.47194 22.5674 9.73118 22.5674 10.0015C22.5674 10.2718 22.6748 10.5311 22.8659 10.7222C23.0571 10.9133 23.3163 11.0207 23.5866 11.0207H29.935Z" fill="#1D3238"/>
<path d="M10.8083 19.5532H14.728C14.9983 19.5532 15.2575 19.4458 15.4487 19.2546C15.6398 19.0635 15.7472 18.8043 15.7472 18.5339C15.7472 18.2636 15.6398 18.0044 15.4487 17.8132C15.2575 17.6221 14.9983 17.5147 14.728 17.5147H10.8083C10.538 17.5147 10.2787 17.6221 10.0876 17.8132C9.89644 18.0044 9.78906 18.2636 9.78906 18.5339C9.78906 18.8043 9.89644 19.0635 10.0876 19.2546C10.2787 19.4458 10.538 19.5532 10.8083 19.5532Z" fill="#1D3238"/>
<path d="M23.2081 27.0838C23.2081 26.8135 23.1007 26.5542 22.9095 26.3631C22.7184 26.172 22.4592 26.0646 22.1888 26.0646H18.6419C18.3716 26.0646 18.1123 26.172 17.9212 26.3631C17.7301 26.5542 17.6227 26.8135 17.6227 27.0838C17.6227 27.3541 17.7301 27.6134 17.9212 27.8045C18.1123 27.9957 18.3716 28.103 18.6419 28.103H22.1888C22.4592 28.103 22.7184 27.9957 22.9095 27.8045C23.1007 27.6134 23.2081 27.3541 23.2081 27.0838Z" fill="#1D3238"/>
<path d="M10.8083 36.6413H20.6046C20.8749 36.6413 21.1341 36.5339 21.3253 36.3428C21.5164 36.1516 21.6238 35.8924 21.6238 35.6221C21.6238 35.3518 21.5164 35.0925 21.3253 34.9014C21.1341 34.7102 20.8749 34.6028 20.6046 34.6028H10.8083C10.538 34.6028 10.2787 34.7102 10.0876 34.9014C9.89644 35.0925 9.78906 35.3518 9.78906 35.6221C9.78906 35.8924 9.89644 36.1516 10.0876 36.3428C10.2787 36.5339 10.538 36.6413 10.8083 36.6413Z" fill="#1D3238"/>
<path d="M35.7474 11.0207C36.0177 11.0207 36.277 10.9133 36.4681 10.7222C36.6592 10.5311 36.7666 10.2718 36.7666 10.0015C36.7666 9.73118 36.6592 9.47194 36.4681 9.28079C36.277 9.08965 36.0177 8.98227 35.7474 8.98227H33.7905C33.5202 8.98227 33.2609 9.08965 33.0698 9.28079C32.8786 9.47194 32.7712 9.73118 32.7712 10.0015C32.7712 10.2718 32.8786 10.5311 33.0698 10.7222C33.2609 10.9133 33.5202 11.0207 33.7905 11.0207H35.7474Z" fill="#1D3238"/>
<path d="M30.9541 18.5456C30.9541 18.2753 30.8467 18.016 30.6556 17.8249C30.4645 17.6337 30.2052 17.5263 29.9349 17.5263H18.869C18.7351 17.5263 18.6026 17.5527 18.4789 17.6039C18.3553 17.6551 18.2429 17.7302 18.1483 17.8249C18.0536 17.9195 17.9785 18.0319 17.9273 18.1555C17.8761 18.2792 17.8497 18.4117 17.8497 18.5456C17.8497 18.6794 17.8761 18.812 17.9273 18.9356C17.9785 19.0593 18.0536 19.1716 18.1483 19.2663C18.2429 19.3609 18.3553 19.436 18.4789 19.4872C18.6026 19.5384 18.7351 19.5648 18.869 19.5648H29.9349C30.2052 19.5648 30.4645 19.4574 30.6556 19.2663C30.8467 19.0751 30.9541 18.8159 30.9541 18.5456Z" fill="#1D3238"/>
<path d="M13.9826 26.0646H11.816C11.5457 26.0646 11.2864 26.172 11.0953 26.3631C10.9041 26.5542 10.7968 26.8135 10.7968 27.0838C10.7968 27.3541 10.9041 27.6134 11.0953 27.8045C11.2864 27.9957 11.5457 28.103 11.816 28.103H14.0117C14.282 28.103 14.5413 27.9957 14.7324 27.8045C14.9235 27.6134 15.0309 27.3541 15.0309 27.0838C15.0309 26.8135 14.9235 26.5542 14.7324 26.3631C14.5413 26.172 14.282 26.0646 14.0117 26.0646H13.9826Z" fill="#1D3238"/>
</g>
<defs>
<clipPath id="clip0_1_639">
<rect width="53" height="53" fill="white" transform="translate(0.75 0.333374)"/>
</clipPath>
</defs>
</svg>
