<svg width="217" height="151" viewBox="0 0 217 151" fill="none" xmlns="http://www.w3.org/2000/svg">
<ellipse cx="145.252" cy="70.8152" rx="71.2523" ry="70.8152" fill="#ACD2DD"/>
<path d="M93.3102 21.0672L95.287 23.2483L97.2639 21.0672L95.287 18.8861L93.3102 21.0672ZM95.3769 24.5372C95.287 24.5372 95.1073 24.438 95.0175 24.3389L92.3218 21.3646C92.1421 21.1664 92.1421 20.7698 92.3218 20.5715L95.0175 17.5973C95.1972 17.399 95.5566 17.399 95.7363 17.5973L98.432 20.5715C98.6117 20.7698 98.6117 21.1664 98.432 21.3646L95.7363 24.3389C95.5566 24.5372 95.4667 24.5372 95.3769 24.5372Z" fill="#193C48"/>
<ellipse cx="151.567" cy="92.7333" rx="34" ry="33.5" fill="#FFF9CD" fill-opacity="0.4"/>
<path d="M202.892 51.7671H196.334C195.982 51.7671 195.748 51.3804 195.748 50.8004C195.748 50.2204 195.982 49.8337 196.334 49.8337H202.892C203.243 49.8337 203.477 50.2204 203.477 50.8004C203.595 51.3804 203.243 51.7671 202.892 51.7671Z" fill="#94DCEC"/>
<g clip-path="url(#clip0_423_87234)">
<path d="M172.308 150.196H160.085C159.522 150.196 159.067 149.74 159.067 149.178C159.067 148.615 159.522 148.159 160.085 148.159H165.178V62.4185C165.178 59.0487 162.437 56.3074 159.067 56.3074C155.697 56.3074 152.956 59.0487 152.956 62.4185V63.5184C156.405 64.0153 159.067 66.982 159.067 70.5667C159.067 71.1292 158.611 71.5852 158.048 71.5852H155.867C155.411 73.3373 153.83 74.6408 151.937 74.6408C150.044 74.6408 148.463 73.3373 148.008 71.5852H145.826C145.263 71.5852 144.808 71.1292 144.808 70.5667C144.808 66.982 147.47 64.0153 150.919 63.5184V62.4185C150.919 57.9257 154.574 54.2704 159.067 54.2704C163.56 54.2704 167.215 57.9257 167.215 62.4185V148.159H172.308C172.871 148.159 173.326 148.615 173.326 149.178C173.326 149.74 172.871 150.196 172.308 150.196ZM151.937 72.6037C152.688 72.6037 153.337 72.1911 153.691 71.5852H150.184C150.537 72.1911 151.187 72.6037 151.937 72.6037ZM146.947 69.5482H156.927C156.454 67.2267 154.397 65.4741 151.937 65.4741C149.478 65.4741 147.421 67.2267 146.947 69.5482Z" fill="#193C48"/>
<path d="M153.691 71.5852C153.337 72.1911 152.688 72.6037 151.937 72.6037C151.187 72.6037 150.537 72.1911 150.183 71.5852H153.691Z" fill="#F7F1C3"/>
<path d="M156.927 69.5482H146.947C147.42 67.2267 149.477 65.4741 151.937 65.4741C154.397 65.4741 156.454 67.2267 156.927 69.5482Z" fill="#F7F1C3"/>
</g>
<path d="M62.0729 82.5065C63.2179 81.7399 64.172 80.9732 64.9353 80.0149C58.4472 76.1818 54.249 68.8987 54.249 60.8491C54.249 60.0824 54.249 59.5075 54.4398 58.7408C47.7608 59.3158 42.6085 64.8739 42.6085 71.5819C42.6085 78.6733 48.3333 84.4231 55.3939 84.4231C57.1114 84.4231 58.8288 84.0398 60.3555 83.4648L51.959 70.2403C51.5774 69.857 51.7682 69.0904 52.3407 68.8987C52.7223 68.5154 53.4857 68.7071 53.6765 69.282L62.0729 82.5065ZM75.6217 103.589V83.0815C72.5684 82.8898 69.5152 82.1232 67.0344 80.7816C65.8895 82.1232 64.7445 83.2731 63.4087 84.0398L75.6217 103.589ZM77.53 80.9732C88.2163 80.3982 96.8036 71.5819 96.8036 60.6574C96.8036 49.5412 87.6438 40.3416 76.5758 40.3416C65.5078 40.3416 56.3481 49.5412 56.3481 60.6574C56.3481 71.5819 64.9353 80.3982 75.6217 80.9732V52.9911C75.6217 52.4161 76.0033 52.0328 76.5758 52.0328C77.1483 52.0328 77.53 52.4161 77.53 52.9911V80.9732ZM100.62 93.8144C100.62 89.4062 96.9944 85.7647 92.6054 85.7647C88.2163 85.7647 84.5906 89.4062 84.5906 93.8144C84.5906 95.9226 85.3539 97.8392 86.6897 99.1808L92.987 90.7478C93.3687 90.3645 93.9412 90.1728 94.5136 90.5562C94.8953 90.9395 95.0861 91.5144 94.7045 92.0894L88.4072 100.522C89.743 101.289 91.0787 101.864 92.7962 101.864C96.9944 101.864 100.62 98.2225 100.62 93.8144ZM92.6054 83.6564C98.1394 83.6564 102.719 88.2562 102.719 93.8144C102.719 99.3724 98.1394 103.972 92.6054 103.972C90.5063 103.972 88.598 103.397 87.0714 102.247L77.7208 114.705V147.479C77.7208 148.054 77.3391 148.437 76.7667 148.437C76.1942 148.437 75.8125 148.054 75.8125 147.479V107.23L61.6913 84.9981C59.783 85.7647 57.6839 86.3397 55.5848 86.3397C47.3792 86.3397 40.7002 79.6316 40.7002 71.3903C40.7002 63.3406 46.9975 56.8242 55.0123 56.4409C56.9206 46.0914 66.0803 38.2334 76.9575 38.2334C89.1705 38.2334 99.2843 48.1996 99.2843 60.6574C99.2843 72.7319 89.7429 82.5065 78.1024 83.0815V111.255L85.9264 100.906C84.2089 98.9891 83.064 96.4976 83.064 93.8144C82.6823 88.2562 87.0714 83.6564 92.6054 83.6564Z" fill="#193C48"/>
<path d="M93.1204 84.6349C97.3158 84.6349 100.782 88.5707 100.782 93.3352C100.782 98.0996 97.3158 102.035 93.1204 102.035C91.6612 102.035 90.2019 101.621 88.925 100.585L94.9445 91.4708C95.3093 91.0565 95.1269 90.2279 94.7621 89.8136C94.3973 89.3993 93.6677 89.6065 93.3028 90.0208L87.2834 99.1354C86.0065 97.6853 85.2769 95.6138 85.2769 93.3352C85.4593 88.5707 88.925 84.6349 93.1204 84.6349Z" fill="#7DCC7A"/>
<path d="M96.9046 60.4674C96.9046 71.3838 88.2654 80.1935 77.5145 80.7681V52.6152C77.5145 52.0407 77.1305 51.6577 76.5546 51.6577C75.9786 51.6577 75.5947 52.0407 75.5947 52.6152V80.7681C64.8437 80.1935 56.2046 71.3838 56.2046 60.4674C56.2046 49.3595 65.4197 40.1667 76.5546 40.1667C87.6895 40.1667 96.9046 49.1679 96.9046 60.4674Z" fill="#57A556"/>
<path d="M65.8953 80.1909C64.9099 81.2009 63.9244 82.2109 62.9389 82.8169L54.0697 68.6771C53.6755 68.2731 53.0842 68.0711 52.69 68.2731C52.0987 68.6771 52.0987 69.2831 52.2958 69.6871L60.968 83.6249C59.3912 84.2309 57.6174 84.6349 55.8435 84.6349C48.551 84.6349 42.6382 78.575 42.6382 71.1011C42.6382 64.0312 48.1568 58.1733 54.858 57.5673C54.858 58.3753 54.6609 58.9813 54.6609 59.7892C54.6609 68.6771 59.1941 76.151 65.8953 80.1909Z" fill="#A0BC79"/>
<path d="M173.797 124.86C176.325 124.86 178.473 127.113 178.473 129.765V130.163V130.295V130.693C178.6 131.091 178.979 131.223 179.358 131.091C179.864 130.958 180.243 130.826 180.749 130.826C183.277 130.826 185.425 133.079 185.425 135.731C185.425 136.792 185.172 137.72 184.54 138.515C184.288 138.78 184.288 139.31 184.54 139.576C185.552 140.504 186.057 141.829 186.057 143.155C186.057 145.807 184.035 148.06 181.381 148.06H163.179C159.767 148.06 156.986 145.144 156.986 141.564C156.986 139.178 158.25 137.057 160.272 135.864L160.399 135.731C160.399 135.731 160.525 135.731 160.525 135.598C160.778 135.333 160.904 134.935 160.651 134.67C160.146 133.875 159.893 132.947 159.893 131.886C159.893 129.235 161.915 126.981 164.57 126.981C165.834 126.981 167.098 127.511 167.982 128.572C168.235 128.837 168.488 128.837 168.867 128.704C169.12 128.704 169.246 128.439 169.373 128.174C169.878 126.318 171.648 124.86 173.797 124.86Z" fill="#57A556"/>
<path d="M181.066 129.287C184.465 129.287 187.342 132.129 187.342 135.783C187.342 137.001 186.95 138.22 186.427 139.167C187.472 140.385 187.995 141.874 187.995 143.498C187.995 147.016 185.25 149.994 181.72 149.994H162.893C158.578 149.994 155.048 146.34 155.048 141.874C155.048 139.032 156.486 136.46 158.839 134.971C158.447 134.024 158.186 133.077 158.186 131.994C158.186 128.475 160.931 125.498 164.461 125.498C165.9 125.498 167.207 126.039 168.253 126.851C169.168 124.55 171.522 122.926 174.006 122.926C177.405 122.926 180.151 125.768 180.282 129.287H181.066ZM159.493 131.994C159.493 132.941 159.755 134.024 160.278 134.836C160.539 135.107 160.408 135.648 160.147 135.783L160.016 135.919L159.885 136.054C157.793 137.272 156.486 139.438 156.486 141.874C156.486 145.528 159.362 148.505 162.893 148.505H181.72C184.335 148.505 186.557 146.204 186.557 143.498C186.557 142.144 186.034 140.791 184.988 139.844C184.727 139.573 184.727 139.167 184.988 138.761C185.642 137.949 185.904 136.866 185.904 135.919C185.904 133.212 183.681 130.911 181.066 130.911C180.543 130.911 180.02 131.047 179.628 131.182C179.236 131.317 178.843 131.047 178.713 130.776V130.37V130.235V129.829C178.713 127.122 176.621 124.821 173.875 124.821C171.652 124.821 169.822 126.31 169.168 128.475C169.038 128.746 168.907 128.881 168.645 129.017C168.384 129.152 167.992 129.152 167.73 128.881C166.815 127.934 165.507 127.257 164.2 127.257C161.716 126.986 159.493 129.152 159.493 131.994Z" fill="#193C48"/>
<path d="M102.59 133.084H142.733V136.723H102.59V133.084Z" fill="#B06E46"/>
<path d="M139.994 127.625H105.553V130.582H139.994V127.625ZM142.731 121.256H102.588V125.35H142.731V121.256ZM142.731 133.084H102.588V136.723H142.731V133.084ZM145.239 131.946V138.088C145.239 138.77 144.783 139.225 144.099 139.225H142.274V148.096C142.274 148.778 141.818 149.233 141.134 149.233C140.45 149.233 139.994 148.778 139.994 148.096V139.225H105.553V148.096C105.553 148.778 105.097 149.233 104.413 149.233C103.728 149.233 103.272 148.778 103.272 148.096V139.225H101.676C100.991 139.225 100.535 138.77 100.535 138.088V131.946C100.535 131.264 100.991 130.809 101.676 130.809H103.272V127.852H101.676C100.991 127.852 100.535 127.397 100.535 126.715V120.119C100.535 119.436 100.991 118.981 101.676 118.981H103.272V115.342C103.272 114.66 103.728 114.205 104.413 114.205C105.097 114.205 105.553 114.66 105.553 115.342V118.981H139.994V115.342C139.994 114.66 140.45 114.205 141.134 114.205C141.818 114.205 142.274 114.66 142.274 115.342V118.981H143.871C144.555 118.981 145.011 119.436 145.011 120.119V126.715C145.011 127.397 144.555 127.852 143.871 127.852H142.274V130.809H143.871C144.555 130.582 145.239 131.264 145.239 131.946Z" fill="#193C48"/>
<path d="M102.588 121.256H142.731V125.35H102.588V121.256Z" fill="#B06E46"/>
<path d="M179.749 84.6349H171.047C170.75 84.6349 170.553 84.2482 170.553 83.6682C170.553 83.0882 170.75 82.7015 171.047 82.7015H179.749C180.045 82.7015 180.243 83.0882 180.243 83.6682C180.243 84.2482 180.045 84.6349 179.749 84.6349Z" fill="#69C3D5"/>
<path d="M24.9642 135.582V147.717H21.7563V135.582H23.3603H24.9642Z" fill="#B06E46"/>
<path d="M24.9648 147.717V135.582H23.3609H21.7569V147.717H24.9648ZM36.484 134.065L23.2151 51.3974L9.9461 134.065H20.7363H23.2151H25.6939H36.484ZM38.2338 134.672C38.2338 134.975 38.2338 135.127 38.088 135.278C37.9422 135.43 37.6505 135.582 37.5047 135.582H26.5688V148.475C26.5688 148.93 26.2771 149.233 25.8397 149.233H21.0279C20.5904 149.233 20.2988 148.93 20.2988 148.475V135.582H9.36285C9.07123 135.582 8.92541 135.43 8.7796 135.278C8.63379 135.127 8.63379 134.823 8.63379 134.672L22.6318 46.2401V46.0884V45.9367V45.7851L22.7776 45.6334H22.9234H23.0693H23.2151H23.3609H23.5067H23.6525L23.7983 45.7851V45.9367V46.0884V46.2401L38.2338 134.672Z" fill="#193C48"/>
<path d="M23.3603 51.3973L36.4834 134.065H25.8391H23.3603H20.8815H10.0913L23.3603 51.3973Z" fill="#57A556"/>
<path d="M87.6551 140.882C87.6551 138.949 86.814 137.191 85.4683 135.785C85.1319 135.434 85.1319 134.906 85.4683 134.379C86.3094 133.149 86.6458 131.743 86.6458 130.336C86.6458 126.47 83.618 123.482 80.0855 123.482C79.4127 123.482 78.7398 123.657 78.067 123.833C77.5623 124.009 77.0577 123.657 76.8895 123.306V122.779V122.603V121.9C76.8895 118.033 73.8617 115.045 70.3292 115.045C67.3014 115.045 64.7782 117.154 63.9372 120.142C63.7689 120.494 63.6007 120.669 63.2643 120.845C62.9279 121.021 62.4233 121.021 62.0868 120.669C60.9093 119.263 59.059 118.56 57.2087 118.56C53.508 118.56 50.6484 121.724 50.6484 125.415C50.6484 126.821 50.9848 128.051 51.8259 129.282C52.1623 129.633 51.9941 130.336 51.6577 130.512L51.4895 130.688L51.3213 130.864C48.4617 132.446 46.7795 135.434 46.7795 138.773C46.7795 143.87 50.6484 147.913 55.5266 147.913H81.0948C84.6272 147.737 87.6551 144.573 87.6551 140.882ZM87.3186 135.082C88.6643 136.664 89.5054 138.773 89.5054 140.882C89.5054 145.804 85.8047 149.67 81.0948 149.67H55.5266C49.8073 149.67 44.9292 144.749 44.9292 138.597C44.9292 134.73 46.7795 131.215 49.9756 129.282C49.3027 128.051 48.9663 126.645 48.9663 125.239C48.9663 120.318 52.667 116.451 57.3769 116.451C59.2272 116.451 61.0776 117.154 62.5915 118.384C63.9372 115.221 66.965 112.936 70.3292 112.936C74.8709 112.936 78.7398 116.803 78.7398 121.548C79.2445 121.548 79.5809 121.372 80.0855 121.372C84.7955 121.372 88.4961 125.239 88.4961 130.161C88.6643 131.918 88.1597 133.676 87.3186 135.082Z" fill="#193C48"/>
<path d="M85.3893 135.785C86.7293 137.015 87.5667 138.949 87.5667 140.882C87.5667 144.749 84.5519 147.737 81.0346 147.737H55.5762C50.719 147.737 46.8667 143.694 46.8667 138.597C46.8667 135.258 48.5416 132.27 51.3889 130.688L51.5564 130.512C51.7239 130.512 51.7239 130.512 51.7239 130.336C52.0589 129.985 52.2264 129.458 51.8914 129.106C51.2214 128.051 50.719 126.645 50.719 125.239C50.719 121.372 53.7338 118.384 57.2511 118.384C59.0934 118.384 60.7683 119.088 62.1083 120.494C62.4432 120.845 62.7782 120.845 63.2807 120.669C63.6157 120.669 63.9507 120.318 63.9507 119.966C64.7881 116.978 67.3004 114.869 70.3153 114.869C74 114.869 76.8474 118.033 76.8474 121.724V122.427V122.603V123.13C77.0148 123.657 77.5173 123.833 78.0198 123.657C78.6897 123.482 79.3597 123.306 80.0297 123.306C83.7144 123.306 86.5618 126.47 86.5618 130.161C86.5618 131.567 86.0593 132.973 85.3893 134.203C85.0544 134.906 85.0544 135.434 85.3893 135.785Z" fill="#99C98A"/>
<path d="M140.531 43.7001H116.265C115.986 43.7001 115.8 43.3134 115.8 42.7334C115.8 42.1534 115.986 41.7667 116.265 41.7667H140.531C140.81 41.7667 140.996 42.1534 140.996 42.7334C140.996 43.3134 140.81 43.7001 140.531 43.7001Z" fill="#193C48"/>
<path d="M197.169 150.467H0.16428C0.0657121 150.467 0 149.973 0 149.233C0 148.493 0.0657121 148 0.16428 148H197.169C197.268 148 197.333 148.493 197.333 149.233C197.333 149.973 197.268 150.467 197.169 150.467Z" fill="#193C48"/>
<defs>
<clipPath id="clip0_423_87234">
<rect width="55" height="96" fill="white" transform="matrix(-1 0 0 1 186.567 52.2333)"/>
</clipPath>
</defs>
</svg>
