<svg width="56" height="51" viewBox="0 0 56 51" fill="none" xmlns="http://www.w3.org/2000/svg">
<g clip-path="url(#clip0_1_670)">
<path d="M23.5509 19.1025C25.3151 18.9129 26.6019 19.038 27.5871 19.0712C28.295 19.0951 30.2872 19.1025 31.9863 19.2598C33.3793 19.3888 34.403 19.2295 34.6237 19.2911C34.9502 19.3823 34.8866 23.366 34.9065 28.546C34.9136 30.4106 34.9662 30.7232 34.9867 33.2303C35.0072 35.7374 35.0072 40.4293 34.9674 42.9401C34.9276 45.451 34.848 45.6387 33.6529 45.7353C32.4578 45.832 30.1497 45.832 28.8811 45.8007C26.5312 45.7428 24.6796 45.7676 23.8355 45.8633C23.6324 45.8863 23.4737 45.9571 23.2524 45.9894C23.0311 46.0216 21.8592 46.4576 21.656 45.8007C21.0899 43.9709 22.1038 40.1013 22.0839 36.944C22.0734 35.2855 21.9832 34.2113 22.0031 33.1383C22.0161 32.4347 22.1038 29.5555 22.1237 25.4806C22.1317 23.8429 22.2243 22.7764 22.284 21.4494C22.3047 20.9897 22.4631 20.9982 22.6241 21.0608C23.3651 21.3487 24.0694 21.8172 25.5539 22.2608C27.4156 22.8171 29.4454 22.5148 30.8027 22.6721C32.1096 22.8236 32.4735 22.8939 32.6743 23.019C32.9232 23.1742 32.8763 23.8399 32.857 24.1868C32.7844 25.4918 31.0312 25.2939 29.1554 25.546C27.6411 25.7496 24.9714 25.7982 23.6775 25.9564C22.3835 26.1147 22.5427 26.3024 22.7043 26.4304C22.8659 26.5583 22.9796 27.4721 24.156 27.692C25.3324 27.9119 27.5666 27.436 28.8334 27.692C30.3849 28.0054 31.6209 28.2645 32.9685 28.5782C33.3878 28.6758 33.1621 29.2673 32.9999 29.5555C32.5691 30.3207 30.0846 30.2872 28.1581 30.4445C26.8085 30.5548 26.0881 30.6663 25.3821 30.855C25.1128 30.9269 24.9184 31.2332 24.7779 31.6426C24.4559 32.581 24.5566 33.9459 24.5753 37.8862C24.5794 38.7566 27.9404 38.5 24.8955 39.288C23.8228 39.5657 23.8523 43.4043 24.5753 43.5C25.6202 43.6384 29.4575 40.0198 29.9803 39.5155C30.7098 38.8118 31.1048 37.4985 31.4889 36.3885C31.7446 35.6495 31.7512 34.7156 31.6915 33.926C31.6057 32.791 29.7469 33.3203 27.9404 33.8227C27.3627 33.9834 26.7393 34.4502 26.6501 34.7061C25.4895 38.0344 32.2721 35.4037 32.5929 35.8445C33.4488 37.0205 33.4395 38.8786 33.3798 39.3203C32.7593 40.016 32.5929 43.5 31.3315 41.0283C31.2442 40.8573 29.7462 43 29.5002 43" stroke="#F7F1C3" stroke-width="4" stroke-linecap="round"/>
<path d="M49.2415 29.3733H37.8763V21.4342C37.8763 18.1152 35.1808 15.4152 31.8679 15.4152H23.6324C20.3192 15.4152 17.624 18.1154 17.624 21.4342V23.7441H6.25848C2.94555 23.7444 0.25 26.4444 0.25 29.7634V48.2196C0.25 49.016 0.894325 49.6614 1.68935 49.6614H53.8107C54.6057 49.6614 55.25 49.016 55.25 48.2196V35.3926C55.25 32.0736 52.5547 29.3733 49.2415 29.3733ZM17.6237 46.7777H3.1287V29.7634C3.1287 28.0344 4.53285 26.6281 6.25848 26.6281H17.6237V46.7777ZM34.9976 46.7777H20.5024V21.4344C20.5024 19.7055 21.9065 18.2992 23.6322 18.2992H31.8676C33.5935 18.2992 34.9973 19.7058 34.9973 21.4344V46.7777H34.9976ZM52.3713 46.7777H37.8763V32.2573H49.2415C50.9674 32.2573 52.3713 33.6639 52.3713 35.3926V46.7777Z" fill="#1D3238"/>
<path d="M26.9382 12.8069V4.00058H25.3146V1.89783H29.0766V12.8069H26.9382Z" fill="#1D3238"/>
<path d="M45.7216 26.9987C45.0704 26.9987 44.4742 26.8863 43.933 26.6615C43.3918 26.4367 42.9342 26.1218 42.5602 25.7161C42.1862 25.3105 41.9244 24.8323 41.7748 24.2813L43.7551 23.3425C43.7856 23.6951 43.8835 24.007 44.0485 24.278C44.2135 24.5491 44.4401 24.7607 44.7283 24.9127C45.0168 25.0648 45.3498 25.1408 45.7285 25.1408C46.2565 25.1408 46.6775 24.9954 46.9924 24.7045C47.3072 24.4136 47.4645 24.0279 47.4645 23.5475C47.4645 23.2037 47.3873 22.8962 47.2335 22.6251C47.0793 22.3541 46.8716 22.1403 46.6093 21.9838C46.3478 21.8273 46.056 21.7491 45.7348 21.7491C45.55 21.7491 45.3916 21.7756 45.2596 21.8284V20.4003H45.7546C46.0403 20.4003 46.2991 20.3287 46.5301 20.1855C46.7611 20.0422 46.9459 19.8516 47.0845 19.6136C47.2231 19.3756 47.2924 19.1199 47.2924 18.8466C47.2924 18.5778 47.2231 18.3356 47.0845 18.1194C46.9459 17.9034 46.76 17.7315 46.5271 17.6037C46.2933 17.4758 46.0318 17.4119 45.7417 17.4119C45.4515 17.4119 45.1818 17.478 44.9332 17.6103C44.6846 17.7425 44.4789 17.9232 44.3161 18.1524C44.1533 18.3819 44.0499 18.6461 44.0061 18.9458L42.3099 18.1524C42.4329 17.6588 42.6595 17.226 42.9895 16.8532C43.3197 16.4808 43.7256 16.1921 44.2074 15.9871C44.6892 15.7822 45.2139 15.6797 45.7815 15.6797C46.4459 15.6797 47.0388 15.8163 47.5605 16.0896C48.0819 16.3629 48.4919 16.7342 48.7911 17.2037C49.0903 17.6731 49.2402 18.2078 49.2402 18.807C49.2402 19.1155 49.1951 19.4042 49.1049 19.6731C49.0147 19.9422 48.8863 20.1866 48.7188 20.407C48.5519 20.6273 48.3492 20.8169 48.1119 20.9756C48.4196 21.1386 48.6861 21.3458 48.9105 21.597C49.1343 21.8483 49.3062 22.1359 49.425 22.4599C49.5438 22.7838 49.6032 23.1441 49.6032 23.5408C49.6032 24.202 49.4404 24.7937 49.1151 25.316C48.7889 25.8384 48.3352 26.2494 47.7519 26.5491C47.1681 26.8486 46.4913 26.9987 45.7216 26.9987Z" fill="#1D3238"/>
<path d="M5.34216 20.7265V19.629C6.20016 18.9722 6.95036 18.3761 7.59276 17.8405C8.23516 17.305 8.78296 16.8191 9.23616 16.3827C9.68909 15.9463 10.0565 15.5485 10.3384 15.1893C10.6197 14.8301 10.8254 14.4995 10.9555 14.1976C11.0853 13.8956 11.1502 13.6102 11.1502 13.3414C11.1502 13.0064 11.071 12.7012 10.9126 12.4257C10.7542 12.1502 10.5399 11.9309 10.2691 11.7678C9.99846 11.6047 9.69376 11.5232 9.35496 11.5232C9.02936 11.5232 8.72906 11.6058 8.45406 11.7711C8.17906 11.9364 7.93816 12.1799 7.73136 12.5017C7.52456 12.8235 7.35296 13.218 7.21656 13.6852L5.42136 12.8455C5.55336 12.3474 5.74366 11.8989 5.99226 11.5C6.24059 11.1012 6.54006 10.7607 6.88986 10.4786C7.23966 10.1967 7.63236 9.98049 8.06796 9.83063C8.50356 9.68077 8.97436 9.60583 9.48036 9.60583C10.2504 9.60583 10.9346 9.76561 11.533 10.0852C12.1314 10.4047 12.6011 10.84 12.9421 11.391C13.2831 11.9419 13.4536 12.57 13.4536 13.2753C13.4536 13.6279 13.4049 13.9739 13.3084 14.3133C13.2118 14.6527 13.0598 14.9954 12.8532 15.3414C12.6462 15.6874 12.3778 16.0422 12.0478 16.4058C11.7178 16.7695 11.3207 17.1507 10.8565 17.5496C10.3923 17.9485 9.85216 18.3728 9.23616 18.8224H13.6516V20.7265H5.34216Z" fill="#1D3238"/>
</g>
<defs>
<clipPath id="clip0_1_670">
<rect width="55" height="50" fill="white" transform="translate(0.25 0.333374)"/>
</clipPath>
</defs>
</svg>
