<svg width="23" height="27" viewBox="0 0 23 27" fill="none" xmlns="http://www.w3.org/2000/svg">
<path fill-rule="evenodd" clip-rule="evenodd" d="M11.9523 0.499992C12.6694 0.499992 13.2507 1.08132 13.2507 1.79841V3.18919C14.9366 3.43052 16.5228 4.13922 17.7727 5.25022C19.3447 6.6475 20.2622 8.57769 20.2622 10.6276C20.2622 12.9802 20.7918 14.684 21.4372 15.8966L21.4489 15.9188C21.9178 16.7995 22.2835 17.4868 22.5279 17.9786C22.6499 18.2244 22.7565 18.4512 22.833 18.6439C22.8711 18.7395 22.9125 18.8536 22.9436 18.974C22.9666 19.0621 23.0247 19.2968 22.9883 19.5772C22.97 19.718 22.9291 20.0279 22.7421 20.3391C22.5553 20.6504 22.3009 20.8322 22.1852 20.9145C21.9809 21.0598 21.7781 21.1217 21.6773 21.1491C21.5581 21.1813 21.4426 21.2004 21.3466 21.213C21.1547 21.2382 20.9316 21.251 20.6991 21.2589C20.2357 21.2747 19.588 21.2747 18.7721 21.2747H5.13235C4.31648 21.2747 3.66882 21.2747 3.20539 21.2589C2.97291 21.251 2.74976 21.2382 2.55796 21.213C2.46201 21.2004 2.34636 21.1813 2.22722 21.1491C2.12648 21.1217 1.92361 21.0598 1.71926 20.9145C1.60357 20.8322 1.34925 20.6504 1.16236 20.3391C0.975462 20.0279 0.934445 19.718 0.916215 19.5772C0.879873 19.2968 0.937912 19.0621 0.960829 18.974C0.992082 18.8536 1.0335 18.7395 1.07143 18.6439C1.14793 18.4512 1.25461 18.2244 1.37667 17.9786C1.62092 17.4868 1.9867 16.7995 2.45552 15.9188L2.46732 15.8966C3.11275 14.684 3.64237 12.9802 3.64237 10.6276C3.64237 8.57769 4.55984 6.6475 6.13178 5.25022C7.38166 4.13922 8.96797 3.43052 10.6539 3.18919V1.79841C10.6539 1.08132 11.2352 0.499992 11.9523 0.499992ZM11.9523 5.69366C10.3909 5.69366 8.91988 6.24637 7.85703 7.19112C6.79916 8.13143 6.23921 9.37172 6.23921 10.6276C6.23921 13.3883 5.61301 15.5136 4.75962 17.1169C4.41979 17.7553 4.14667 18.2686 3.93596 18.6751C4.2709 18.6778 4.67568 18.6778 5.16123 18.6778H18.7433C19.2289 18.6778 19.6336 18.6778 19.9686 18.6751C19.7579 18.2686 19.4847 17.7553 19.1449 17.1169C18.2915 15.5136 17.6653 13.3883 17.6653 10.6276C17.6653 9.37172 17.1053 8.13143 16.0475 7.19112C14.9846 6.24637 13.5136 5.69366 11.9523 5.69366Z" fill="url(#paint0_linear_573_463)"/>
<path d="M9.3392 22.9277C8.80159 22.4531 7.98106 22.5043 7.50654 23.0419C7.03201 23.5795 7.08317 24.4001 7.62081 24.8745C8.76592 25.8852 10.2732 26.5 11.9208 26.5C13.5685 26.5 15.0757 25.8852 16.2208 24.8745C16.7585 24.4001 16.8096 23.5795 16.3351 23.0419C15.8606 22.5043 15.04 22.4531 14.5025 22.9277C13.8135 23.5356 12.9117 23.9032 11.9208 23.9032C10.93 23.9032 10.0281 23.5356 9.3392 22.9277Z" fill="url(#paint1_linear_573_463)"/>
<defs>
<linearGradient id="paint0_linear_573_463" x1="11.9525" y1="0.499992" x2="11.9525" y2="26.4709" gradientUnits="userSpaceOnUse">
<stop stop-color="#FDFFD2"/>
<stop offset="1" stop-color="#FFDA3C"/>
</linearGradient>
<linearGradient id="paint1_linear_573_463" x1="11.9159" y1="26.5005" x2="11.9159" y2="22.5942" gradientUnits="userSpaceOnUse">
<stop stop-color="#668CFF"/>
<stop offset="1" stop-color="#7CD6FF"/>
</linearGradient>
</defs>
</svg>
