<svg width="46" height="51" viewBox="0 0 46 51" fill="none" xmlns="http://www.w3.org/2000/svg">
<path d="M24.875 28.9166C25.2488 28.9579 27.645 29.0416 30.135 29.1454C32.8377 29.258 34.8313 29.2079 35.5356 29.2704C37.741 29.4661 39.65 29.4166 40.8937 29.2923C41.2143 29.2602 41.4987 29.1254 41.6656 29.1454C42.6619 29.2648 40.0475 32.4866 39.5219 33.5604C39.2374 34.1415 39.125 34.6641 38.9594 35.2266C38.7062 36.0864 38.2525 36.7866 37.98 37.4354C37.7163 38.0632 37.0875 38.8691 36.3569 39.7885C35.7228 40.5864 35.21 40.9141 34.7519 41.2904C34.1012 41.8248 33.1275 42.2491 31.88 43.0798C31.1123 43.5909 30.8763 44.0404 30.7506 44.2691C30.7001 44.3612 30.8725 44.4566 30.9981 44.4785C31.4951 44.565 31.9975 44.3341 32.4981 44.1673C32.9988 44.0004 33.745 43.6691 34.3731 43.3135C34.8684 43.0331 35.3725 42.7091 36.1213 42.1491C37.5044 41.1147 37.665 40.4191 37.895 39.9185C38.1327 39.4011 38.3325 38.9191 38.4994 38.3148C38.6799 37.6609 38.9575 36.9191 39.1244 36.4185C39.2876 35.9288 39.415 35.1716 39.6862 34.4404C40.0791 33.3813 40.3325 32.8366 40.6237 32.2729C40.7857 31.9594 40.9575 31.6679 41.0825 31.5835C41.7392 31.1402 40.5025 33.8666 40.23 34.7685C40.0599 35.3315 39.7925 35.8716 39.6462 36.5391C39.5104 37.1592 39.045 37.8291 38.1075 38.6223C37.1753 39.4109 35.7125 40.5391 34.8581 41.2466C33.5396 42.3385 32.92 42.7891 32.3562 43.2066C31.6338 43.7417 31.21 44.4141 30.8762 44.7498C30.2373 45.3923 30.295 41.6391 29.6894 39.8591C29.361 38.894 29.1675 38.2116 28.8762 37.6273C28.5098 36.892 28.21 36.0466 27.8969 35.3979C27.4684 34.5102 27.085 33.2941 26.855 32.7935C26.6173 32.2761 26.4175 31.7941 26.1263 31.2935C25.8347 30.7923 25.6675 30.2116 25.6656 29.7098C25.664 29.2791 27.2825 29.5416 28.9875 29.5829C30.4498 29.6183 31.7025 29.7916 32.7219 29.8123C34.5776 29.8498 36.4975 29.9991 37.5581 30.0623C38.0406 30.091 38.6213 30.1666 39.1631 30.2285C39.3435 30.2491 39.2925 30.4141 39.2094 30.5191C39.0361 30.738 37.6787 31.1629 35.6806 31.746C33.6526 32.3379 32.005 31.9591 29.5719 31.3773C28.4631 31.1121 27.8775 30.9591 27.5213 30.7923C26.7812 30.4456 29.745 30.7491 30.7256 30.8123C31.6267 30.8703 32.7025 30.9991 35.0962 31.0623C35.3043 31.0677 33.8463 31.2491 31.0425 31.271C27.7742 31.2965 25.8762 30.7504 25.6681 30.791C25.5527 30.8135 25.5425 31.0791 25.5625 31.2885C25.6574 32.2818 26.705 33.1216 27.2687 33.5404C27.8685 33.9859 28.9525 34.3291 29.6025 34.9148C30.1441 35.4027 30.54 36.2466 30.9569 36.7898C31.1269 37.0113 31.1663 37.2904 31.2288 37.5398C31.2597 37.6633 31.25 37.7891 31.0644 37.5229C29.8011 35.7109 28.8425 33.4316 28.2919 32.4585C27.9547 31.8626 28.7075 34.1191 29.1025 35.2041C29.2088 35.4962 29.29 35.8266 29.3944 35.976C29.4987 36.1254 29.6225 36.0841 29.81 35.6504C30.7889 33.3858 30.6662 32.6679 30.6875 32.6454C30.9919 32.3231 30.4175 34.0354 30.2925 35.0348C30.245 35.4148 30.25 35.5391 30.745 35.1698C33.8999 32.8155 35.0813 31.7104 35.3938 31.501C35.5842 31.3734 35.4175 32.2054 35.2925 32.7254C35.2375 32.954 35.25 33.1216 35.5387 32.9798C36.4823 32.5162 37.1238 31.8754 37.2494 31.9779C37.3608 32.0688 37.1275 32.4516 37.1462 32.5804C37.2531 33.3139 38.6238 31.7504 38.7081 31.7498C39.4571 31.7442 37.1725 32.5816 35.8813 32.7704C33.5287 33.1143 32.0075 32.6666 30.8162 32.4385C30.4138 32.3614 30.0025 32.2916 29.545 32.2504C29.3319 32.2312 29.17 32.1266 29.58 32.5379C30.9379 33.8999 32.4125 35.4929 33.0787 36.8029C33.9804 38.5756 33.4175 39.6641 33.3544 40.1854C33.3162 40.5004 33.2088 40.7904 33.0844 40.9779C33.0265 41.0652 32.8775 41.0416 32.7312 40.9179C32.3614 40.6049 31.92 39.5079 31.3994 38.3823C31.2351 38.027 31.1675 38.1641 31.1462 38.7023C31.125 39.2404 31.125 40.1891 31.1044 40.616C31.0837 41.0429 31.0425 40.9191 30.9594 40.5048C30.7362 39.3923 30.625 38.3779 30.625 38.4354C30.625 39.7716 30.6663 40.9154 30.8113 41.0616C31.7774 42.0361 33.6225 38.7116 34.6812 37.6935C36.0719 36.3562 36.9987 35.2104 37.2275 34.836C37.4084 34.54 35.8088 35.0766 33.2669 36.0148C32.4273 36.3246 32.4575 36.1691 32.8706 35.7135C34.028 34.4371 34.9162 33.5429 34.9169 33.3966C34.9176 33.2216 33.47 34.4491 32.2562 35.4735C29.7801 37.5633 36.83 33.2091 37.27 33.0623C37.5295 32.9756 37.0012 33.7479 36.36 34.6585C33.9115 38.1355 33.005 39.1616 32.79 39.4598C31.5158 41.2266 35.4125 37.0041 36.2881 36.2323C36.543 36.0076 36.8275 35.7141 36.5638 36.1841C35.5727 37.9501 34.5425 39.3316 34.4794 39.5198C34.3012 40.0506 35.6625 38.4216 36.6412 37.4216C38.5283 35.4936 38.8325 34.0866 38.9788 33.3985C39.0181 33.2133 39 33.0041 38.8144 32.9804C38.6287 32.9566 38.2575 33.1216 36.8906 33.9904C35.5237 34.8591 33.1725 36.4266 31.9612 37.296C30.75 38.1654 30.75 38.2891 30.8119 38.3529C30.9486 38.4937 31.2488 38.4579 31.4981 38.4998C31.7473 38.5416 31.9988 38.2929 32.1863 38.0229C32.6256 37.3902 31.7525 36.0891 31.1275 34.9623C30.96 34.7104 30.795 34.5041 30.4419 34.171C30.0887 33.8379 29.5525 33.3841 29 32.9166" stroke="#F7F1C3" stroke-width="2" stroke-linecap="round"/>
<path d="M37.8196 7.99056C37.5029 7.57281 37.1363 7.23581 36.7199 6.97993C36.3033 6.72412 35.8117 6.59618 35.2454 6.59618C34.662 6.59618 34.1871 6.68175 33.8208 6.85206C33.4541 7.02275 33.1835 7.26581 33.0086 7.58118C32.8336 7.897 32.7462 8.27637 32.7462 8.71968C32.7462 9.29975 32.9336 9.77743 33.3085 10.1524C33.6834 10.5278 34.1789 10.852 34.7955 11.1247C35.4117 11.3977 36.0701 11.6707 36.7699 11.9434C37.2698 12.1312 37.7821 12.3699 38.3069 12.6597C38.8318 12.9499 39.3149 13.3037 39.7565 13.7215C40.1977 14.1396 40.5476 14.6426 40.8062 15.231C41.0643 15.8194 41.1935 16.5146 41.1935 17.3162C41.1935 18.3739 40.9643 19.295 40.5063 20.0793C40.0478 20.8641 39.3816 21.4652 38.5069 21.8831C37.6322 22.3008 36.5701 22.5099 35.3205 22.5099C34.3372 22.5099 33.4086 22.3008 32.5339 21.8831C31.6591 21.4653 30.8969 20.8981 30.2472 20.1817C29.5974 19.4653 29.089 18.6466 28.7227 17.7256L30.9969 16.2161C31.38 16.9836 31.7841 17.6448 32.209 18.1989C32.6338 18.7534 33.1126 19.1755 33.646 19.4653C34.1791 19.7555 34.7789 19.9002 35.4455 19.9002C36.0453 19.9002 36.5409 19.8023 36.9325 19.606C37.3238 19.4101 37.6155 19.1287 37.8073 18.7617C37.9987 18.3952 38.0947 17.9558 38.0947 17.4441C38.0947 16.7961 37.9072 16.2632 37.5324 15.8451C37.1575 15.4273 36.674 15.0735 36.0828 14.7833C35.4911 14.4935 34.8621 14.2204 34.1959 13.9646C33.7625 13.8111 33.2837 13.6024 32.7588 13.3378C32.234 13.0736 31.7381 12.7326 31.2718 12.3144C30.8051 11.8967 30.422 11.3894 30.1222 10.7921C29.8222 10.1953 29.6723 9.47056 29.6723 8.61743C29.6723 7.78193 29.9097 7.02281 30.3846 6.34043C30.8594 5.65843 31.5131 5.11237 32.3464 4.70299C33.1793 4.29368 34.1208 4.08899 35.1704 4.08899C36.2365 4.08899 37.1449 4.27687 37.8946 4.65187C38.6443 5.02724 39.273 5.50493 39.7815 6.08462C40.2895 6.66468 40.6851 7.27031 40.9686 7.90112L38.6694 9.35943C38.4193 8.86481 38.1359 8.40868 37.8196 7.99056ZM36.42 1.32574L36.3701 5.47049H34.1458L34.0708 1.32574H36.42ZM36.3701 20.8724L36.42 25.1194H34.0708L34.1458 20.8724H36.3701Z" fill="#1D3238"/>
<path d="M24.3963 26.3878V5.53308H23.1298C20.2092 5.53308 17.3753 6.11896 14.7069 7.27439C12.13 8.39014 9.81617 9.98714 7.82935 12.021C5.84252 14.0549 4.28252 16.4237 3.19268 19.0616C2.064 21.7934 1.4917 24.6945 1.4917 27.6843C1.4917 30.6741 2.064 33.5751 3.19268 36.3068C4.28258 38.9448 5.84259 41.3135 7.82935 43.3475C9.81611 45.3814 12.13 46.9783 14.7069 48.0941C17.3753 49.2496 20.2092 49.8355 23.1298 49.8355C26.0503 49.8355 28.8842 49.2496 31.5527 48.0941C34.1295 46.9784 36.4434 45.3815 38.4302 43.3475C40.4169 41.3136 41.977 38.9448 43.0669 36.3068C44.1956 33.5751 44.7679 30.674 44.7679 27.6843V26.3878H24.3963ZM4.02469 27.6843C4.02469 17.3356 11.917 8.83839 21.8633 8.16864V28.9808L28.3909 46.487C26.7188 46.9781 24.9539 47.2425 23.1298 47.2425C12.5952 47.2424 4.02469 38.4686 4.02469 27.6843ZM30.7741 45.6072L24.5921 28.9808H42.1934C41.7149 36.4266 37.1473 42.7473 30.7741 45.6072Z" fill="#1D3238"/>
</svg>
