<?xml version="1.0" encoding="utf-8"?>
<!DOCTYPE svg PUBLIC "-//W3C//DTD SVG 1.1//EN" "http://www.w3.org/Graphics/SVG/1.1/DTD/svg11.dtd">
<svg version="1.1" id="Warstwa_1" xmlns="http://www.w3.org/2000/svg" xmlns:xlink="http://www.w3.org/1999/xlink" x="0px" y="0px"
	 width="28px" height="34px" viewBox="0 0 28 34" enable-background="new 0 0 28.333 34" xml:space="preserve">
<g>

		<path fill="#1d3238" d="M20.178,33.828c-0.192,0.043-0.399,0.048-0.59,0c-0.42-0.105-0.589-0.537-0.759-0.928
			c-0.981-2.256-1.985-4.503-2.965-6.759c-0.111-0.255-0.238-0.319-0.507-0.311c-0.805,0.024-1.612,0.024-2.417,0
			c-0.267-0.008-0.397,0.051-0.508,0.309c-0.975,2.248-1.973,4.485-2.951,6.732c-0.173,0.398-0.339,0.851-0.773,0.957
			c-0.191,0.047-0.398,0.043-0.59,0c-0.417-0.093-0.603-0.498-0.76-0.886c-0.324-0.797-0.674-1.583-1.015-2.372
			c-0.201-0.467-0.406-0.932-0.609-1.397c-0.061,0.016-0.092,0.023-0.123,0.033c-1.34,0.453-2.678,0.91-4.02,1.357
			c-0.62,0.206-1.244-0.097-1.323-0.679c-0.037-0.273,0.027-0.59,0.139-0.847c1.147-2.636,2.311-5.264,3.478-7.89
			c0.079-0.177,0.089-0.299-0.032-0.468c-2.291-3.182-3.075-6.717-2.131-10.51c1.23-4.938,4.389-8.114,9.297-9.504
			c0.697-0.197,1.421-0.333,2.146-0.398c0.653-0.059,1.313-0.049,1.967,0c0.487,0.037,0.971,0.125,1.449,0.223
			c5.765,1.179,9.989,5.999,10.334,11.834c0.181,3.058-0.641,5.845-2.447,8.329c-0.122,0.167-0.148,0.292-0.058,0.493
			c1.177,2.646,2.34,5.299,3.513,7.947c0.193,0.435,0.225,0.847-0.109,1.219c-0.336,0.375-0.757,0.382-1.203,0.229
			c-0.658-0.226-1.318-0.45-1.977-0.674c-0.686-0.233-1.372-0.466-2.071-0.703c-0.551,1.279-1.097,2.525-1.623,3.78
			C20.777,33.328,20.594,33.735,20.178,33.828z M24.963,13.117c0.004-5.969-4.846-10.86-10.795-10.885
			C8.236,2.208,3.339,7.122,3.331,13.107C3.324,19.043,8.199,23.924,14.142,23.93C20.08,23.935,24.959,19.06,24.963,13.117z
			 M3.041,27.96c0.131-0.035,0.202-0.049,0.271-0.073c0.856-0.29,1.71-0.586,2.568-0.87c0.611-0.202,1.074,0.003,1.337,0.59
			c0.245,0.547,0.474,1.1,0.713,1.65c0.152,0.351,0.308,0.7,0.484,1.098c0.74-1.679,1.455-3.302,2.182-4.951
			c-1.949-0.581-3.647-1.55-5.142-2.914C4.65,24.313,3.857,26.111,3.041,27.96z M25.263,27.98c-0.829-1.878-1.621-3.672-2.424-5.49
			c-1.506,1.375-3.197,2.335-5.14,2.915c0.726,1.649,1.445,3.28,2.179,4.946c0.068-0.147,0.121-0.254,0.168-0.363
			c0.328-0.759,0.654-1.52,0.983-2.279c0.314-0.725,0.734-0.907,1.494-0.651c0.186,0.063,0.372,0.124,0.557,0.186
			C23.779,27.48,24.477,27.715,25.263,27.98z"/>
		<path fill="#1d3238" d="M9.815,17.583c0.11-0.651,0.235-1.391,0.361-2.131c0.067-0.392,0.149-0.781,0.193-1.176
			c0.012-0.103-0.063-0.245-0.143-0.325c-0.714-0.71-1.435-1.413-2.16-2.112c-0.334-0.322-0.536-0.682-0.371-1.153
			c0.161-0.459,0.51-0.647,0.984-0.707c0.996-0.128,1.987-0.299,2.983-0.433c0.195-0.026,0.283-0.109,0.362-0.272
			c0.444-0.914,0.902-1.82,1.345-2.734c0.201-0.413,0.494-0.673,0.974-0.668c0.465,0.006,0.748,0.264,0.943,0.664
			c0.445,0.913,0.905,1.819,1.344,2.735c0.089,0.185,0.198,0.247,0.395,0.274c1.017,0.138,2.031,0.3,3.048,0.444
			c0.42,0.06,0.727,0.266,0.879,0.661c0.16,0.416,0.042,0.787-0.265,1.091c-0.732,0.723-1.469,1.442-2.212,2.154
			c-0.155,0.148-0.224,0.274-0.179,0.51c0.192,0.997,0.349,2,0.524,3c0.075,0.427-0.02,0.796-0.372,1.065
			c-0.352,0.269-0.732,0.277-1.12,0.072c-0.918-0.484-1.84-0.963-2.754-1.456c-0.177-0.096-0.312-0.092-0.486,0.002
			c-0.904,0.487-1.812,0.967-2.725,1.438C10.613,18.914,9.817,18.468,9.815,17.583z M12.158,15.835c0.53-0.276,1-0.491,1.439-0.757
			c0.498-0.302,0.96-0.304,1.459-0.005c0.441,0.264,0.909,0.481,1.442,0.759c-0.1-0.599-0.173-1.12-0.276-1.634
			c-0.102-0.505-0.029-0.933,0.385-1.286c0.294-0.25,0.556-0.538,0.832-0.809c0.119-0.117,0.237-0.235,0.403-0.4
			c-0.595-0.091-1.104-0.201-1.617-0.239c-0.59-0.044-0.95-0.326-1.178-0.859c-0.205-0.479-0.46-0.938-0.72-1.46
			c-0.203,0.41-0.414,0.741-0.535,1.101c-0.292,0.867-0.872,1.273-1.782,1.282c-0.376,0.004-0.751,0.109-1.131,0.168
			c0.398,0.415,0.751,0.827,1.15,1.188c0.409,0.37,0.515,0.791,0.407,1.312C12.329,14.711,12.258,15.234,12.158,15.835z"/>
		<path fill="#F7F1C3" d="M12.158,15.835c0.1-0.601,0.172-1.123,0.278-1.638c0.108-0.522,0.002-0.943-0.407-1.312
			c-0.399-0.361-0.752-0.773-1.15-1.188c0.38-0.059,0.755-0.164,1.131-0.168c0.91-0.01,1.49-0.415,1.782-1.282
			c0.122-0.361,0.332-0.691,0.535-1.101c0.26,0.522,0.515,0.98,0.72,1.46c0.228,0.533,0.588,0.816,1.178,0.859
			c0.514,0.038,1.022,0.148,1.617,0.239c-0.166,0.165-0.284,0.283-0.403,0.4c-0.276,0.271-0.538,0.559-0.832,0.809
			c-0.414,0.353-0.487,0.781-0.385,1.286c0.104,0.514,0.176,1.035,0.276,1.634c-0.532-0.278-1.001-0.495-1.442-0.759
			c-0.499-0.299-0.961-0.297-1.459,0.005C13.158,15.343,12.688,15.559,12.158,15.835z"/>

</g>
</svg>
