<svg width="26" height="27" viewBox="0 0 26 27" fill="none" xmlns="http://www.w3.org/2000/svg">
<path d="M15.5373 26.5C16.5302 26.5 17.3776 25.782 17.5409 24.8026L17.7712 23.4208L17.775 23.3987C17.9441 22.4662 18.9175 21.9109 19.8084 22.2446L21.1203 22.7361L21.164 22.7519C22.0681 23.0675 23.0709 22.7078 23.5683 21.8895L23.592 21.8496V21.8495L25.7277 18.1504H25.7278L25.7505 18.1099C26.2178 17.2564 26.0143 16.1878 25.2597 15.5666H25.2596L24.178 14.6761C23.4378 14.0667 23.4378 12.9332 24.178 12.3238L25.2596 11.4334L25.2597 11.4334L25.2952 11.4035C26.0323 10.7682 26.2164 9.69604 25.7278 8.84959L25.7277 8.84956L23.592 5.15039V5.15035C23.0955 4.29053 22.0502 3.91552 21.1203 4.26389V4.26385L19.8084 4.75532C18.9105 5.0917 17.9288 4.52494 17.7712 3.57916L17.5409 2.19728C17.3776 1.21783 16.5302 0.5 15.5373 0.5H11.2658C10.2729 0.5 9.42542 1.21783 9.26219 2.19728V2.19732L9.03186 3.57916V3.5792C8.87424 4.52493 7.89262 5.0917 6.9947 4.75532H6.99467L5.68279 4.26385C4.76743 3.92095 3.74018 4.27895 3.23472 5.1104L3.21107 5.15035L3.21103 5.15039L1.07532 8.84956V8.84959C0.578914 9.70947 0.776828 10.8023 1.54343 11.4334L1.54347 11.4334L2.62509 12.3238C3.36531 12.9332 3.36529 14.0667 2.62505 14.6761V14.6762L1.54347 15.5665L1.54343 15.5666C0.776827 16.1977 0.57891 17.2905 1.07532 18.1504L3.21103 21.8495L3.21107 21.8496L3.23472 21.8896C3.74019 22.721 4.76744 23.079 5.68279 22.7361H5.68282L6.9947 22.2446L7.01576 22.2369C7.9079 21.9171 8.87548 22.4824 9.03186 23.4208L9.26219 24.8026L9.27038 24.8484C9.45195 25.8043 10.2884 26.5 11.2658 26.5H15.5373ZM11.0355 23.0868C10.6706 20.8972 8.41277 19.5783 6.33121 20.3245L6.28208 20.3425L4.9702 20.8339V20.834H4.97016L4.97013 20.8339L2.83445 17.1348H2.83441L3.91607 16.2444H3.91611L3.95627 16.2108C5.64321 14.7812 5.62981 12.1664 3.91611 10.7556L3.91607 10.7556L2.83441 9.86519H2.83445L4.97013 6.16606L4.9702 6.16603L6.28208 6.65746L6.33121 6.6755C8.41277 7.42164 10.6706 6.10272 11.0355 3.91312L11.2658 2.53124H15.5373V2.53127L15.7676 3.91308V3.91312L15.7765 3.96467C16.1712 6.14045 18.4423 7.43619 20.5209 6.6575H20.521L21.8329 6.16603L21.8329 6.16606H21.833L23.9686 9.86516V9.86519L23.9686 9.86523L22.8871 10.7556C21.1598 12.1775 21.1598 14.8224 22.8871 16.2444L23.9686 17.1348V17.1348L21.833 20.8339L21.8329 20.8339H21.8329L20.521 20.3425C18.4259 19.5576 16.1354 20.88 15.7676 23.0868V23.0868L15.5373 24.4687H11.2658L11.0355 23.0868Z" fill="url(#paint0_linear_22_460)"/>
<path d="M16.2287 13.2715C16.2286 14.9168 14.8948 16.2506 13.2495 16.2506C11.6041 16.2506 10.2703 14.9168 10.2703 13.2715C10.2703 11.6262 11.6041 10.2924 13.2495 10.2924C14.8948 10.2924 16.2287 11.6262 16.2287 13.2715ZM18.2599 13.2715C18.2599 10.5043 16.0166 8.26109 13.2495 8.26109C10.4823 8.26109 8.23901 10.5043 8.23901 13.2715C8.23902 16.0387 10.4823 18.2819 13.2495 18.2819C16.0166 18.2819 18.2599 16.0387 18.2599 13.2715Z" fill="url(#paint1_linear_22_460)"/>
<defs>
<linearGradient id="paint0_linear_22_460" x1="0.803155" y1="-20.4896" x2="25.9999" y2="-20.4896" gradientUnits="userSpaceOnUse">
<stop stop-color="#7197FF"/>
<stop offset="1" stop-color="#75CDFE"/>
</linearGradient>
<linearGradient id="paint1_linear_22_460" x1="17.7309" y1="10.7451" x2="9.23775" y2="16.3057" gradientUnits="userSpaceOnUse">
<stop stop-color="#FDFECE"/>
<stop offset="1" stop-color="#FFD201"/>
</linearGradient>
</defs>
</svg>
