<svg width="51" height="51" viewBox="0 0 51 51" fill="none" xmlns="http://www.w3.org/2000/svg">
<g clip-path="url(#clip0_1_685)">
<path d="M50.1176 11.1016L46.8663 4.03404C46.5421 3.36722 45.7825 3.0891 45.1249 3.40416L12.9082 18.3176C4.54371 22.1987 0.875473 32.175 4.73806 40.5764C8.00794 48.07 17.6877 53.0072 26.9322 48.774C35.2966 44.902 38.9649 34.9166 35.0929 26.4966C34.4538 25.1164 34.5557 23.5602 35.3616 22.4395C39.3724 16.891 49.3117 12.9079 49.4042 12.8707C50.0157 12.6115 50.4696 11.8983 50.1176 11.1016ZM33.2404 20.9112C31.8788 22.7917 31.675 25.3573 32.6938 27.5435C32.703 27.562 32.7124 27.599 32.7216 27.6084C35.9821 34.6945 32.8884 43.1239 25.8206 46.3938C18.1046 49.9322 9.88841 45.8289 7.10018 39.4743C3.84888 32.3882 6.94277 23.9682 14.0103 20.6889L22.3656 16.8169L27.1637 19.0955C27.8122 19.4011 28.5995 19.1232 28.9051 18.4747C29.2108 17.8263 28.9329 17.039 28.2844 16.7333L25.4501 15.3905L45.0414 6.32204L47.1811 10.9813C44.2077 12.2966 36.8343 15.9463 33.2404 20.9112Z" fill="#1D3238"/>
<circle cx="19.5" cy="33.5" r="7.5" fill="#F7F1C3"/>
<path d="M19.911 24.4587C14.8811 24.4587 10.7961 28.5345 10.7961 33.5736C10.7961 38.6126 14.8719 42.6884 19.911 42.6884C24.9408 42.6884 29.0258 38.6126 29.0258 33.5736C29.0258 28.5345 24.95 24.4587 19.911 24.4587ZM19.911 40.067C16.3263 40.067 13.4084 37.1491 13.4084 33.5644C13.4084 29.9797 16.3263 27.0618 19.911 27.0618C23.4957 27.0618 26.4136 29.9797 26.4136 33.5644C26.4136 37.1585 23.4957 40.067 19.911 40.067Z" fill="#1D3238"/>
<path d="M15.5314 12.3607C15.2577 12.9974 14.5199 13.292 13.8831 13.0184L8.62244 10.7586C7.98573 10.4849 7.69115 9.74706 7.96479 9.11035C8.23844 8.47365 8.97632 8.17906 9.61303 8.45271L14.8737 10.7125C15.5104 10.9859 15.805 11.7238 15.5314 12.3607Z" fill="#1D3238"/>
<path d="M18.3517 8.64229C17.7312 8.95123 16.9778 8.69876 16.6688 8.07829L14.1166 2.95335C13.8077 2.33288 14.0601 1.57947 14.6806 1.27052C15.3011 0.961583 16.0545 1.21405 16.3634 1.83452L18.9157 6.9597C19.2244 7.57994 18.9719 8.33335 18.3517 8.64229Z" fill="#1D3238"/>
<path d="M23.3539 8.74167C22.6789 8.5852 22.2584 7.91085 22.4149 7.23579L23.7081 1.65814C23.8645 0.983082 24.5389 0.562611 25.2139 0.719082C25.889 0.875552 26.3095 1.54991 26.153 2.22496L24.8598 7.80261C24.7034 8.47767 24.0292 8.89814 23.3539 8.74167Z" fill="#1D3238"/>
</g>
<defs>
<clipPath id="clip0_1_685">
<rect width="50" height="50" fill="white" transform="translate(0.25 0.333374)"/>
</clipPath>
</defs>
</svg>
