<svg width="280" height="154" viewBox="0 0 280 154" fill="none" xmlns="http://www.w3.org/2000/svg">
<ellipse cx="158.43" cy="79.3924" rx="57.7722" ry="57.4177" fill="#BCE1C3"/>
<path d="M266.144 153.114H14.2101C14.084 153.114 14 152.83 14 152.405C14 151.98 14.084 151.696 14.2101 151.696H266.144C266.27 151.696 266.354 151.98 266.354 152.405C266.354 152.83 266.27 153.114 266.144 153.114Z" fill="#193C48"/>
<path d="M180.051 145.316V151.696H174.38V145.316H177.215H180.051Z" fill="#DDC8BB"/>
<path d="M101.749 151.407V134.164H100.407H99.0643V151.407H101.749ZM114.5 133.14C114.5 133.481 114.5 133.652 114.332 133.823C114.164 133.993 113.829 134.164 113.661 134.164H103.594V152.26C103.594 152.773 103.259 153.114 102.755 153.114H98.2254C97.7221 153.114 97.3865 152.773 97.3865 152.26V134.164H87.3198C86.9843 134.164 86.8165 133.993 86.6487 133.823C86.481 133.652 86.481 133.31 86.481 133.14L98.8965 55.2912L100.742 55.6326L88.4943 132.457H98.3932H100.742H103.091H112.99L114.835 132.115L114.5 133.14Z" fill="#193C48"/>
<path d="M100.611 50.5013L114.127 133.63L112.221 133.975L99.5714 56.5251L98.5317 56.1809V50.5013V50.3291H98.705H98.8783H99.0516H99.2248H99.3981H99.5714H99.7447H99.918V50.5013V50.6734C100.611 50.3291 100.611 50.3291 100.611 50.5013C100.611 50.3291 100.611 50.3291 100.611 50.5013Z" fill="#193C48"/>
<path d="M99.9496 55.2912L112 132.557H102.261H99.9496H97.8036H87.8989L99.9496 55.2912Z" fill="#57A556"/>
<path d="M101.367 134.684V151.696H98.5317V134.684H99.9495H101.367Z" fill="#DDC8BB"/>
<path d="M180.469 151.295V145.34H177.487H174.505V151.295H180.469ZM197.367 138.724C197.367 137.566 197.036 136.574 196.373 135.747L186.433 124.665H177.652H168.872L158.931 135.747C158.269 136.574 157.937 137.732 157.937 138.724C157.937 141.37 160.091 143.521 162.742 143.521H173.842H177.652H181.628H192.729C195.214 143.686 197.367 141.37 197.367 138.724ZM197.699 134.589C198.693 135.747 199.19 137.235 199.19 138.724C199.19 142.363 196.208 145.34 192.563 145.34H182.291V152.287C182.291 152.783 181.96 153.114 181.463 153.114H173.676C173.179 153.114 172.848 152.783 172.848 152.287V145.34H162.576C158.931 145.34 155.949 142.363 155.949 138.724C155.949 137.235 156.446 135.747 157.44 134.589L166.387 124.665H164.896C161.748 124.665 159.097 122.019 159.097 118.876V118.38L160.919 118.545V118.876C160.919 121.026 162.742 122.846 164.896 122.846H177.652H190.409C192.563 122.846 194.385 121.026 194.385 118.876V118.545L196.208 118.38V118.876C196.208 122.019 193.557 124.665 190.409 124.665H188.918L197.699 134.589Z" fill="#193C48"/>
<path d="M196.067 135.591C196.731 136.4 197.063 137.531 197.063 138.501C197.063 141.088 194.904 143.19 192.247 143.19H181.118H177.132H173.312H162.184C159.526 143.19 157.367 141.088 157.367 138.501C157.367 137.37 157.699 136.4 158.364 135.591L168.329 124.76H177.132H185.935L196.067 135.591Z" fill="#A0BC79"/>
<path d="M187.253 89.0709C187.253 88.5769 187.092 88.083 186.769 87.7536L179.345 79.3562C178.538 78.5329 178.054 78.2036 177.57 78.2036C177.085 78.2036 176.44 78.5329 175.794 79.3562L168.37 87.7536C168.047 88.083 167.886 88.5769 167.886 89.0709C167.886 90.2235 168.854 91.2114 169.984 91.2114H177.57H185.155C186.285 91.0468 187.253 90.2235 187.253 89.0709ZM190.32 102.079C190.32 101.42 190.158 100.762 189.674 100.268L183.218 93.0227H177.57H171.921L165.465 100.268C164.981 100.762 164.82 101.42 164.82 102.079C164.82 103.725 166.111 105.043 167.725 105.043H177.57H187.415C189.028 105.043 190.32 103.725 190.32 102.079ZM195.646 118.215L193.87 118.38C193.87 117.556 193.547 116.898 193.063 116.239L184.832 106.854H177.57H170.307L162.076 116.239C161.592 116.898 161.269 117.556 161.269 118.38L159.494 118.215C159.655 117.063 159.978 115.91 160.785 115.087L168.047 106.854H167.886C165.304 106.854 163.206 104.713 163.206 102.079C163.206 100.926 163.528 99.9382 164.174 99.115L169.661 92.858C167.725 92.6933 166.272 91.0468 166.272 89.0709C166.272 88.2476 166.595 87.2597 167.079 86.601L174.503 78.2036C174.826 77.7096 175.31 77.3803 175.794 77.051C176.278 76.7216 176.924 76.557 177.57 76.557C178.861 76.557 179.829 77.3803 180.636 78.3682L188.06 86.7657C188.544 87.4243 188.867 88.2476 188.867 89.2356C188.867 91.2114 187.415 92.858 185.478 93.0227L190.965 99.2796C191.611 100.103 191.934 101.255 191.934 102.243C191.934 104.878 189.835 107.018 187.253 107.018H186.93L194.193 115.251C195.161 115.91 195.646 117.063 195.646 118.215Z" fill="#193C48"/>
<path d="M194.937 118.409V118.734C194.937 120.846 193.084 122.633 190.894 122.633H177.924H164.954C162.764 122.633 160.912 120.846 160.912 118.734V118.409C160.912 117.597 161.249 116.947 161.754 116.297L170.344 107.038H177.924H185.504L194.095 116.297C194.432 116.785 194.768 117.597 194.937 118.409Z" fill="#57A556"/>
<path d="M190.019 100.124C190.517 100.619 190.683 101.28 190.683 101.94C190.683 103.591 189.355 104.911 187.695 104.911H177.569H167.444C165.784 104.911 164.456 103.591 164.456 101.94C164.456 101.28 164.622 100.619 165.12 100.124L171.76 92.8608H177.569H183.379L190.019 100.124Z" fill="#A0BC79"/>
<path d="M186.661 87.3424C186.98 87.6655 187.139 88.15 187.139 88.6345C187.139 89.7651 186.182 90.7342 185.066 90.7342H177.57H170.073C168.957 90.7342 168 89.7651 168 88.6345C168 88.15 168.159 87.6655 168.478 87.3424L175.815 79.1053C176.613 78.2977 177.091 77.9747 177.57 77.9747C178.048 77.9747 178.686 78.2977 179.324 79.1053L186.661 87.3424Z" fill="#57A556"/>
<path d="M82.2178 74.1977C82.0761 84.226 74.0445 92.2072 64.1846 92.5957L64.5503 66.7331C64.5578 66.2053 64.2109 65.8484 63.683 65.841C63.1552 65.8335 62.7984 66.1804 62.7909 66.7082L62.4253 92.5708C52.5803 91.9037 44.7776 83.6987 44.9194 73.6704C45.0637 63.4661 53.628 55.1406 63.8323 55.2848C74.0366 55.4291 82.3646 63.8175 82.2178 74.1977Z" fill="#57A556"/>
<path d="M78.0664 96.4051C82.2863 96.4051 85.7722 99.7722 85.7722 103.848C85.7722 107.924 82.2863 111.291 78.0664 111.291C76.5987 111.291 75.1309 110.937 73.8466 110.051L79.9011 102.253C80.2681 101.899 80.0846 101.19 79.7177 100.835C79.3507 100.481 78.6169 100.658 78.2499 101.013L72.1954 108.81C70.9111 107.57 70.1772 105.797 70.1772 103.848C70.3607 99.7722 73.8466 96.4051 78.0664 96.4051Z" fill="#7DCC7A"/>
<path d="M53.8732 91.2632C52.9722 92.1096 52.0711 92.956 51.17 93.4639L43.0601 81.6142C42.6997 81.2757 42.159 81.1064 41.7986 81.2757C41.2579 81.6142 41.2579 82.1221 41.4381 82.4606L49.3678 94.141C47.926 94.6488 46.3041 94.9874 44.6821 94.9874C38.014 94.9874 32.6074 89.909 32.6074 83.6456C32.6074 77.7208 37.6535 72.8117 43.781 72.3038C43.781 72.9809 43.6008 73.4888 43.6008 74.1659C43.6008 81.6142 47.7458 87.8776 53.8732 91.2632Z" fill="#7DCC7A"/>
<path d="M50.4884 93.4575C51.5222 92.772 52.3838 92.0866 53.073 91.2298C47.2146 87.8026 43.4238 81.2909 43.4238 74.0938C43.4238 73.4084 43.4238 72.8943 43.5961 72.2089C37.5653 72.723 32.913 77.6924 32.913 83.69C32.913 90.0303 38.0822 95.1711 44.4576 95.1711C46.0084 95.1711 47.5592 94.8283 48.9376 94.3143L41.3561 82.4905C41.0115 82.1477 41.1838 81.4623 41.7007 81.2909C42.0453 80.9482 42.7346 81.1196 42.9069 81.6337L50.4884 93.4575ZM62.7222 112.307V93.9715C59.9653 93.8002 57.2084 93.1147 54.9684 91.9152C53.9346 93.1147 52.9007 94.1429 51.6946 94.8283L62.7222 112.307ZM64.4453 92.0866C74.0946 91.5725 81.8484 83.69 81.8484 73.9225C81.8484 63.9836 73.5776 55.7584 63.5838 55.7584C53.5899 55.7584 45.3192 63.9836 45.3192 73.9225C45.3192 83.69 53.073 91.5725 62.7222 92.0866V67.0681C62.7222 66.554 63.0669 66.2113 63.5838 66.2113C64.1007 66.2113 64.4453 66.554 64.4453 67.0681V92.0866ZM85.2946 103.568C85.2946 99.6264 82.0207 96.3706 78.0576 96.3706C74.0946 96.3706 70.8207 99.6264 70.8207 103.568C70.8207 105.453 71.5099 107.166 72.7161 108.366L78.4023 100.826C78.7469 100.483 79.2638 100.312 79.7807 100.655C80.1253 100.997 80.2976 101.511 79.953 102.025L74.2669 109.565C75.473 110.251 76.6792 110.765 78.2299 110.765C82.0207 110.765 85.2946 107.509 85.2946 103.568ZM78.0576 94.4856C83.0546 94.4856 87.1899 98.5982 87.1899 103.568C87.1899 108.537 83.0546 112.65 78.0576 112.65C76.1623 112.65 74.4392 112.136 73.0607 111.107L64.6176 122.246V151.548C64.6176 152.062 64.273 152.405 63.7561 152.405C63.2392 152.405 62.8946 152.062 62.8946 151.548V115.563L50.1438 95.6851C48.4207 96.3706 46.5253 96.8846 44.6299 96.8846C37.2207 96.8846 31.1899 90.8871 31.1899 83.5186C31.1899 76.3215 36.8761 70.4953 44.113 70.1526C45.8361 60.8992 54.1069 53.8734 63.9284 53.8734C74.9561 53.8734 84.0884 62.7841 84.0884 73.9225C84.0884 84.7181 75.473 93.4575 64.9622 93.9715V119.161L72.0269 109.908C70.4761 108.194 69.4422 105.967 69.4422 103.568C69.0976 98.5982 73.0607 94.4856 78.0576 94.4856Z" fill="#193C48"/>
<path d="M39.6963 46.5404C38.7185 46.5404 37.9364 47.3226 37.9364 48.3003C37.9364 49.2781 38.7185 50.0603 39.6963 50.0603C40.674 50.0603 41.4562 49.2781 41.4562 48.3003C41.4562 47.3226 40.674 46.5404 39.6963 46.5404ZM39.6963 51.038C38.1319 51.038 36.8608 49.7669 36.8608 48.2026C36.8608 46.6382 38.1319 45.3671 39.6963 45.3671C41.2607 45.3671 42.5317 46.6382 42.5317 48.2026C42.5317 49.7669 41.2607 51.038 39.6963 51.038Z" fill="#193C48"/>
<path d="M122.26 151.676C123.979 151.676 125.432 150.238 125.432 148.539C125.432 147.624 125.036 146.84 124.375 146.317C124.111 146.056 124.111 145.663 124.375 145.271C124.771 144.748 124.904 144.095 124.904 143.441C124.904 141.742 123.45 140.304 121.732 140.304C121.467 140.304 121.071 140.304 120.807 140.435C120.41 140.566 120.014 140.304 119.882 140.043V139.651V139.52V139.258C119.882 137.559 118.428 136.121 116.71 136.121C115.256 136.121 114.066 137.036 113.67 138.474C113.538 138.736 113.406 138.866 113.141 138.997C112.877 139.128 112.481 139.128 112.348 138.866C111.688 138.213 110.895 137.821 110.102 137.821C108.384 137.821 106.93 139.258 106.93 140.958C106.93 141.611 107.062 142.134 107.458 142.657C107.723 142.918 107.591 143.441 107.326 143.703H107.194L107.062 143.833C105.74 144.618 104.815 145.925 104.815 147.493C104.815 149.846 106.666 151.676 109.044 151.676H122.26ZM125.829 145.663C126.49 146.448 126.886 147.493 126.886 148.539C126.886 151.023 124.771 153.114 122.26 153.114H109.177C106.005 153.114 103.494 150.63 103.494 147.493C103.494 145.663 104.419 143.833 106.005 142.788C105.74 142.134 105.608 141.611 105.608 140.958C105.608 138.474 107.723 136.383 110.234 136.383C111.159 136.383 112.084 136.644 112.877 137.167C113.67 135.729 115.256 134.684 116.974 134.684C119.353 134.684 121.335 136.514 121.467 138.866H121.864C124.375 138.866 126.49 140.958 126.49 143.441C126.49 144.226 126.225 145.01 125.829 145.663Z" fill="#193C48"/>
<path d="M125.469 148.551C125.469 150.255 124.01 151.696 122.286 151.696H109.156C106.768 151.696 104.912 149.862 104.912 147.503C104.912 145.93 105.707 144.488 107.166 143.833C107.166 143.833 107.299 143.833 107.299 143.702H107.432C107.697 143.44 107.829 143.047 107.564 142.654C107.166 142.13 107.034 141.474 107.034 140.95C107.034 139.246 108.493 137.805 110.217 137.805C111.145 137.805 111.941 138.198 112.471 138.853C112.737 139.115 113.002 139.115 113.267 138.984C113.532 138.984 113.665 138.722 113.798 138.46C114.195 137.15 115.389 136.101 116.848 136.101C118.572 136.101 120.031 137.543 120.031 139.246V139.509V139.64V140.033C120.164 140.426 120.561 140.557 120.959 140.426C121.225 140.295 121.622 140.295 121.888 140.295C123.612 140.295 125.071 141.736 125.071 143.44C125.071 144.095 124.805 144.751 124.54 145.275C124.275 145.537 124.275 146.061 124.54 146.323C125.071 146.847 125.469 147.765 125.469 148.551Z" fill="#7DCC7A"/>
<path d="M71.9473 151.289C74.1861 151.289 76.0804 149.464 76.0804 147.307C76.0804 146.146 75.5637 145.151 74.7027 144.487C74.3583 144.155 74.3583 143.657 74.7027 143.16C75.2193 142.496 75.3915 141.667 75.3915 140.837C75.3915 138.68 73.4972 136.855 71.2585 136.855C70.9141 136.855 70.3975 136.855 70.053 137.021C69.5364 137.187 69.0198 136.855 68.8476 136.524V136.026V135.86V135.528C68.8476 133.371 66.9533 131.546 64.7146 131.546C62.8203 131.546 61.2704 132.708 60.7538 134.533C60.5815 134.865 60.4093 135.03 60.0649 135.196C59.7205 135.362 59.2039 135.362 59.0317 135.03C58.1706 134.201 57.1374 133.703 56.1041 133.703C53.8654 133.703 51.9711 135.528 51.9711 137.685C51.9711 138.514 52.1433 139.178 52.6599 139.842C53.0043 140.173 52.8321 140.837 52.4877 141.169H52.3155L52.1433 141.335C50.4212 142.33 49.2157 143.989 49.2157 145.98C49.2157 148.966 51.6267 151.289 54.7264 151.289H71.9473ZM76.597 143.657C77.458 144.653 77.9747 145.98 77.9747 147.307C77.9747 150.459 75.2193 153.114 71.9473 153.114H54.8986C50.7656 153.114 47.4937 149.962 47.4937 145.98C47.4937 143.657 48.6991 141.335 50.7656 140.008C50.4212 139.178 50.249 138.514 50.249 137.685C50.249 134.533 53.0043 131.878 56.2763 131.878C57.4818 131.878 58.6872 132.21 59.7205 132.874C60.7538 131.049 62.8203 129.722 65.059 129.722C68.1587 129.722 70.7419 132.044 70.9141 135.03H71.4307C74.7027 135.03 77.458 137.685 77.458 140.837C77.458 141.833 77.1136 142.828 76.597 143.657Z" fill="#193C48"/>
<path d="M75.848 147.55C75.848 149.796 73.9866 151.696 71.7869 151.696H55.0349C51.9891 151.696 49.6201 149.278 49.6201 146.168C49.6201 144.095 50.6354 142.195 52.4967 141.331C52.4967 141.331 52.6659 141.331 52.6659 141.159H52.8351C53.1736 140.813 53.3428 140.295 53.0044 139.777C52.4967 139.086 52.3275 138.222 52.3275 137.531C52.3275 135.285 54.1888 133.385 56.3886 133.385C57.5731 133.385 58.5883 133.903 59.2652 134.767C59.6036 135.112 59.942 135.112 60.2805 134.94C60.6189 134.94 60.7881 134.594 60.9573 134.249C61.465 132.521 62.9879 131.139 64.8492 131.139C67.0489 131.139 68.9103 133.039 68.9103 135.285V135.631V135.803V136.322C69.0795 136.84 69.5871 137.013 70.0948 136.84C70.4332 136.667 70.9408 136.667 71.2792 136.667C73.479 136.667 75.3403 138.567 75.3403 140.813C75.3403 141.677 75.0019 142.541 74.6635 143.232C74.3251 143.577 74.3251 144.268 74.6635 144.614C75.3403 145.305 75.848 146.514 75.848 147.55Z" fill="#A0BC79"/>
<path d="M58.3386 18.4304H32.3959C32.0977 18.4304 31.8989 18.1469 31.8989 17.7215C31.8989 17.2962 32.0977 17.0127 32.3959 17.0127H58.3386C58.6368 17.0127 58.8356 17.2962 58.8356 17.7215C58.8356 18.1469 58.6368 18.4304 58.3386 18.4304Z" fill="#233A47"/>
<path d="M102.897 32.6076H77.0541C76.7559 32.6076 76.5571 32.4659 76.5571 32.2532C76.5571 32.0405 76.7559 31.8988 77.0541 31.8988H102.997C103.295 31.8988 103.494 32.0405 103.494 32.2532C103.494 32.395 103.196 32.6076 102.897 32.6076Z" fill="#193C48"/>
<path d="M113.62 13.4684H104.709C104.405 13.4684 104.203 13.3266 104.203 13.114C104.203 12.9013 104.405 12.7595 104.709 12.7595H113.62C113.924 12.7595 114.127 12.9013 114.127 13.114C114.127 13.3266 113.924 13.4684 113.62 13.4684Z" fill="#69C3D5"/>
<path d="M140.58 36.8608H135.167C134.877 36.8608 134.684 36.5772 134.684 36.1519C134.684 35.7266 134.877 35.4431 135.167 35.4431H140.58C140.87 35.4431 141.063 35.7266 141.063 36.1519C141.063 36.5772 140.87 36.8608 140.58 36.8608Z" fill="#94DCEC"/>
<path d="M226.68 11.3418H226.474C226.165 11.2493 226.062 10.972 226.165 10.6946C227.504 7.27355 231.213 4.96205 235.23 4.96205C236.672 4.96205 238.011 5.23943 239.247 5.79419C239.556 5.88665 239.659 6.16403 239.556 6.44141C239.453 6.71879 239.144 6.81125 238.835 6.71879C237.702 6.25649 236.466 5.97911 235.23 5.97911C231.625 5.97911 228.431 8.01323 227.195 11.0644C227.195 11.2493 226.989 11.3418 226.68 11.3418Z" fill="#2E4652"/>
<path d="M216.669 17.0127C216.389 17.0127 216.203 16.8048 216.203 16.4929C216.203 16.181 216.203 15.7651 216.296 15.4532C216.762 11.9183 219.558 9.21522 222.726 9.21522C224.124 9.21522 225.522 9.73505 226.641 10.6707C226.827 10.8787 226.92 11.1906 226.734 11.5025C226.548 11.7104 226.268 11.8144 225.988 11.6064C225.056 10.7747 223.845 10.3588 222.726 10.3588C220.024 10.3588 217.694 12.6461 217.228 15.6611C217.228 15.973 217.135 16.2849 217.135 16.5968C217.228 16.8048 216.948 17.0127 216.669 17.0127Z" fill="#2E4652"/>
<path d="M213.292 23.3924C211.013 23.3924 209.114 21.2981 209.114 18.7848C209.114 16.2716 211.013 14.1772 213.292 14.1772C214.336 14.1772 215.285 14.5961 216.045 15.3291C216.235 15.5386 216.235 15.8527 216.14 16.1669C215.95 16.3763 215.665 16.3763 215.38 16.2716C214.811 15.748 214.051 15.4339 213.292 15.4339C211.582 15.4339 210.158 17.0046 210.158 18.8896C210.158 20.7745 211.582 22.3453 213.292 22.3453C213.576 22.3453 213.766 22.5547 213.766 22.8688C213.766 23.0783 213.576 23.3924 213.292 23.3924Z" fill="#2E4652"/>
<path d="M249.241 23.3924C248.948 23.3924 248.753 23.195 248.753 22.8989C248.753 22.6028 248.948 22.4054 249.241 22.4054C255.1 22.4054 259.787 17.569 259.787 11.7456C259.787 5.92216 255.002 1.08575 249.241 1.08575C245.335 1.08575 241.722 3.2572 239.867 6.71177C239.769 7.00788 239.378 7.10658 239.183 6.90918C238.89 6.81047 238.793 6.41567 238.988 6.21826C241.038 2.36888 244.944 2.86102e-05 249.241 2.86102e-05C255.686 2.86102e-05 260.861 5.23124 260.861 11.7456C260.861 18.2599 255.686 23.3924 249.241 23.3924Z" fill="#2E4652"/>
<path d="M213.578 23.3924H196.852C196.554 23.3924 196.354 23.1089 196.354 22.6836C196.354 22.2583 196.554 21.9747 196.852 21.9747H213.578C213.877 21.9747 214.076 22.2583 214.076 22.6836C214.076 22.9671 213.877 23.3924 213.578 23.3924Z" fill="#2E4652"/>
<path d="M266.032 23.3924H238.676C238.377 23.3924 238.177 23.1089 238.177 22.6836C238.177 22.2583 238.377 21.9747 238.676 21.9747H266.032C266.332 21.9747 266.532 22.2583 266.532 22.6836C266.532 22.9671 266.332 23.3924 266.032 23.3924Z" fill="#2E4652"/>
<path d="M232.017 23.3924H228.723C228.441 23.3924 228.253 23.1089 228.253 22.6836C228.253 22.2583 228.441 21.9747 228.723 21.9747H232.017C232.299 21.9747 232.488 22.2583 232.488 22.6836C232.582 22.9671 232.299 23.3924 232.017 23.3924Z" fill="#2E4652"/>
<path d="M221.378 29.7722H208.9C208.603 29.7722 208.405 29.6304 208.405 29.4177C208.405 29.2051 208.603 29.0633 208.9 29.0633H221.378C221.676 29.0633 221.874 29.2051 221.874 29.4177C221.874 29.6304 221.676 29.7722 221.378 29.7722Z" fill="#69C3D5"/>
<path d="M257.5 29.7722H242.227C241.924 29.7722 241.722 29.6304 241.722 29.4177C241.722 29.2051 241.924 29.0633 242.227 29.0633H257.5C257.803 29.0633 258.006 29.2051 258.006 29.4177C258.107 29.6304 257.803 29.7722 257.5 29.7722Z" fill="#69C3D5"/>
<path d="M274.743 12.8339L276.72 15.015L278.697 12.8339L276.72 10.6528L274.743 12.8339ZM276.81 16.3038C276.72 16.3038 276.54 16.2047 276.451 16.1055L273.755 13.1313C273.575 12.933 273.575 12.5365 273.755 12.3382L276.451 9.36393C276.63 9.16565 276.99 9.16565 277.169 9.36393L279.865 12.3382C280.045 12.5365 280.045 12.933 279.865 13.1313L277.169 16.1055C276.99 16.3038 276.9 16.3038 276.81 16.3038Z" fill="#193C48"/>
<path d="M174.582 5.67091H165.671C165.367 5.67091 165.165 5.52914 165.165 5.31648C165.165 5.10383 165.367 4.96205 165.671 4.96205H174.582C174.886 4.96205 175.089 5.10383 175.089 5.31648C175.089 5.52914 174.886 5.67091 174.582 5.67091Z" fill="#193C48"/>
<path d="M268.861 44.6583H259.949C259.645 44.6583 259.443 44.5165 259.443 44.3038C259.443 44.0912 259.645 43.9494 259.949 43.9494H268.861C269.164 43.9494 269.367 44.0912 269.367 44.3038C269.367 44.5165 269.164 44.6583 268.861 44.6583Z" fill="#94DCEC"/>
<path d="M195.854 1.41775H190.456C190.167 1.41775 189.975 1.1342 189.975 0.708887C189.975 0.28357 190.167 2.59876e-05 190.456 2.59876e-05H195.854C196.143 2.59876e-05 196.335 0.28357 196.335 0.708887C196.432 1.1342 196.143 1.41775 195.854 1.41775Z" fill="#94DCEC"/>
<path d="M219.747 144.147V152.118H217.519V144.147H218.633H219.747Z" fill="#DDC8BB"/>
<path d="M219.747 152.118V144.147H218.633H217.519V152.118H219.747ZM227.747 143.15L218.532 88.8495L209.317 143.15H216.81H218.532H220.253H227.747ZM228.962 143.549C228.962 143.748 228.962 143.848 228.861 143.948C228.76 144.047 228.557 144.147 228.456 144.147H220.861V152.616C220.861 152.915 220.658 153.114 220.355 153.114H217.013C216.709 153.114 216.507 152.915 216.507 152.616V144.147H208.912C208.709 144.147 208.608 144.047 208.507 143.948C208.405 143.848 208.405 143.649 208.405 143.549L218.127 85.4619V85.3622V85.2626V85.163L218.228 85.0633H218.329H218.431H218.532H218.633H218.734H218.836L218.937 85.163V85.2626V85.3622V85.4619L228.962 143.549Z" fill="#193C48"/>
<path d="M218.633 88.8495L227.747 143.15H220.355H218.633H216.912H209.418L218.633 88.8495Z" fill="#57A556"/>
<path d="M146.978 144.614V152.17H144.981V144.614H145.98H146.978Z" fill="#DDC8BB"/>
<path d="M146.979 152.17V144.614H145.98H144.981V152.17H146.979ZM154.151 143.669L145.889 92.1966L137.627 143.669H144.346H145.889H147.432H154.151ZM155.24 144.047C155.24 144.236 155.24 144.331 155.15 144.425C155.059 144.519 154.877 144.614 154.786 144.614H147.977V152.642C147.977 152.925 147.796 153.114 147.523 153.114H144.527C144.255 153.114 144.073 152.925 144.073 152.642V144.614H137.264C137.082 144.614 136.992 144.519 136.901 144.425C136.81 144.331 136.81 144.142 136.81 144.047L145.526 88.9854V88.891V88.7965V88.7021L145.617 88.6076H145.707H145.798H145.889H145.98H146.071H146.161L146.252 88.7021V88.7965V88.891V88.9854L155.24 144.047Z" fill="#193C48"/>
<path d="M145.98 92.1965L154.151 143.669H147.523H145.98H144.436H137.718L145.98 92.1965Z" fill="#57A556"/>
<path d="M245.975 83.175C245.975 89.7589 245.274 95.3453 243.973 99.1361C242.572 103.126 240.571 105.321 237.969 105.62V89.7589L242.372 84.7711C242.572 84.5716 242.572 84.1726 242.372 83.973C242.172 83.7735 241.771 83.7735 241.571 83.973L237.969 88.0631V78.2869L242.672 72.9998C242.872 72.8003 242.872 72.4012 242.672 72.2017C242.472 72.0022 242.072 72.0022 241.872 72.2017L237.969 76.591V62.9243C237.969 62.6251 237.768 62.4255 237.468 62.4255C237.168 62.4255 236.968 62.6251 236.968 62.9243V71.8027L234.666 69.3088C234.466 69.1093 234.166 69.1093 233.866 69.3088C233.665 69.5083 233.665 69.8076 233.866 70.1068L236.968 73.4986V82.8757L233.365 78.8854C233.165 78.6859 232.865 78.6859 232.565 78.8854C232.364 79.085 232.364 79.3842 232.565 79.6835L236.968 84.5716V93.2504L234.666 90.7565C234.466 90.557 234.166 90.557 233.866 90.7565C233.665 90.956 233.665 91.2553 233.866 91.5546L236.968 94.9463V105.62C234.366 105.321 232.364 103.226 230.963 99.1361C229.662 95.2456 228.962 89.7589 228.962 83.175C228.962 64.9195 233.966 45.3671 237.468 45.3671C241.071 45.3671 245.975 64.9195 245.975 83.175Z" fill="#7DCC7A"/>
<path d="M229.638 99.5801C228.342 95.6146 227.544 90.0629 227.544 83.3216C227.544 75.0933 228.641 65.477 230.435 57.6452C231.532 52.7875 233.924 44.6583 237.114 44.6583C240.304 44.6583 242.597 52.7875 243.793 57.6452C245.587 65.477 246.684 75.0933 246.684 83.3216C246.684 89.9638 245.986 95.6146 244.59 99.5801C243.095 104.041 240.703 106.52 237.612 106.718V152.618C237.612 152.916 237.413 153.114 237.114 153.114C236.815 153.114 236.616 152.916 236.616 152.618V106.718C233.525 106.52 231.233 104.14 229.638 99.5801ZM228.741 83.3216C228.741 89.8647 229.438 95.4163 230.734 99.1835C232.13 103.149 234.124 105.33 236.715 105.627V95.0198L233.625 91.6491C233.426 91.4508 233.426 91.0543 233.625 90.856C233.824 90.6577 234.223 90.6577 234.423 90.856L236.715 93.3344V84.7095L232.329 79.8518C232.13 79.6536 232.13 79.257 232.329 79.0587C232.529 78.8605 232.927 78.8605 233.127 79.0587L236.715 83.0242V73.7054L233.625 70.3347C233.426 70.1364 233.426 69.7399 233.625 69.5416C233.824 69.3433 234.223 69.3433 234.423 69.5416L236.715 72.02V63.1969C236.715 62.8994 236.915 62.7012 237.214 62.7012C237.513 62.7012 237.712 62.8994 237.712 63.1969V76.7786L241.6 72.4166C241.799 72.2183 242.098 72.2183 242.397 72.4166C242.597 72.6148 242.597 72.9123 242.397 73.2097L237.712 78.4639V88.1793L241.301 84.1147C241.5 83.9165 241.799 83.9165 242.098 84.1147C242.298 84.313 242.298 84.6104 242.098 84.9078L237.712 89.8647V105.627C240.304 105.33 242.298 103.248 243.693 99.1835C244.989 95.3172 245.687 89.8647 245.687 83.3216C245.687 65.1796 240.703 45.7488 237.214 45.7488C233.625 45.7488 228.741 65.1796 228.741 83.3216Z" fill="#193C48"/>
<path d="M236.408 134.684C238.381 134.684 240.057 136.336 240.057 138.281V138.572V138.669V138.961C240.156 139.253 240.452 139.35 240.747 139.253C241.142 139.155 241.438 139.058 241.832 139.058C243.805 139.058 245.481 140.711 245.481 142.655C245.481 143.433 245.284 144.113 244.791 144.697C244.594 144.891 244.594 145.28 244.791 145.474C245.58 146.155 245.975 147.127 245.975 148.099C245.975 150.044 244.397 151.696 242.325 151.696H228.124C225.461 151.696 223.291 149.557 223.291 146.933C223.291 145.183 224.277 143.627 225.855 142.752L225.954 142.655C225.954 142.655 226.052 142.655 226.052 142.558C226.25 142.364 226.348 142.072 226.151 141.877C225.757 141.294 225.559 140.614 225.559 139.836C225.559 137.892 227.137 136.239 229.208 136.239C230.195 136.239 231.181 136.628 231.871 137.406C232.069 137.6 232.266 137.6 232.562 137.503C232.759 137.503 232.858 137.308 232.956 137.114C233.351 135.753 234.731 134.684 236.408 134.684Z" fill="#A0BC79"/>
<path d="M242.025 137.93C244.658 137.93 246.886 140.014 246.886 142.694C246.886 143.587 246.582 144.48 246.177 145.175C246.987 146.068 247.393 147.16 247.393 148.35C247.393 150.931 245.266 153.114 242.532 153.114H227.949C224.608 153.114 221.874 150.434 221.874 147.16C221.874 145.075 222.987 143.19 224.81 142.098C224.506 141.404 224.304 140.709 224.304 139.915C224.304 137.335 226.43 135.151 229.165 135.151C230.279 135.151 231.291 135.548 232.101 136.144C232.81 134.457 234.633 133.266 236.557 133.266C239.19 133.266 241.317 135.35 241.418 137.93H242.025ZM225.317 139.915C225.317 140.61 225.519 141.404 225.924 141.999C226.127 142.197 226.025 142.594 225.823 142.694L225.722 142.793L225.62 142.892C224 143.785 222.987 145.373 222.987 147.16C222.987 149.839 225.215 152.022 227.949 152.022H242.532C244.557 152.022 246.279 150.335 246.279 148.35C246.279 147.358 245.874 146.366 245.063 145.671C244.861 145.472 244.861 145.175 245.063 144.877C245.57 144.282 245.772 143.488 245.772 142.793C245.772 140.808 244.051 139.121 242.025 139.121C241.62 139.121 241.215 139.22 240.912 139.32C240.608 139.419 240.304 139.22 240.203 139.022V138.724V138.625V138.327C240.203 136.342 238.582 134.655 236.456 134.655C234.734 134.655 233.317 135.747 232.81 137.335C232.709 137.533 232.608 137.632 232.405 137.732C232.203 137.831 231.899 137.831 231.696 137.632C230.987 136.938 229.975 136.442 228.962 136.442C227.038 136.243 225.317 137.831 225.317 139.915Z" fill="#193C48"/>
<path d="M220.457 71.595C224.406 71.595 227.544 74.6734 227.544 78.3291C227.544 82.081 224.304 85.0633 220.457 85.0633C218.938 85.0633 217.521 84.5823 216.306 83.8127L221.976 76.6937C222.178 76.5013 222.077 76.1165 221.874 75.9241C221.672 75.7317 221.267 75.8279 221.064 76.0203L215.496 83.0431C214.179 81.7924 213.369 80.0608 213.369 78.2329C213.268 74.5772 216.508 71.595 220.457 71.595Z" fill="#7DCC7A"/>
<path d="M224.709 50.989C224.709 60.2062 217.18 67.7565 207.844 67.9526V44.6154C207.844 44.3212 207.643 44.1251 207.342 44.1251C207.041 44.1251 206.84 44.3212 206.84 44.6154V68.0507C197.504 67.7565 189.975 60.2062 189.975 51.087C189.975 41.6737 197.805 34.0253 207.442 34.0253C217.079 34.0253 224.709 41.6737 224.709 50.989Z" fill="#A0BC79"/>
<path d="M188.834 50.8911C188.834 57.6221 192.429 63.5612 197.772 66.7287C196.898 67.8176 195.926 68.7084 194.76 69.4013L187.571 58.018C187.377 57.8201 187.085 57.7211 186.891 57.8201C186.697 58.018 186.599 58.315 186.697 58.513L193.886 69.8963C192.526 70.5891 190.971 70.8861 189.417 70.8861C183.49 70.8861 178.633 65.9368 178.633 59.8988C178.633 53.9597 183.296 49.1094 189.028 48.9114C188.931 49.5053 188.834 50.1982 188.834 50.8911Z" fill="#57A556"/>
<path d="M207.343 33.6958C197.734 33.6958 189.927 41.4119 189.927 50.9086C189.927 60.2075 197.434 67.8247 206.742 68.0226V44.3796C206.742 44.0829 206.942 43.885 207.243 43.885C207.543 43.885 207.743 44.0829 207.743 44.3796V68.0226C217.051 67.7258 224.558 60.1086 224.558 50.9086C224.658 41.4119 216.851 33.6958 207.343 33.6958ZM177.215 59.8118C177.215 53.2828 182.52 47.842 189.126 47.7431C190.627 39.1366 198.234 32.6076 207.343 32.6076C217.552 32.6076 225.759 40.8184 225.759 50.8097C225.759 60.7022 217.752 68.715 207.843 69.0118V93.644L215.25 84.0483C213.648 82.5645 212.747 80.487 212.747 78.2118C212.747 73.7602 216.351 70.1989 220.855 70.1989C225.359 70.1989 228.962 73.7602 228.962 78.2118C228.962 82.6634 225.359 86.2247 220.855 86.2247C219.053 86.2247 217.452 85.6311 216.05 84.7408L207.843 95.4246V151.91C207.843 152.207 207.643 152.405 207.343 152.405C207.042 152.405 206.842 152.207 206.842 151.91V89.3902L194.731 70.6935C193.13 71.4849 191.328 71.8806 189.526 71.8806C182.62 71.8806 177.215 66.4398 177.215 59.8118ZM227.861 78.2118C227.861 74.3537 224.658 71.2871 220.855 71.2871C216.951 71.2871 213.848 74.4527 213.848 78.2118C213.848 80.1903 214.649 81.872 215.95 83.158L221.455 75.9365C221.656 75.7387 221.956 75.6397 222.256 75.8376C222.456 76.0354 222.556 76.3322 222.356 76.629L216.751 83.9494C217.952 84.7408 219.353 85.2354 220.855 85.2354C224.758 85.2354 227.861 82.0698 227.861 78.2118ZM198.134 66.6376C192.629 63.472 188.926 57.5366 188.926 50.8097C188.926 50.1172 188.926 49.4248 189.026 48.7323C183.121 48.9301 178.316 53.7775 178.316 59.7129C178.316 65.7473 183.321 70.6935 189.426 70.6935C191.028 70.6935 192.629 70.2978 194.031 69.7043L186.724 58.4269C186.524 58.229 186.624 57.8334 186.924 57.7344C187.224 57.5366 187.525 57.6355 187.625 57.9323L195.031 69.3086C196.132 68.6161 197.233 67.7258 198.134 66.6376ZM206.742 87.4118V69.0118C203.94 68.9129 201.337 68.2204 199.035 67.1322C198.034 68.4183 196.933 69.4075 195.532 70.1989L206.742 87.4118Z" fill="#193C48"/>
</svg>
