<?xml version="1.0" encoding="utf-8"?>
<!-- Generator: Adobe Illustrator 17.0.0, SVG Export Plug-In . SVG Version: 6.00 Build 0)  -->
<!DOCTYPE svg PUBLIC "-//W3C//DTD SVG 1.1//EN" "http://www.w3.org/Graphics/SVG/1.1/DTD/svg11.dtd">
<svg version="1.1" id="Warstwa_1" xmlns="http://www.w3.org/2000/svg" xmlns:xlink="http://www.w3.org/1999/xlink" x="0px" y="0px"
	 width="34px" height="34px" viewBox="0 0 34 34" enable-background="new 0 0 34 34" xml:space="preserve">
<g>
	<path fill="#1d3238" d="M25.018,33.69c-7.997,0-15.993,0-23.99,0c-0.319,0-0.717-0.375-0.717-0.717c0-10.648,0-21.295,0-31.943
		c0-0.437,0.159-0.72,0.717-0.717c6.823,0,13.646,0,20.47,0c0.076,0,0.036-0.006,0.076,0c2.348,0.343,4.221,2.533,4.17,5.018
		c-0.043,2.137-0.009,4.275-0.009,6.413c0,0.115,0,0.231,0,0.322c0.049,0.028,0.058,0.037,0.067,0.038
		c0.38,0.004,0.759,0.002,1.139,0.011c0.523,0.012,0.925,0.402,0.946,0.923c0.011,0.282,0.028,0.567-0.001,0.846
		c-0.036,0.345,0.059,0.555,0.404,0.688c0.316,0.122,0.606,0.463,0.899,0.454c0.316-0.01,0.623-0.314,0.934-0.49
		c0.666-0.377,1.177-0.246,1.557,0.411c0.673,1.161,1.339,2.326,2.008,3.49c0,0.174,0,0.348,0,0.522
		c-0.169,0.421-0.514,0.671-0.906,0.828c-0.532,0.214-0.787,0.544-0.659,1.128c0.025,0.113,0.019,0.241-0.004,0.356
		c-0.06,0.294,0.079,0.436,0.325,0.576c0.47,0.267,1.02,0.451,1.244,1.023c0,0.174,0,0.348,0,0.522
		c-0.669,1.163-1.335,2.327-2.007,3.488c-0.38,0.657-0.892,0.79-1.556,0.415c-0.254-0.144-0.51-0.286-0.757-0.442
		c-0.145-0.092-0.259-0.096-0.409,0.004c-0.279,0.185-0.568,0.359-0.869,0.505c-0.169,0.081-0.209,0.182-0.204,0.351
		c0.01,0.336,0.007,0.672,0.001,1.008c-0.012,0.598-0.409,0.99-1.007,0.995c-0.375,0.003-0.751,0.001-1.147,0.001
		c0,0.94,0,0.94,0.009,2.711C25.744,33.015,25.778,33.674,25.018,33.69z M23.764,29.713c-0.262,0-0.509,0.003-0.756-0.001
		c-0.57-0.009-0.976-0.417-0.986-0.99c-0.005-0.271-0.02-0.545,0.004-0.814c0.028-0.314-0.045-0.522-0.374-0.639
		c-0.24-0.086-0.463-0.24-0.67-0.395c-0.17-0.127-0.298-0.112-0.464-0.005c-0.264,0.17-0.539,0.325-0.815,0.475
		c-0.564,0.306-1.096,0.169-1.422-0.387c-0.643-1.094-1.278-2.192-1.903-3.296c-0.316-0.558-0.159-1.084,0.396-1.419
		c0.269-0.162,0.555-0.3,0.811-0.48c0.1-0.07,0.187-0.223,0.197-0.345c0.027-0.335,0.027-0.674,0-1.009
		c-0.01-0.122-0.097-0.275-0.196-0.345c-0.266-0.186-0.561-0.327-0.838-0.498c-0.534-0.33-0.681-0.852-0.37-1.4
		c0.631-1.113,1.27-2.221,1.921-3.323c0.309-0.524,0.839-0.658,1.375-0.375c0.287,0.152,0.572,0.312,0.844,0.488
		c0.167,0.108,0.29,0.118,0.463-0.003c0.333-0.232,0.827-0.355,0.996-0.664c0.174-0.318,0.035-0.805,0.045-1.217
		c0.013-0.55,0.427-0.949,0.984-0.958c0.255-0.004,0.51-0.001,0.754-0.001c0-2.005,0-3.956,0-5.933c-0.125,0-0.231,0-0.338,0
		c-0.836,0-1.673,0.002-2.509-0.001c-0.654-0.002-1.043-0.397-1.045-1.058c-0.001-0.391,0-0.782,0-1.173c0-0.551,0-1.101,0-1.659
		c-5.883,0-11.731,0-17.58,0c0,9.822,0,19.624,0,29.423c7.173,0,14.324,0,21.476,0C23.764,31.039,23.764,30.392,23.764,29.713z
		 M31.362,23.491c-0.276-0.159-0.531-0.3-0.781-0.452c-0.45-0.274-0.56-0.639-0.52-1.161c0.05-0.643,0.049-1.296-0.002-1.938
		c-0.04-0.517,0.075-0.883,0.528-1.157c0.249-0.151,0.503-0.293,0.775-0.45c-0.328-0.567-0.646-1.116-0.969-1.674
		c-0.293,0.168-0.554,0.323-0.82,0.467c-0.404,0.22-0.802,0.2-1.152-0.099c-0.543-0.464-1.148-0.811-1.816-1.058
		c-0.47-0.174-0.67-0.491-0.673-1.002c-0.002-0.29,0-0.58,0-0.875c-0.667,0-1.3,0-1.953,0c0,0.305,0.002,0.586-0.001,0.867
		c-0.006,0.547-0.228,0.806-0.715,1.047c-0.588,0.291-1.161,0.621-1.706,0.986c-0.446,0.299-0.796,0.368-1.266,0.106
		c-0.254-0.141-0.504-0.288-0.77-0.441c-0.328,0.568-0.641,1.111-0.967,1.674c0.265,0.154,0.517,0.298,0.766,0.447
		c0.442,0.265,0.626,0.625,0.531,1.122c-0.13,0.681-0.127,1.355,0.001,2.036c0.093,0.495-0.095,0.851-0.541,1.117
		c-0.247,0.148-0.497,0.291-0.757,0.443c0.329,0.57,0.643,1.111,0.967,1.672c0.273-0.157,0.524-0.305,0.778-0.446
		c0.458-0.253,0.837-0.225,1.233,0.107c0.52,0.437,1.094,0.774,1.734,1.006c0.513,0.185,0.706,0.484,0.711,1.041
		c0.003,0.288,0,0.577,0,0.864c0.674,0,1.3,0,1.953,0c0-0.297-0.001-0.578,0-0.858c0.003-0.557,0.231-0.823,0.735-1.069
		c0.58-0.283,1.145-0.608,1.678-0.969c0.461-0.312,0.802-0.381,1.293-0.108c0.251,0.14,0.5,0.282,0.76,0.429
		C30.729,24.591,31.041,24.048,31.362,23.491z M21.847,2.459c0,0.61,0,1.179,0,1.742c0.588,0,1.153,0,1.744,0
		C23.254,3.356,22.693,2.787,21.847,2.459z"/>

	<path fill="#F7F1C3" d="M31.362,23.491c-0.321,0.558-0.633,1.1-0.964,1.674c-0.26-0.147-0.509-0.29-0.76-0.429
		c-0.49-0.273-0.832-0.204-1.293,0.108c-0.534,0.362-1.099,0.686-1.678,0.969c-0.504,0.246-0.732,0.512-0.735,1.069
		c-0.001,0.28,0,0.56,0,0.858c-0.653,0-1.278,0-1.953,0c0-0.287,0.002-0.575,0-0.864c-0.005-0.556-0.198-0.855-0.711-1.041
		c-0.64-0.231-1.214-0.569-1.734-1.006c-0.396-0.332-0.774-0.36-1.233-0.107c-0.255,0.141-0.505,0.289-0.778,0.446
		c-0.324-0.561-0.638-1.103-0.967-1.672c0.26-0.152,0.51-0.295,0.757-0.443c0.445-0.266,0.633-0.622,0.541-1.117
		c-0.128-0.681-0.131-1.355-0.001-2.036c0.095-0.497-0.089-0.857-0.531-1.122c-0.249-0.149-0.501-0.293-0.766-0.447
		c0.325-0.563,0.639-1.107,0.967-1.674c0.266,0.153,0.516,0.3,0.77,0.441c0.471,0.262,0.82,0.193,1.266-0.106
		c0.545-0.365,1.118-0.695,1.706-0.986c0.487-0.241,0.709-0.501,0.715-1.047c0.003-0.281,0.001-0.562,0.001-0.867
		c0.652,0,1.285,0,1.953,0c0,0.295-0.002,0.585,0,0.875c0.003,0.511,0.203,0.828,0.673,1.002c0.669,0.248,1.273,0.595,1.816,1.058
		c0.35,0.299,0.748,0.318,1.152,0.099c0.266-0.145,0.526-0.299,0.82-0.467c0.323,0.559,0.641,1.107,0.969,1.674
		c-0.272,0.157-0.526,0.299-0.775,0.45c-0.453,0.274-0.569,0.64-0.528,1.157c0.05,0.643,0.052,1.296,0.002,1.938
		c-0.041,0.522,0.07,0.887,0.52,1.161C30.831,23.19,31.086,23.332,31.362,23.491z M28.215,20.916
		c0.001-1.817-1.444-3.263-3.262-3.262c-1.794,0.001-3.253,1.452-3.257,3.239c-0.004,1.813,1.447,3.277,3.251,3.279
		C26.765,24.174,28.214,22.73,28.215,20.916z"/>
	<path fill="#1d3238" d="M13.026,10.156c-2.607,0-5.213,0.002-7.82-0.001c-0.505-0.001-0.915-0.356-0.978-0.827
		C4.161,8.833,4.437,8.392,4.914,8.245c0.111-0.034,0.234-0.042,0.351-0.042c5.17-0.002,10.34-0.002,15.51-0.001
		c0.628,0,1.053,0.406,1.048,0.991c-0.006,0.568-0.43,0.963-1.043,0.963C18.196,10.157,15.611,10.156,13.026,10.156z"/>
	<path fill="#1d3238" d="M10.449,12.112c1.694,0,3.388-0.001,5.082,0c0.643,0,1.071,0.384,1.077,0.961c0.006,0.597-0.421,0.993-1.078,0.993
		c-3.41,0.001-6.82,0.001-10.23,0c-0.655,0-1.083-0.398-1.076-0.995c0.006-0.576,0.435-0.96,1.078-0.96
		C7.017,12.112,8.733,12.112,10.449,12.112z"/>
	<path fill="#1d3238" d="M10.418,29.713c-1.705,0-3.41,0.001-5.115,0c-0.657,0-1.085-0.395-1.079-0.992c0.005-0.577,0.434-0.963,1.075-0.963
		c3.41-0.001,6.82-0.001,10.23,0c0.658,0,1.086,0.395,1.08,0.991c-0.006,0.579-0.433,0.963-1.075,0.963
		C13.828,29.714,12.123,29.713,10.418,29.713z"/>
	<path fill="#1d3238" d="M9.404,17.979c-1.368,0-2.737,0.001-4.105,0c-0.655,0-1.083-0.398-1.076-0.995c0.007-0.576,0.436-0.959,1.078-0.96
		c2.758-0.001,5.516-0.001,8.275,0c0.643,0,1.07,0.384,1.076,0.962c0.006,0.597-0.421,0.992-1.079,0.993
		C12.184,17.979,10.794,17.979,9.404,17.979z"/>
	<path fill="#1d3238" d="M9.439,21.89c-1.379,0-2.758,0.001-4.137,0c-0.656,0-1.084-0.396-1.079-0.992c0.005-0.577,0.434-0.962,1.075-0.962
		c2.758-0.001,5.516-0.001,8.275,0c0.657,0,1.085,0.395,1.079,0.992c-0.006,0.579-0.433,0.962-1.076,0.963
		C12.198,21.891,10.819,21.89,9.439,21.89z"/>
	<path fill="#1d3238" d="M9.404,25.802c-1.368,0-2.737,0.001-4.105,0c-0.655,0-1.083-0.398-1.076-0.995c0.007-0.576,0.436-0.959,1.079-0.959
		c2.758-0.001,5.516-0.001,8.275,0c0.643,0,1.07,0.384,1.076,0.962c0.006,0.597-0.422,0.992-1.079,0.992
		C12.184,25.802,10.794,25.802,9.404,25.802z"/>
	<path fill="#1d3238" d="M28.215,20.916c-0.001,1.814-1.45,3.258-3.268,3.256c-1.804-0.002-3.255-1.466-3.251-3.279
		c0.004-1.787,1.464-3.238,3.257-3.239C26.77,17.653,28.216,19.098,28.215,20.916z M26.257,20.928
		c0.01-0.703-0.586-1.311-1.291-1.318c-0.699-0.007-1.31,0.6-1.31,1.302c0,0.688,0.585,1.284,1.277,1.302
		C25.63,22.233,26.247,21.633,26.257,20.928z"/>
	
</g>
</svg>
