<svg width="34" height="34" viewBox="0 0 34 34" fill="none" xmlns="http://www.w3.org/2000/svg">
<path d="M9.70361 27.1162C10.3204 26.3696 10.6914 25.4129 10.6914 24.3711C10.6914 21.991 8.75507 20.0547 6.375 20.0547C3.99493 20.0547 2.05859 21.991 2.05859 24.3711C2.05859 25.4129 2.42961 26.3696 3.04639 27.1162C1.29366 27.8882 0.0664062 29.6409 0.0664062 31.6758V33.0039C0.0664062 33.554 0.512391 34 1.0625 34H11.6875C12.2376 34 12.6836 33.554 12.6836 33.0039V31.6758C12.6836 29.6409 11.4563 27.8882 9.70361 27.1162ZM6.375 22.0469C7.65657 22.0469 8.69922 23.0895 8.69922 24.3711C8.69922 25.6527 7.65657 26.6953 6.375 26.6953C5.09343 26.6953 4.05078 25.6527 4.05078 24.3711C4.05078 23.0895 5.09343 22.0469 6.375 22.0469ZM10.6914 32.0078H2.05859V31.6758C2.05859 30.028 3.39914 28.6875 5.04688 28.6875H7.70312C9.35086 28.6875 10.6914 30.028 10.6914 31.6758V32.0078Z" fill="#1D3238"/>
<path d="M24.9688 0H9.03125C4.08804 0 0.0664062 4.02163 0.0664062 8.96484C0.0664062 13.9081 4.08804 17.9297 9.03125 17.9297H13.3477V22.2461C13.3477 22.649 13.5903 23.0122 13.9626 23.1664C14.0858 23.2174 14.2153 23.2422 14.3436 23.2422C14.6027 23.2422 14.8575 23.141 15.0481 22.9504L20.0688 17.9297H24.9688C29.912 17.9297 33.9336 13.9081 33.9336 8.96484C33.9336 4.02163 29.912 0 24.9688 0ZM24.9688 15.9375H19.6562C19.392 15.9375 19.1387 16.0425 18.9519 16.2293L15.3398 19.8413V16.9336C15.3398 16.3835 14.8939 15.9375 14.3438 15.9375H9.03125C5.18653 15.9375 2.05859 12.8096 2.05859 8.96484C2.05859 5.12012 5.18653 1.99219 9.03125 1.99219H24.9688C28.8135 1.99219 31.9414 5.12012 31.9414 8.96484C31.9414 12.8096 28.8135 15.9375 24.9688 15.9375Z" fill="#1D3238"/>
<path d="M19.6562 15.9375H24.9688C28.8135 15.9375 31.9414 12.8096 31.9414 8.96484C31.9414 5.12012 28.8135 1.99219 24.9688 1.99219H9.03125C5.18653 1.99219 2.05859 5.12012 2.05859 8.96484C2.05859 12.8096 5.18653 15.9375 9.03125 15.9375H14.3438C14.8939 15.9375 15.3398 16.3835 15.3398 16.9336V19.8413L18.9519 16.2293C19.1387 16.0425 19.392 15.9375 19.6562 15.9375Z" fill="#F7F1C3"/>
<path d="M26.9146 5.86168L22.89 9.95496L20.7829 7.84789C20.394 7.45888 19.7633 7.45888 19.3743 7.84789C18.9853 8.2369 18.9853 8.86756 19.3743 9.25657L22.1917 12.074C22.3785 12.2609 22.6319 12.3658 22.896 12.3658H22.9002C23.1658 12.3646 23.42 12.2575 23.6063 12.0681L28.3353 7.25847C28.721 6.86621 28.7156 6.23555 28.3233 5.84986C27.931 5.46417 27.3004 5.46942 26.9146 5.86168Z" fill="#1D3238"/>
<path d="M13.0559 5.60429C12.667 5.21528 12.0362 5.21528 11.6472 5.60429L9.69535 7.55617L7.7434 5.60423C7.35446 5.21522 6.72373 5.21522 6.33472 5.60423C5.94572 5.99323 5.94572 6.62389 6.33472 7.0129L8.28667 8.96485L6.33472 10.9168C5.94572 11.3058 5.94572 11.9365 6.33472 12.3255C6.52923 12.52 6.78416 12.6172 7.0391 12.6172C7.29403 12.6172 7.54896 12.52 7.7434 12.3254L9.69535 10.3735L11.6473 12.3255C11.8417 12.52 12.0967 12.6172 12.3516 12.6172C12.6065 12.6172 12.8615 12.52 13.0559 12.3254C13.4449 11.9364 13.4449 11.3057 13.0559 10.9167L11.104 8.96485L13.056 7.0129C13.445 6.62396 13.445 5.99323 13.0559 5.60429Z" fill="#1D3238"/>
</svg>
