<svg version="1.1" xmlns="http://www.w3.org/2000/svg" xmlns:xlink="http://www.w3.org/1999/xlink" x="0px" y="0px"
	 width="71.413px" height="51px" viewBox="0 0 71.413 51" enable-background="new 0 0 71.413 51" xml:space="preserve">
<g>
	<path fill="#1D3238" d="M55.48,51.059L55.48,51.059c-0.196,0-0.395-0.004-0.591-0.011l-38.43,0.001
		c-0.134,0.006-0.331,0.01-0.526,0.01c-8.598,0-15.596-6.734-15.932-15.332L0,15.4C0.345,6.538,7.67-0.298,16.523,0.011l38.43-0.001
		C55.087,0.004,55.282,0,55.479,0c8.599,0,15.598,6.734,15.934,15.332l0.001,20.327C71.076,44.324,64.078,51.059,55.48,51.059z
		 M54.953,47.549c0.218,0.007,0.373,0.01,0.526,0.01c6.711,0,12.173-5.257,12.435-11.969L67.913,15.4
		C67.646,8.606,61.971,3.248,55.017,3.509L16.46,3.51c-0.218-0.007-0.372-0.01-0.525-0.01C9.223,3.5,3.761,8.757,3.499,15.468
		L3.5,35.658c0.267,6.795,5.986,12.159,12.896,11.892L54.953,47.549z"/>
</g>
<path fill="none" stroke="#1D3238" stroke-width="3.5" stroke-linecap="round" stroke-linejoin="round" d="M34.539,15.657
	l10.734,7.294c0.695,0.406,1.123,1.151,1.123,1.956c0,0.805-0.428,1.55-1.123,1.956l-10.734,7.98
	c-2.037,1.382-5.121,0.204-5.121-1.956v-15.28C29.419,15.457,32.505,14.275,34.539,15.657z"/>
</svg>