<svg width="47" height="47" viewBox="0 0 47 47" fill="none" xmlns="http://www.w3.org/2000/svg">
<path d="M13.6641 20.6774C14.1868 20.519 15.3769 20.6969 15.9219 21.0875C16.0126 21.2001 16.0983 21.3454 16.1788 21.4918C16.5888 21.5384 16.8999 21.696 17.0938 21.8248L17.2618 21.9479L17.3966 22.068C17.6894 22.353 17.8362 22.6612 17.8536 22.6949C17.9249 22.8333 17.9852 22.9754 18.0323 23.0934C18.1289 23.3356 18.2304 23.6302 18.3292 23.9332C18.5293 24.5474 18.7598 25.3283 18.9796 26.0914C19.1983 26.8512 19.4199 27.6411 19.5899 28.2369C19.7804 28.9043 19.8723 29.2016 19.877 29.2184L19.9542 29.4205C20.1169 29.8849 20.1657 30.3113 20.1915 30.649L20.2637 31.5025C21.0203 31.4332 21.5932 31.8562 21.7296 31.9703C21.9722 32.1734 22.1048 32.3864 22.1368 32.4371C22.2266 32.5794 22.2782 32.7025 22.2882 32.7262L22.3282 32.8287L22.4923 33.315C22.6517 33.819 22.7942 34.3602 22.8975 34.817L22.96 35.1149C22.9798 35.2156 22.9977 35.3186 23.0157 35.4225C23.1143 35.7767 23.2223 36.1632 23.3419 36.5758C23.5073 36.7777 23.6762 36.9835 23.8507 37.2057L24.6085 38.1637C24.8778 38.5051 25.1487 38.8524 25.377 39.1559L25.5743 39.4381C25.9982 40.0958 26.1836 40.7332 26.2735 41.068L26.3087 41.2174C26.3197 41.2731 26.3275 41.3284 26.3341 41.3824C26.382 41.4563 26.5591 41.7387 26.6407 42.1158C26.6943 42.3639 26.7216 42.7118 26.6153 43.1031C26.5055 43.5068 26.2881 43.8278 26.045 44.0602C25.7322 44.359 25.3891 44.5015 25.17 44.5699L24.9981 44.6168C24.2642 44.7925 23.5716 44.7857 22.9942 44.7525C22.7071 44.736 22.4084 44.7095 22.1417 44.6871L21.3174 44.6285C19.9666 44.5616 18.8142 44.5468 17.8633 44.5406C17.1807 44.5362 16.5415 44.5374 16.0206 44.5231L15.5411 44.5025C14.3292 44.4277 13.2713 44.4126 12.3673 44.4088C11.7198 44.4061 11.0878 44.4098 10.5518 44.3971L10.0508 44.3785C7.85874 44.2535 6.71158 44.2828 6.1114 44.3307C5.82274 44.3537 5.65749 44.3815 5.55671 44.4C5.52726 44.4054 5.50001 44.4112 5.46686 44.4176C5.4382 44.4231 5.39319 44.4312 5.3487 44.4391C5.26784 44.4534 5.0853 44.485 4.8653 44.485C4.75442 44.485 4.21421 44.4892 3.68073 44.1188C3.35818 43.8947 3.06323 43.549 2.91218 43.0885C2.77016 42.6554 2.80388 42.2715 2.85847 42.0221C2.95474 41.5826 3.17509 41.2887 3.23347 41.2106C3.32379 41.0897 3.41222 40.9962 3.46589 40.942C3.64642 40.7598 3.90729 40.5518 4.04206 40.442C4.44719 40.112 4.74476 39.8565 4.89655 39.6647L5.0694 39.4293C5.22944 39.1946 5.35595 38.9567 5.48835 38.6842C5.64092 38.3701 5.89447 37.7922 6.21686 37.2867L6.43854 36.9137C6.64248 36.5425 6.824 36.1393 7.24616 35.3541L7.51472 34.8649C7.79916 34.3582 8.1297 33.8052 8.49616 33.2633L8.68757 32.9527C8.87554 32.6219 9.05016 32.2394 9.18366 31.8932L9.18854 31.8815C9.19166 31.8731 9.19598 31.8617 9.20124 31.8473C9.21189 31.818 9.22529 31.7796 9.24225 31.732C9.27623 31.6368 9.32048 31.5109 9.37409 31.358C9.4812 31.0525 9.62298 30.6459 9.78718 30.1715C10.1155 29.2227 10.533 28.008 10.9454 26.8024C11.3578 25.5966 11.7644 24.4016 12.0714 23.4899C12.1309 23.3129 12.1853 23.1465 12.2364 22.9938C12.3325 22.6866 12.4136 22.4304 12.4757 22.2389C12.5185 22.1066 12.5552 21.9957 12.5821 21.9176C12.5918 21.8893 12.613 21.8272 12.6368 21.7672C12.6432 21.751 12.6584 21.7122 12.6798 21.6656C12.6901 21.6431 12.7111 21.5985 12.7403 21.5445C12.7526 21.5217 12.8366 21.363 12.9835 21.192C13.0841 21.0833 13.4171 20.8129 13.6641 20.6774Z" fill="#F7F1C3"/>
<path d="M20.8746 12.0016C19.3141 5.49026 25.2465 -0.462794 31.8423 0.992844C37.0825 2.14946 40.1239 7.18225 38.7779 12.446C38.7017 12.7441 38.6235 13.0424 38.5455 13.3405C38.2294 14.5486 37.9135 15.759 37.7105 16.986C37.3681 19.0562 36.5073 20.8238 34.8199 22.0749C34.0551 22.6417 34.0082 23.2385 34.1382 24.0397C34.7279 24.1037 35.3166 24.1704 35.9039 24.237C37.2016 24.3841 38.4952 24.5307 39.7916 24.6471C43.036 24.9386 45.5976 26.9115 46.5259 29.8942C46.6101 30.1645 46.682 30.4386 46.7545 30.7126C46.7882 30.8402 46.8221 30.9682 46.857 31.0954C46.8567 34.1699 46.857 37.2445 46.857 40.319C46.5013 41.0268 45.9179 41.2336 45.1363 41.2311C42.7448 41.223 40.353 41.2198 37.9615 41.2184H28.233L28.8101 42.3932L28.8531 42.485C29.7297 44.4277 28.3379 46.6666 26.2154 46.6667H3.54742C1.39137 46.6667 -0.010936 44.3564 0.952696 42.3932L9.67242 24.6354L11.1978 21.529L12.2877 19.3102L12.3384 19.2096C13.4327 17.1668 16.3301 17.1667 17.4244 19.2096L17.4752 19.3102L20.2349 24.9313L25.6031 24.0348C25.7754 23.1972 25.6426 22.6207 24.8941 22.068C23.2812 20.8774 22.3904 19.1983 22.0582 17.2223C21.8956 16.2553 21.6791 15.2963 21.4634 14.3385C21.4394 14.2318 21.4151 14.125 21.3912 14.0182C21.3073 13.6447 21.2085 13.274 21.1089 12.904C21.0282 12.6038 20.947 12.3037 20.8746 12.0016ZM3.86383 43.5143H25.899L14.8814 21.0759L3.86383 43.5143ZM14.8814 38.0065C15.7363 38.0066 16.4292 38.7122 16.4293 39.5827V40.1335C16.4292 41.004 15.7363 41.7096 14.8814 41.7096C14.0265 41.7096 13.3336 41.004 13.3336 40.1335V39.5827C13.3336 38.7122 14.0265 38.0065 14.8814 38.0065ZM33.9019 26.5407C32.3297 30.2286 27.4394 30.2568 25.8511 26.5592L23.1851 27.2575C22.3769 27.4741 21.9022 27.6398 21.6304 27.7731L26.9722 38.651H44.2818C44.2818 37.9224 44.2901 37.1969 44.2984 36.4743C44.3173 34.8212 44.3356 33.1818 44.2545 31.5475C44.1516 29.4776 42.5414 27.6754 40.5259 27.3405C38.9954 27.0862 37.4494 26.9232 35.9087 26.7604C35.2385 26.6896 34.5685 26.6187 33.9019 26.5407ZM14.8814 26.9909C15.7362 26.9909 16.4292 27.6966 16.4293 28.5671V34.0749C16.4293 34.9454 15.7363 35.651 14.8814 35.651C14.0265 35.651 13.3336 34.9454 13.3336 34.0749V28.5671C13.3337 27.6966 14.0265 26.9909 14.8814 26.9909ZM28.2271 24.2848C28.218 24.6433 28.2095 25.0036 28.2457 25.3591C28.3291 26.1778 29.0234 26.777 29.8316 26.7975C30.6657 26.8188 31.4086 26.2235 31.5025 25.3825C31.5438 25.0118 31.5334 24.6351 31.523 24.2721C31.5185 24.1133 31.5132 23.9565 31.5132 23.8044H28.2359C28.2359 23.9637 28.2312 24.1244 28.2271 24.2848ZM33.7496 11.2936C32.4049 12.3389 30.9291 13.0612 29.2671 13.3551C29.1732 13.3718 29.0787 13.3905 28.9839 13.4089C28.2089 13.5588 27.4236 13.7104 26.8609 12.9723C26.0403 13.2381 25.2983 13.4777 24.5211 13.7292C24.5211 13.9873 24.5165 14.2471 24.5123 14.5075C24.5028 15.0816 24.4929 15.6599 24.5289 16.235C24.6657 18.424 25.7447 20.0342 27.7818 20.8962C29.7963 21.7485 31.6549 21.3572 33.3853 20.028C35.4519 18.4403 36.1298 13.6983 33.7496 11.2936ZM33.4693 4.33464C31.085 2.84695 28.0669 2.97652 25.814 4.66374C23.7731 6.19233 22.7067 9.03377 23.3765 11.2604C23.4372 11.2541 23.4993 11.248 23.5621 11.2428C23.7 11.2314 23.8422 11.2197 23.981 11.194C26.0004 10.8202 27.523 9.74302 28.5884 8.0114C29.0375 7.28148 29.644 7.04965 30.2896 7.33269C30.9408 7.61856 31.1751 8.2187 30.9468 9.03386C30.8719 9.30133 30.7922 9.56749 30.7125 9.83366C30.6773 9.95093 30.6417 10.0688 30.607 10.1862L30.7671 10.3053C30.9674 10.1509 31.1707 9.99984 31.3736 9.84831C31.8266 9.51001 32.2801 9.17162 32.7037 8.80046C33.6208 7.99658 34.1975 7.97849 35.0416 8.87468C35.3782 9.23197 35.69 9.61261 36.0123 10.0055C36.1601 10.1858 36.3107 10.3687 36.4664 10.5534C36.9128 8.37221 35.5906 5.65837 33.4693 4.33464Z" fill="#1D3238"/>
</svg>
